<svg width="57" height="57" viewBox="0 0 57 57" fill="none" xmlns="http://www.w3.org/2000/svg">
<circle cx="28.417" cy="28.8354" r="28" fill="#EEF6F0"/>
<path d="M38.1915 20.4087L29.8315 15.902C28.9515 15.422 27.8849 15.422 27.0049 15.902L18.6449 20.4087C18.0315 20.742 17.6582 21.382 17.6582 22.1153C17.6582 22.8353 18.0315 23.4887 18.6449 23.822L27.0049 28.3287C27.4449 28.5687 27.9382 28.6887 28.4182 28.6887C28.8982 28.6887 29.3915 28.5687 29.8315 28.3287L38.1915 23.822C38.8049 23.4887 39.1782 22.8487 39.1782 22.1153C39.1782 21.382 38.8049 20.742 38.1915 20.4087Z" fill="#39764A"/>
<path opacity="0.4" d="M25.6316 29.8889L17.845 25.9956C17.245 25.7023 16.5516 25.7289 15.9916 26.0756C15.4183 26.4356 15.085 27.0356 15.085 27.7023V35.0489C15.085 36.3156 15.7916 37.4623 16.925 38.0356L24.6983 41.9289C24.965 42.0623 25.2583 42.1289 25.5516 42.1289C25.8983 42.1289 26.245 42.0356 26.5516 41.8489C27.125 41.5023 27.4583 40.8889 27.4583 40.2223V32.8756C27.4716 31.5956 26.765 30.4489 25.6316 29.8889Z" fill="#39764A"/>
<path opacity="0.4" d="M40.8446 26.0756C40.2713 25.729 39.5779 25.689 38.9913 25.9956L31.2179 29.889C30.0846 30.4623 29.3779 31.5956 29.3779 32.8756V40.2223C29.3779 40.889 29.7113 41.5023 30.2846 41.849C30.5913 42.0356 30.9379 42.129 31.2846 42.129C31.5779 42.129 31.8713 42.0623 32.1379 41.929L39.9113 38.0356C41.0446 37.4623 41.7513 36.329 41.7513 35.049V27.7023C41.7513 27.0356 41.4179 26.4356 40.8446 26.0756Z" fill="#39764A"/>
</svg>
