<svg width="124" height="74" viewBox="0 0 124 74" fill="none" xmlns="http://www.w3.org/2000/svg">
<path d="M123.407 13.5931C123.612 16.6776 122.739 19.7375 120.935 22.2515C119.132 24.7654 116.511 26.5779 113.518 27.3801C108.182 28.6393 103.013 30.5172 98.1148 32.9757C92.4887 35.7748 87.5727 39.8109 83.737 44.78C79.9013 49.749 77.2461 55.5215 75.971 61.6626C75.4362 64.9118 73.7884 67.8755 71.3086 70.0487C68.8289 72.2219 65.6705 73.4704 62.3715 73.5812L61.5834 73.5809C58.2845 73.4676 55.127 72.2168 52.6489 70.0417C50.1707 67.8666 48.5253 64.9017 47.9929 61.6521C46.7225 55.51 44.0716 49.7355 40.2396 44.7636C36.4077 39.7916 31.4947 35.7518 25.8708 32.9485C20.9747 30.4863 15.8065 28.6045 10.4718 27.3412C7.54757 26.4895 4.98991 24.6928 3.20076 22.2333C1.4116 19.7738 0.49234 16.791 0.587461 13.7537C0.682583 10.7164 1.78672 7.79673 3.72629 5.45346C5.66585 3.1102 8.33092 1.47622 11.3027 0.808261C13.1251 0.374893 15.0165 0.314242 16.863 0.629816C18.7095 0.945389 20.4728 1.63072 22.0466 2.6445C23.6204 3.65828 24.9721 4.97942 26.0201 6.52841C27.0682 8.0774 27.7908 9.82206 28.1446 11.6572C29.8375 18.4857 32.8099 24.9333 36.9052 30.6597C43.4695 39.4738 51.6443 44.718 61.9884 44.5254C72.3324 44.7258 80.511 39.4878 87.0819 30.6786C91.1816 24.9553 94.159 18.51 95.8569 11.6827C96.2121 9.84783 96.9361 8.10371 97.9853 6.55552C99.0345 5.00732 100.387 3.6872 101.962 2.6746C103.536 1.66201 105.3 0.978007 107.147 0.663825C108.994 0.349643 110.885 0.411719 112.707 0.84646C115.666 1.4641 118.331 3.05737 120.272 5.36961C122.213 7.68185 123.318 10.5785 123.407 13.5931Z" fill="white"/>
<path d="M14.5089 47.082C17.0374 47.1121 19.5006 47.8867 21.5891 49.3088C23.6776 50.7308 25.2984 52.7368 26.2477 55.0747C27.197 57.4126 27.4325 59.9783 26.9247 62.4493C26.417 64.9204 25.1885 67.1866 23.3936 68.9634C21.5988 70.7402 19.3177 71.9484 16.8367 72.4361C14.3558 72.9238 11.7857 72.6693 9.44931 71.7046C7.1129 70.7398 5.11432 69.1079 3.7047 67.0138C2.29508 64.9196 1.53727 62.4567 1.52641 59.9343C1.56898 56.5219 2.95357 53.2627 5.38186 50.8587C7.81014 48.4548 11.0878 47.0985 14.5089 47.082V47.082Z" fill="white" fill-opacity="0.5"/>
<path d="M97.2851 59.8228C97.2905 56.4725 98.6207 53.2597 100.987 50.8821C103.353 48.5045 106.564 47.1542 109.923 47.1244C112.471 47.087 114.973 47.8079 117.11 49.1952C119.246 50.5825 120.919 52.5732 121.916 54.9133C122.913 57.2534 123.188 59.8367 122.707 62.3336C122.226 64.8306 121.01 67.1279 119.214 68.9323C117.418 70.7368 115.124 71.9666 112.625 72.4648C110.125 72.963 107.533 72.707 105.18 71.7295C102.827 70.752 100.819 69.0973 99.4132 66.9766C98.007 64.8559 97.2661 62.3654 97.2851 59.8228Z" fill="white" fill-opacity="0.5"/>
<path d="M74.7216 14.295C74.7192 16.8012 73.9735 19.2506 72.5785 21.335C71.1834 23.4193 69.2013 25.0453 66.8817 26.0082C64.5622 26.9711 62.0088 27.2278 59.5433 26.7461C57.0777 26.2645 54.8102 25.0659 53.0261 23.3012C51.2421 21.5366 50.0213 19.2849 49.5175 16.8296C49.0137 14.3743 49.2494 11.8252 50.195 9.50325C51.1405 7.18132 52.7537 5.19036 54.8312 3.78109C56.9088 2.37183 59.3579 1.60729 61.8702 1.58367C63.5611 1.53798 65.2439 1.83471 66.8166 2.45595C68.3894 3.07719 69.8195 4.01003 71.0207 5.19812C72.2219 6.38621 73.1691 7.80485 73.8052 9.36839C74.4413 10.9319 74.753 12.6079 74.7216 14.295V14.295Z" fill="white" fill-opacity="0.5"/>
</svg>
