<svg width="25" height="25" viewBox="0 0 25 25" fill="none" xmlns="http://www.w3.org/2000/svg">
<path d="M17.0419 7.54871C15.4132 7.54857 13.8232 8.04537 12.4843 8.97275C11.1454 9.90012 10.1213 11.2139 9.54887 12.7387L11.4229 13.4417C11.9179 12.1271 12.8583 11.0278 14.0803 10.3351C15.3024 9.64247 16.7287 9.40039 18.1108 9.65103C19.493 9.90167 20.7434 10.6292 21.6445 11.7068C22.5455 12.7845 23.04 14.144 23.0419 15.5487C23.0419 17.14 22.4097 18.6661 21.2845 19.7913C20.1593 20.9166 18.6332 21.5487 17.0419 21.5487H7.04187C5.6251 21.5496 4.25372 21.0491 3.17055 20.1359C2.08739 19.2226 1.36234 17.9556 1.12377 16.559C0.885207 15.1625 1.14852 13.7266 1.8671 12.5056C2.58567 11.2845 3.71314 10.3572 5.04987 9.88771C4.96421 8.16032 5.52107 6.46238 6.61308 5.12122C7.7051 3.78007 9.25495 2.89065 10.9638 2.62445C12.6727 2.35825 14.4197 2.7341 15.8679 3.67955C17.3161 4.62501 18.363 6.07312 18.8069 7.74471C18.2276 7.61429 17.6356 7.54856 17.0419 7.54871Z" fill="#51A969"/>
</svg>
