<svg width="56" height="57" viewBox="0 0 56 57" fill="none" xmlns="http://www.w3.org/2000/svg">
<path d="M0 28.0996C0 12.6356 12.536 0.0996094 28 0.0996094C43.464 0.0996094 56 12.6356 56 28.0996C56 43.5636 43.464 56.0996 28 56.0996C12.536 56.0996 0 43.5636 0 28.0996Z" fill="#142A20"/>
<path d="M31.402 37.0996V30.1336H33.735L34.084 27.4256H31.402V25.6976C31.402 24.9136 31.62 24.3786 32.744 24.3786H34.178V21.9566C33.4838 21.883 32.7861 21.8472 32.088 21.8496C30.021 21.8496 28.606 23.1116 28.606 25.4296V27.4256H26.268V30.1336H28.606V37.0996H20C19.7348 37.0996 19.4804 36.9943 19.2929 36.8067C19.1054 36.6192 19 36.3648 19 36.0996V20.0996C19 19.8344 19.1054 19.58 19.2929 19.3925C19.4804 19.205 19.7348 19.0996 20 19.0996H36C36.2652 19.0996 36.5196 19.205 36.7071 19.3925C36.8946 19.58 37 19.8344 37 20.0996V36.0996C37 36.3648 36.8946 36.6192 36.7071 36.8067C36.5196 36.9943 36.2652 37.0996 36 37.0996H31.402Z" fill="#FAFBFA"/>
</svg>
