<svg width="584" height="319" viewBox="0 0 584 319" fill="none" xmlns="http://www.w3.org/2000/svg">
<path d="M262.215 28.7972C238.017 10.7821 207.281 -0.000189739 173.828 -0.000188277C95.8194 -0.000184867 55.5264 48.7534 55.5264 130.928C55.5264 209.476 95.8194 261.855 173.828 261.855C207.281 261.855 238.017 251.075 262.215 233.06C262.215 233.06 307.501 194.892 307.501 130.929C307.501 56.0927 262.215 28.7972 262.215 28.7972Z" fill="#EEF6F0"/>
<path d="M450.873 76.1208C454.595 81.0132 456.822 87.2272 456.822 93.9905C456.822 109.762 446.751 117.908 429.776 117.908C413.55 117.908 402.73 109.762 402.73 93.9905C402.73 87.2272 404.957 81.0132 408.679 76.1208C408.679 76.1208 415.877 64.6103 428.063 64.6103C442.296 63.8506 450.873 76.1208 450.873 76.1208Z" fill="#EEF6F0"/>
<path d="M54.084 280.466H55.3756C55.8401 275.668 56.7602 270.925 58.1234 266.301C63.7497 247.313 61.2886 244.858 70.7811 232.986C80.2736 221.115 80.9776 196.504 80.9776 196.504C80.9776 196.504 85.5507 168.551 80.9776 156.245C76.4045 143.94 76.0554 131.631 64.9817 118.622C64.9817 118.622 62.8697 136.026 60.2326 143.937C57.5954 151.848 55.0917 159.408 57.0476 178.396C59.0034 197.384 60.2184 198.965 60.664 203.887C61.1097 208.809 60.4086 229.563 61.4646 232.986C62.5205 236.41 55.3103 260.147 54.7823 270.343C54.6262 273.409 54.3395 276.898 54.084 280.466Z" fill="#215E4B"/>
<path d="M58.1295 280.466C59.9604 276.239 63.1852 272.041 68.8313 269.52C83.5924 262.926 93.5619 263.073 100.417 247.251C107.273 231.428 107.273 209.803 109.646 205.32C109.646 205.32 103.318 204.264 96.9882 215.605C90.6579 226.946 86.3658 235.382 82.7124 241.976C79.0591 248.571 73.782 246.723 69.2997 251.733C65.5413 255.934 62.0724 265.702 60.7553 270.658C60.3309 272.27 59.7012 273.82 58.8817 275.271C58.1352 276.588 57.2552 278.192 56.7272 279.336C56.5766 279.703 56.4607 280.083 56.3809 280.472L58.1295 280.466Z" fill="#3C8F7C"/>
<path d="M16.457 205.471C15.401 219.009 24.0164 217.961 24.3684 226.568C24.7203 235.175 35.97 249.774 41.1847 260.147C43.8956 265.54 44.8977 273.789 45.2326 280.466H49.4225C47.8017 263.573 40.9462 251.815 36.85 242.391C31.5758 230.261 30.7838 224.723 35.2689 215.228C39.754 205.732 33.1569 181.209 39.5411 170.274C45.9253 159.34 42.6636 142.171 41.1847 135.586C39.7057 129 41.3323 124.515 42.6523 117.56C43.9723 110.605 41.1847 100.528 41.1847 100.528C40.9462 109.14 34.3889 120.921 29.6426 128.48C24.8963 136.04 15.929 156.595 16.985 165.905C18.0409 175.216 17.5101 175.926 17.5101 175.926C14.1718 188.416 17.5101 191.933 16.457 205.471Z" fill="#215E4B"/>
<path d="M41.5852 269.463C42.1246 271.081 43.8562 275.206 45.4316 280.466H47.9865C46.8169 273.772 44.8015 266.006 41.395 261.552C34.5396 252.587 20.826 248.718 19.2533 242.215C17.6807 235.711 19.4293 216.193 9.40596 205.295C9.40596 205.295 10.8253 217.43 9.40596 220.681C7.98662 223.931 -3.95571 239.05 3.07854 251.707C10.1128 264.365 25.9328 262.778 30.855 265.597C35.7773 268.416 40.7081 266.826 41.5852 269.463Z" fill="#3C8F7C"/>
<path d="M35.2582 211.085C35.0822 224.095 45.2788 229.017 45.1028 236.225C44.9268 243.432 47.2119 251.17 49.1451 256.97C50.3714 260.643 49.6929 270.879 49.4772 280.466H52.3159C53.0284 273.411 53.809 263.238 53.5535 258.73C53.2015 252.576 56.0147 247.659 56.3667 236.929C56.7187 226.199 59.0038 216.536 54.2547 202.998C49.5056 189.46 50.377 173.286 30.5091 158.343C30.5091 158.343 26.9948 174.166 29.632 182.778C32.2691 191.391 35.4342 198.076 35.2582 211.085Z" fill="#3C8F7C"/>
<path d="M55.3844 269.364H28.1529C27.7176 269.366 27.2882 269.466 26.897 269.657C26.5058 269.848 26.1629 270.125 25.894 270.468C25.625 270.81 25.437 271.209 25.344 271.634C25.251 272.06 25.2554 272.501 25.3568 272.924L35.2922 314.78C35.4412 315.412 35.7991 315.976 36.3081 316.379C36.8171 316.783 37.4474 317.002 38.0968 317.003H70.7899C71.4392 317.002 72.0692 316.782 72.5781 316.379C73.087 315.975 73.4451 315.412 73.5945 314.78L83.5299 272.924C83.631 272.5 83.6349 272.059 83.5411 271.633C83.4474 271.208 83.2586 270.809 82.9887 270.467C82.7189 270.124 82.3751 269.848 81.9831 269.657C81.5911 269.467 81.1611 269.368 80.7253 269.367L55.3844 269.364Z" fill="#9BC1F9"/>
<path d="M185.214 244.715H180.74V310.153H185.214V244.715Z" fill="#86B1F2"/>
<path d="M248.744 293.416C248.744 293.416 249.723 303.635 249.079 306.962C248.952 307.517 248.786 308.063 248.582 308.594C247.918 310.462 249.735 316.162 249.735 316.162L274.085 316.25C275.41 316.25 274.522 315.45 273.443 314.712C271.678 313.505 270.255 312.725 264.643 310.198C264.277 310.034 262.94 309.245 262.455 308.972C261.155 308.173 259.971 307.199 258.935 306.079C257.163 304.243 256.894 295.241 256.894 295.241L248.744 293.416Z" fill="#F7A491"/>
<path d="M262.441 308.975C256.023 310.627 251.251 309.614 248.574 308.62C247.912 310.485 246.666 316.787 247.41 316.787C253.516 316.787 258.682 317.894 276.177 317.639C276.805 317.639 276.728 315.572 276.319 315.118C275.192 313.849 262.926 309.259 262.441 308.975Z" fill="#F7CC7F"/>
<path d="M276.296 276.48C276.296 276.48 281.624 285.385 282.484 288.669C282.608 289.224 282.693 289.787 282.74 290.353C282.95 292.314 287.077 296.782 287.077 296.782L309.267 287.199C310.476 286.677 309.318 286.296 308.018 286.064C305.886 285.666 304.248 285.496 298.04 285.453C297.634 285.453 296.076 285.26 295.517 285.203C293.982 284.991 292.482 284.576 291.057 283.969C288.65 283.001 284.494 274.919 284.494 274.919L276.296 276.48Z" fill="#F7A491"/>
<path d="M295.519 285.195C290.41 289.246 285.615 290.214 282.745 290.373C282.952 292.331 284.556 298.562 285.232 298.267C290.787 295.846 295.968 294.798 311.771 287.616C312.338 287.361 311.373 285.518 310.805 285.269C309.239 284.576 296.078 285.252 295.519 285.195Z" fill="#F7CC7F"/>
<path d="M200.568 200.443V205.692L252.187 216.067L265.001 252.859L257.861 248.198L259.511 304.85L248.653 304.923C248.653 304.923 229.838 257.393 236.009 233.488L178.878 234.317C178.878 234.317 152.983 224.759 166.345 195.941L200.568 200.443Z" fill="#F47458"/>
<path d="M200.568 205.692C200.568 205.692 254.117 206.036 257.91 208.835C261.702 211.634 290.248 281.204 290.248 281.204L277.803 285.647C277.803 285.647 253.041 246.189 251.73 243.35C250.418 240.512 240.829 219.954 237.167 217.856C233.506 215.758 200.568 205.692 200.568 205.692Z" fill="#B75742"/>
<path d="M159.285 313.07H203.747C204.73 313.07 205.673 313.461 206.368 314.156C207.064 314.851 207.454 315.794 207.454 316.778C207.455 316.863 207.438 316.947 207.406 317.026C207.374 317.105 207.326 317.177 207.266 317.237C207.206 317.297 207.134 317.345 207.055 317.378C206.977 317.411 206.892 317.428 206.807 317.428H156.219C156.047 317.427 155.882 317.358 155.761 317.236C155.64 317.114 155.572 316.95 155.572 316.778C155.572 316.29 155.668 315.808 155.855 315.358C156.041 314.907 156.315 314.498 156.66 314.154C157.004 313.81 157.414 313.537 157.864 313.351C158.315 313.165 158.797 313.07 159.285 313.07Z" fill="#86B1F2"/>
<path d="M179.312 310.152H184.759C185.533 310.152 186.275 310.46 186.823 311.007C187.37 311.554 187.677 312.297 187.677 313.071C187.677 313.844 187.37 314.587 186.823 315.134C186.275 315.681 185.533 315.989 184.759 315.989H179.312C178.929 315.989 178.549 315.913 178.196 315.766C177.842 315.62 177.52 315.405 177.249 315.134C176.979 314.863 176.764 314.541 176.618 314.187C176.471 313.833 176.396 313.454 176.396 313.071C176.396 312.687 176.471 312.308 176.618 311.954C176.764 311.6 176.979 311.278 177.249 311.007C177.52 310.736 177.842 310.521 178.196 310.375C178.549 310.228 178.929 310.152 179.312 310.152Z" fill="#86B1F2"/>
<path d="M204.358 112.652C204.6 106.827 203.742 101.073 201.134 95.6486C198.891 90.9818 193.344 88.3362 188.283 88.3277C172.213 88.3078 170.172 109.538 159.941 117.728C156.819 120.229 153.324 122.27 150.367 124.967C139.446 134.93 144.366 153.376 154.392 162.111C161.349 168.174 172.275 171.617 180.863 166.88C185.339 164.404 188.74 160.294 191.158 155.789C194.596 149.393 196.81 142.016 199.254 135.2C201.857 127.947 204.037 120.396 204.358 112.652Z" fill="#13375B"/>
<path d="M248.687 173.697L213.72 163.947C213.72 163.947 206.339 154.051 196.875 140.777C193.775 143.843 192.049 148.555 188.927 151.593L212.073 177.195C212.486 177.651 212.99 178.017 213.552 178.268C214.114 178.518 214.722 178.649 215.338 178.651L247.472 178.759L258.466 179.633V172.596L248.687 173.697Z" fill="#F48C7F"/>
<path d="M198.349 166.275C198.349 166.275 186.347 153.969 183.259 148.624C180.17 143.279 185.362 146.759 190.665 145.351C192.674 144.82 192.163 133.054 195.962 136.878C202.187 143.151 210.016 154.125 210.016 154.125L198.349 166.275Z" fill="#96D9C9"/>
<path d="M181.285 131.478C181.285 131.478 170.515 129.351 165.601 133.465C160.687 137.578 166.654 174.075 166.649 180.127C166.643 186.179 163.273 203.279 163.273 203.279C163.273 203.279 195.918 208.991 201.102 199.907C201.102 199.907 202.578 165.295 202.356 160.943C202.135 156.591 197.298 138.801 195.961 136.882C194.624 134.963 181.285 131.478 181.285 131.478Z" fill="#50BFA5"/>
<path d="M181.217 114.81C181.217 114.81 181.16 115.13 181.06 115.678C180.572 118.307 178.69 127.033 177.418 129.426C175.883 132.321 182.676 141.561 189.216 140.434C191.16 140.097 187.569 131.944 187.743 131.067L188.98 124.844C189.239 123.539 189.5 122.216 189.747 120.972L191.016 114.551L181.217 114.81Z" fill="#F7A491"/>
<path d="M181.061 115.689C181.16 115.141 181.217 114.82 181.217 114.82L191.016 114.576L189.747 120.997C189.5 122.235 189.242 123.552 188.983 124.846C187.47 124.625 185.889 123.893 184.305 122.507C182.687 121.092 181.466 119.279 180.763 117.247C180.882 116.629 180.984 116.098 181.061 115.689Z" fill="#F47458"/>
<path d="M187.811 92.5968C187.811 92.5968 183.187 92.0631 180.3 95.7903C177.413 99.5175 174.285 111.082 181.475 117.364C188.666 123.646 195.771 116.535 196.824 108.996C197.877 101.456 198.289 92.3242 187.811 92.5968Z" fill="#F7A491"/>
<path d="M198.953 108.89C198.102 110.556 196.654 111.479 195.734 110.951C194.815 110.423 194.766 108.646 195.624 106.977C196.481 105.308 197.923 104.391 198.843 104.919C199.762 105.447 199.811 107.227 198.953 108.89Z" fill="#F7A491"/>
<path d="M188.328 91.3588C188.328 91.3588 182.159 102.347 177.745 102.855C173.331 103.364 172.752 109.2 172.752 109.2C172.752 109.2 174.33 95.7473 178.713 93.1528C183.096 90.5582 188.328 91.3588 188.328 91.3588Z" fill="#13375B"/>
<path d="M178.904 105.615C179.261 107.568 178.54 109.356 177.291 109.612C176.042 109.867 174.736 108.493 174.379 106.543C174.021 104.593 174.742 102.802 175.991 102.546C177.24 102.291 178.546 103.665 178.904 105.615Z" fill="#F7A491"/>
<path d="M229.332 172.525L199.018 165.817C199.018 165.817 188.052 151.729 177.523 139.605C174.424 142.671 172.698 147.383 169.575 150.42L192.722 176.022C193.135 176.479 193.638 176.844 194.2 177.095C194.762 177.346 195.371 177.477 195.986 177.479L228.117 177.587L239.114 178.461V171.424L229.332 172.525Z" fill="#F7A491"/>
<path d="M178.994 165.102C178.994 165.102 167.006 152.796 163.906 147.454C160.806 142.112 163.109 133.153 168.411 131.745C173.714 130.337 190.664 152.955 190.664 152.955L178.994 165.102Z" fill="#96D9C9"/>
<path d="M291.625 138.013H241.619C240.972 138.013 240.34 138.206 239.802 138.566C239.265 138.926 238.847 139.438 238.601 140.037L223.213 177.587H195.649C195.466 177.586 195.284 177.622 195.115 177.692C194.945 177.762 194.791 177.864 194.662 177.994C194.532 178.123 194.429 178.277 194.359 178.446C194.289 178.616 194.252 178.797 194.252 178.981C194.252 179.164 194.289 179.345 194.359 179.515C194.429 179.684 194.532 179.838 194.662 179.967C194.791 180.097 194.945 180.199 195.115 180.269C195.284 180.339 195.466 180.375 195.649 180.374H274.102C275.158 180.374 276.191 180.069 277.077 179.495C277.964 178.922 278.665 178.104 279.098 177.14L294.599 142.609C294.822 142.112 294.917 141.568 294.875 141.025C294.834 140.482 294.657 139.959 294.361 139.502C294.066 139.045 293.66 138.67 293.182 138.409C292.704 138.149 292.169 138.013 291.625 138.013H291.625Z" fill="#B75742"/>
<path d="M264.697 159.879C264.36 161.565 262.889 162.692 261.413 162.397C259.937 162.101 259.012 160.495 259.349 158.809C259.687 157.122 261.158 155.995 262.634 156.291C264.11 156.586 265.035 158.193 264.697 159.879Z" fill="white"/>
<path d="M190.59 113.219L183.817 112.87C183.817 112.87 183.84 115.45 186.815 115.689C190.442 115.984 190.59 113.219 190.59 113.219Z" fill="white"/>
<path d="M211.784 237.182L208.735 224.448C207.677 220.098 205.234 216.209 201.775 213.367C198.316 210.526 194.027 208.884 189.554 208.69L150.806 207.126L149.611 203.18L189.716 204.795C195.035 205.025 200.135 206.976 204.248 210.355C208.362 213.734 211.266 218.358 212.525 223.531L215.775 237.063C214.663 237.117 213.32 237.156 211.784 237.182Z" fill="#355389"/>
<path d="M159.81 230.4C159.81 230.4 213.047 231.311 218.597 230.4C224.146 229.489 226.545 236.446 224.893 240.091C223.241 243.736 218.679 245.144 211.971 245.485C205.263 245.825 149.429 247.389 147.857 245.899C146.571 244.681 129.644 186.818 123.487 165.655C122.895 163.625 123.134 161.443 124.151 159.588C125.168 157.734 126.879 156.359 128.909 155.765C130.93 155.173 133.104 155.402 134.957 156.403C136.81 157.405 138.193 159.098 138.804 161.113L159.81 230.4Z" fill="#F7CC7F"/>
<path d="M190.08 188.757H403.1C404.211 188.757 405.277 188.315 406.062 187.53C406.848 186.744 407.29 185.678 407.29 184.567C407.288 183.457 406.846 182.393 406.06 181.608C405.275 180.823 404.21 180.383 403.1 180.383H190.08C189.529 180.383 188.984 180.491 188.475 180.702C187.967 180.913 187.505 181.222 187.116 181.611C186.727 182 186.418 182.463 186.208 182.971C185.997 183.48 185.889 184.025 185.89 184.576C185.892 185.685 186.334 186.749 187.12 187.533C187.905 188.317 188.97 188.757 190.08 188.757Z" fill="#13375B"/>
<path d="M239.106 317.428H245.073L232.217 188.756H226.25L239.106 317.428Z" fill="#13375B"/>
<path d="M188.411 317.428H182.444L195.3 188.756H201.267L188.411 317.428Z" fill="#13375B"/>
<path d="M401.322 317.428H407.289L394.436 188.756H388.469L401.322 317.428Z" fill="#13375B"/>
<path d="M350.63 317.428H344.663L357.519 188.756H363.483L350.63 317.428Z" fill="#13375B"/>
<path d="M581.942 318.626H4.35063C4.19457 318.626 4.04004 318.595 3.8959 318.535C3.75175 318.476 3.62081 318.388 3.51059 318.277C3.40037 318.167 3.31304 318.036 3.25357 317.892C3.19411 317.747 3.16369 317.593 3.16407 317.437C3.16407 317.122 3.28907 316.82 3.5116 316.598C3.73412 316.375 4.03593 316.25 4.35063 316.25H581.937C582.251 316.25 582.553 316.375 582.776 316.598C582.998 316.82 583.123 317.122 583.123 317.437C583.124 317.751 583 318.052 582.779 318.275C582.557 318.498 582.257 318.624 581.942 318.626Z" fill="#DFE2E0"/>
<path d="M502.147 232.583C501.707 228.694 501.182 224.714 499.376 221.228C497.182 217.007 493.324 213.961 489.955 210.609C483.638 204.303 478.834 196.646 475.906 188.214C473.658 181.719 472.537 174.796 469.44 168.661C467.546 164.914 464.966 161.565 462.817 157.96C457.739 149.444 454.974 139.372 448.084 132.241C447.447 136.58 447.74 141.004 448.944 145.22C450.148 149.437 452.236 153.349 455.067 156.696C456.771 158.684 458.732 160.458 460.024 162.723C462.371 166.833 462.156 171.849 462.431 176.576C462.957 185.494 465.441 194.186 469.707 202.036C474.226 210.336 480.749 217.725 483.165 226.863C484.976 233.713 484.436 241.394 488.297 247.33C488.717 247.971 489.194 248.619 489.299 249.379C489.335 249.809 489.309 250.242 489.222 250.665C489.134 251.219 489.049 251.769 488.961 252.32C488.084 257.927 487.176 265.057 491.993 269.253C495.331 272.16 499.626 272.225 502.025 268.364C504.424 264.504 504.225 258.784 504.046 254.407C503.748 247.134 502.967 239.827 502.147 232.583Z" fill="#3C8F7C"/>
<path d="M510.822 228.072C508.949 221.583 506.039 215.403 504.577 208.809C503.158 202.411 503.158 195.799 503.158 189.248V167.708C503.158 163.24 503.158 158.746 502.411 154.338C500.822 144.854 495.882 136.085 495.056 126.519C494.696 122.377 495.116 118.187 494.659 114.054C494.432 111.664 493.768 109.337 492.7 107.187C492.434 106.681 492.031 106.26 491.537 105.972C491.044 105.683 490.479 105.539 489.908 105.555C489.336 105.572 488.781 105.748 488.305 106.064C487.828 106.38 487.45 106.823 487.213 107.343C484.817 112.53 483.301 118.13 484.266 123.694C484.834 127.03 486.29 130.138 487.369 133.346C492.169 147.627 489.623 163.436 493.33 178.041C494.466 182.449 496.149 186.773 496.345 191.317C496.816 202.192 488.68 212.13 489.438 222.991C490.049 231.896 496.453 239.265 499.138 247.779C500.643 252.542 500.966 257.626 502.579 262.355C503.83 266.045 506.743 270.491 511.265 269.378C515.56 268.319 514.263 264.813 514.07 261.464C513.408 250.129 514.019 239.143 510.822 228.072Z" fill="#327F6B"/>
<path d="M520.652 234.034C520.462 230.662 519.892 227.273 520.368 223.929C520.766 221.107 521.89 218.444 522.693 215.696C524.195 210.57 524.57 205.193 524.933 199.857C525.593 190.169 526.256 180.478 526.92 170.783C527.948 155.721 528.984 140.611 531.8 125.778C532.583 121.659 533.46 117.197 531.61 113.436C531.221 112.644 530.451 111.804 529.623 112.068C529.021 112.255 528.728 112.919 528.51 113.507C522.353 130.238 520.025 148.255 513.152 164.705C511.506 168.645 509.593 172.523 508.738 176.71C507.716 181.734 508.278 186.929 508.412 192.056C508.599 199.411 507.884 206.817 505.857 213.891C504.793 217.581 503.37 221.206 502.788 225.01C502.062 229.756 502.672 234.588 503.126 239.365C504 248.555 504.296 257.79 504.012 267.017C503.844 272.439 508.423 272.297 511.455 268.967C513.575 266.637 513.556 264.079 514.294 261.178C516.65 251.654 521.229 244.344 520.652 234.034Z" fill="#3C8F7C"/>
<path d="M492.052 248.724C488.004 242.22 479.942 238.521 477.356 231.308C476.698 229.474 476.439 227.502 475.636 225.725C473.851 221.779 469.788 219.55 465.797 217.737C465.669 217.68 465.529 217.656 465.39 217.666C465.25 217.677 465.116 217.722 464.997 217.796C464.879 217.871 464.781 217.974 464.712 218.096C464.643 218.218 464.606 218.355 464.602 218.494C464.593 218.972 464.702 219.445 464.921 219.87C465.139 220.295 465.46 220.66 465.854 220.93C468.958 223.029 471.238 226.139 472.306 229.73C473.541 233.957 473.005 238.592 474.538 242.72C475.823 246.183 478.475 249.016 479.718 252.496C480.854 255.678 480.737 259.156 481.271 262.491C481.805 265.827 483.289 269.369 486.352 270.783C497.429 275.893 494.667 252.925 492.052 248.724Z" fill="#327F6B"/>
<path d="M538.167 246.577C537.994 249.719 538.473 253.018 537.244 255.913C536.458 257.767 535.041 259.266 533.877 260.912C529.798 266.683 528.316 274.865 522.046 278.112C521.649 278.363 521.18 278.476 520.712 278.433C520.07 278.314 519.65 277.695 519.392 277.093C517.853 273.51 519.579 269.477 520.601 265.713C520.78 265.054 520.927 264.322 520.601 263.726C520.255 263.058 519.465 262.769 518.932 262.247C517.859 261.205 517.961 259.482 518.174 257.989C518.704 254.287 519.451 250.62 520.411 247.006C520.953 244.956 521.58 242.89 522.761 241.132C524.061 239.194 525.949 237.749 527.715 236.23C535.56 229.458 541.473 220.73 544.852 210.932C545.578 208.82 546.223 206.591 547.722 204.936C549.22 203.282 551.886 202.433 553.711 203.716C555.009 204.63 549.695 213.177 549.076 214.202C547.304 217.129 547.282 219.678 546.28 222.931C543.841 230.91 538.635 238.038 538.167 246.577Z" fill="#3C8F7C"/>
<path d="M531.984 250.214C533.145 247.213 534.314 244.176 534.698 240.98C535.123 237.431 534.558 233.801 535.166 230.275C535.944 225.733 538.572 221.759 539.892 217.353C540.838 214.171 541.07 210.824 541.638 207.557C543.259 198.189 547.656 189.063 546.393 179.656C546.109 177.609 545.195 175.224 543.165 174.875C541.326 174.557 539.651 176.241 539.174 178.046C538.697 179.852 539.052 181.759 539.174 183.624C539.526 188.871 538.071 194.08 535.052 198.385C532.163 202.473 527.956 205.55 525.373 209.828C522.182 215.074 521.75 221.467 520.121 227.405C516.888 239.183 508.766 249.459 507.293 261.588C506.703 266.414 507.835 272.279 512.289 274.206C525.18 279.787 529.068 257.759 531.984 250.214Z" fill="#327F6B"/>
<path d="M509.467 265.162H479.905C479.432 265.161 478.964 265.267 478.538 265.473C478.111 265.679 477.737 265.98 477.444 266.352C477.151 266.724 476.946 267.157 476.845 267.62C476.745 268.083 476.75 268.563 476.862 269.023L487.649 314.464C487.81 315.151 488.199 315.763 488.752 316.201C489.305 316.638 489.99 316.876 490.695 316.874H526.204C526.909 316.875 527.593 316.637 528.146 316.2C528.698 315.762 529.087 315.15 529.247 314.464L540.034 269.023C540.146 268.562 540.152 268.082 540.051 267.619C539.95 267.156 539.745 266.723 539.452 266.351C539.158 265.979 538.784 265.678 538.357 265.472C537.93 265.266 537.462 265.16 536.989 265.162H509.467Z" fill="#9BC1F9"/>
</svg>
