<svg width="492" height="434" viewBox="0 0 492 434" fill="none" xmlns="http://www.w3.org/2000/svg">
<g clip-path="url(#clip0_336_1238)">
<path d="M84.0539 157.506C83.2342 157.99 82.4646 158.555 81.7563 159.192C81.4385 148.834 73.97 144.714 64.7793 150.03C57.2938 154.354 50.9513 163.629 48.6785 172.713C46.4459 172.524 44.2136 173.08 42.3294 174.294C35.6286 178.17 30.1963 187.595 30.1963 195.345C30.1963 203.096 35.6286 206.237 42.3294 202.362L84.0539 178.23C86.6615 176.527 88.8316 174.232 90.388 171.532C91.9444 168.831 92.8434 165.801 93.0119 162.687C93.0119 156.963 89.0011 154.648 84.0539 157.506Z" fill="#B8DCC2"/>
<path d="M456.118 136.176C455.299 136.66 454.529 137.225 453.821 137.862C453.503 127.505 446.034 123.386 436.844 128.701C429.358 133.031 423.016 142.3 420.743 151.385C418.51 151.195 416.277 151.751 414.393 152.965C407.693 156.84 402.261 166.265 402.261 174.017C402.261 181.769 407.693 184.909 414.393 181.032L456.118 156.899C458.726 155.196 460.896 152.902 462.452 150.201C464.008 147.501 464.907 144.471 465.075 141.358C465.075 135.636 461.066 133.316 456.118 136.176Z" fill="#B8DCC2"/>
<path d="M260.849 433.446C260.498 433.446 260.152 433.355 259.846 433.182C259.54 433.009 259.283 432.759 259.101 432.458C258.919 432.157 258.818 431.814 258.807 431.462C258.796 431.11 258.875 430.761 259.038 430.449C260.926 426.67 263.816 423.486 267.39 421.244C269.156 420.147 271.198 419.581 273.275 419.613C275.942 419.744 279.193 417.759 282.057 414.302C283.541 412.462 285.34 410.9 287.369 409.689C289.133 408.59 291.176 408.024 293.254 408.058C295.907 408.201 299.168 406.204 302.034 402.747C303.518 400.905 305.316 399.343 307.346 398.131C309.11 397.032 311.153 396.466 313.23 396.5C315.909 396.647 319.149 394.646 322.012 391.19C323.497 389.351 325.295 387.788 327.324 386.576C330.323 384.84 333.312 384.468 335.746 385.528C336.239 385.748 336.625 386.153 336.821 386.657C337.017 387.16 337.006 387.721 336.791 388.217C336.576 388.712 336.174 389.103 335.673 389.303C335.173 389.504 334.613 389.498 334.116 389.287C333.314 389.055 332.469 389.01 331.646 389.155C330.824 389.3 330.045 389.632 329.37 390.125C327.763 391.099 326.338 392.346 325.158 393.811C321.421 398.32 316.972 400.803 313.028 400.594C311.739 400.619 310.482 400.995 309.391 401.682C307.784 402.655 306.359 403.901 305.18 405.366C301.441 409.878 296.994 412.351 293.048 412.152C291.757 412.161 290.494 412.538 289.409 413.239C287.803 414.212 286.379 415.458 285.2 416.922C281.46 421.433 277.025 423.894 273.067 423.707C271.778 423.723 270.519 424.099 269.432 424.794C266.527 426.645 264.184 429.257 262.658 432.348C262.485 432.679 262.225 432.956 261.906 433.15C261.587 433.343 261.222 433.446 260.849 433.446Z" fill="#B8DCC2"/>
<path d="M27.2827 257.322C27.2088 258.689 26.8141 260.02 26.1307 261.206C25.4472 262.392 24.4942 263.4 23.349 264.149C21.1756 265.405 19.4141 264.387 19.4141 261.873C19.4881 260.505 19.883 259.175 20.5667 257.989C21.2504 256.803 22.2036 255.795 23.349 255.047C25.5212 253.79 27.2827 254.809 27.2827 257.322Z" fill="#B8DCC2"/>
<path d="M40.0346 249.947C39.9606 251.315 39.5658 252.645 38.8823 253.831C38.1989 255.017 37.246 256.025 36.101 256.773C33.9275 258.029 32.166 257.011 32.166 254.497C32.24 253.13 32.6349 251.799 33.3186 250.613C34.0023 249.427 34.9556 248.419 36.101 247.672C38.2731 246.415 40.0346 247.433 40.0346 249.947Z" fill="#B8DCC2"/>
<path d="M52.7862 242.571C52.7122 243.939 52.3174 245.269 51.6339 246.455C50.9505 247.641 49.9976 248.649 48.8526 249.397C46.6791 250.654 44.9189 249.635 44.9189 247.122C44.9925 245.755 45.3871 244.424 46.0706 243.238C46.754 242.051 47.7072 241.043 48.8526 240.296C51.0247 239.039 52.7862 240.057 52.7862 242.571Z" fill="#B8DCC2"/>
<path d="M65.5382 235.195C65.4645 236.563 65.0698 237.894 64.3863 239.08C63.7028 240.266 62.7498 241.273 61.6046 242.021C59.4324 243.279 57.6709 242.259 57.6709 239.747C57.7448 238.379 58.1395 237.048 58.8229 235.862C59.5064 234.676 60.4594 233.668 61.6046 232.92C63.778 231.663 65.5382 232.681 65.5382 235.195Z" fill="#B8DCC2"/>
<path d="M396.174 359.193C396.102 360.52 395.719 361.811 395.056 362.962C394.392 364.113 393.468 365.091 392.356 365.817C390.248 367.037 388.539 366.049 388.539 363.609C388.611 362.282 388.994 360.991 389.657 359.84C390.321 358.689 391.245 357.711 392.356 356.986C394.464 355.766 396.174 356.755 396.174 359.193Z" fill="#B8DCC2"/>
<path d="M406.704 353.102C406.632 354.429 406.249 355.721 405.586 356.872C404.923 358.023 403.998 359.001 402.887 359.726C400.779 360.946 399.069 359.957 399.069 357.519C399.141 356.192 399.524 354.9 400.187 353.75C400.851 352.599 401.775 351.621 402.887 350.895C404.996 349.675 406.704 350.664 406.704 353.102Z" fill="#B8DCC2"/>
<path d="M396.174 347.012C396.102 348.339 395.719 349.63 395.056 350.781C394.392 351.932 393.468 352.91 392.356 353.635C390.248 354.855 388.539 353.866 388.539 351.428C388.611 350.101 388.994 348.81 389.657 347.659C390.32 346.508 391.245 345.53 392.356 344.804C394.464 343.584 396.174 344.574 396.174 347.012Z" fill="#B8DCC2"/>
<path d="M406.704 340.921C406.632 342.248 406.249 343.539 405.586 344.69C404.923 345.841 403.998 346.819 402.887 347.545C400.779 348.765 399.069 347.775 399.069 345.337C399.141 344.01 399.524 342.719 400.187 341.568C400.851 340.417 401.775 339.439 402.887 338.714C404.996 337.494 406.704 338.483 406.704 340.921Z" fill="#B8DCC2"/>
<path d="M306.371 37.4306L298.504 41.9806V32.8794L306.372 28.3281L306.371 37.4306Z" fill="#B8DCC2"/>
<path d="M317.292 31.0349L309.424 35.5861V26.4849L317.292 21.9363V31.0349Z" fill="#B8DCC2"/>
<path d="M306.439 49.2386L298.57 53.7899V44.6887L306.439 40.1375V49.2386Z" fill="#B8DCC2"/>
<path d="M317.292 42.9619L309.424 47.5131V38.4106L317.292 33.8594V42.9619Z" fill="#B8DCC2"/>
<path d="M113.171 366.696C111.756 367.547 110.494 368.632 109.441 369.906C109.266 362.54 103.99 359.596 97.4936 363.355C95.2991 364.676 93.3551 366.375 91.7514 368.374C88.8587 363.311 82.8666 362.134 75.9278 366.147C66.1617 371.795 58.246 385.536 58.246 396.827C58.2499 397.709 58.3093 398.591 58.4238 399.466C56.7057 399.137 54.9271 399.497 53.4714 400.469C51.0088 402.077 48.9594 404.245 47.4896 406.795C46.0197 409.346 45.1708 412.207 45.0117 415.148C45.0117 420.552 48.8041 422.747 53.4714 420.04L113.171 385.513C115.538 383.966 117.509 381.882 118.922 379.43C120.335 376.978 121.152 374.226 121.305 371.399C121.304 366.203 117.662 364.097 113.171 366.696Z" fill="#B8DCC2"/>
<path d="M315.608 233.372L274.858 209.803C272.356 208.362 272.67 205.83 275.558 204.159L314.91 181.398C316.392 180.571 318.047 180.104 319.742 180.033C321.437 179.963 323.124 180.292 324.669 180.993L365.424 204.563C367.925 206.004 367.611 208.536 364.723 210.207L325.372 232.968C323.889 233.796 322.233 234.263 320.538 234.333C318.842 234.403 317.154 234.074 315.608 233.372Z" fill="#9ACDA8"/>
<path d="M319.871 223.778C317.984 223.819 316.119 223.372 314.456 222.48L273.7 198.907C272.871 198.488 272.17 197.853 271.669 197.07C271.169 196.286 270.887 195.382 270.854 194.453C270.932 193.349 271.302 192.285 271.925 191.371C272.548 190.457 273.403 189.726 274.401 189.252L313.753 166.49C317.391 164.388 322.584 164.209 325.825 166.085L366.58 189.658C367.409 190.077 368.111 190.712 368.611 191.495C369.112 192.279 369.393 193.183 369.426 194.112C369.348 195.216 368.978 196.28 368.355 197.194C367.732 198.107 366.878 198.839 365.88 199.313L326.527 222.075C324.491 223.205 322.199 223.792 319.871 223.778ZM320.457 169.425C318.926 169.409 317.417 169.779 316.067 170.502L276.714 193.265C275.727 193.836 275.489 194.352 275.483 194.444C275.622 194.631 275.804 194.782 276.013 194.885L316.77 218.459C317.962 218.957 319.25 219.178 320.539 219.108C321.827 219.037 323.084 218.676 324.214 218.052L363.565 195.291C364.554 194.72 364.792 194.203 364.798 194.112C364.657 193.925 364.475 193.774 364.266 193.669L323.51 170.098C322.565 169.619 321.515 169.388 320.457 169.425Z" fill="#B8DCC2"/>
<path d="M367.098 179.671V165.58L335.568 165.563L324.669 159.259C323.124 158.557 321.436 158.229 319.741 158.299C318.046 158.369 316.391 158.837 314.909 159.664L304.742 165.546L273.181 165.527V180.016C273.175 180.569 273.33 181.111 273.628 181.577C273.926 182.042 274.353 182.41 274.857 182.636L315.608 206.207C317.153 206.909 318.84 207.238 320.535 207.168C322.23 207.097 323.885 206.63 325.367 205.802L364.718 183.041C366.388 182.078 367.192 180.829 367.098 179.671Z" fill="#51A969"/>
<path d="M276.754 165.53H273.181V180.018C273.175 180.571 273.33 181.114 273.628 181.579C273.926 182.045 274.353 182.413 274.857 182.638L276.754 183.735V165.53Z" fill="#34473E"/>
<path d="M316.239 206.516C318.765 207.431 321.536 207.399 324.04 206.426V189.976H316.239V206.516Z" fill="#6FB883"/>
<path d="M315.608 191.771L274.854 168.2C272.352 166.759 272.666 164.225 275.554 162.555L314.906 139.795C316.388 138.968 318.043 138.5 319.738 138.43C321.432 138.359 323.12 138.687 324.666 139.388L365.42 162.961C367.921 164.402 367.608 166.934 364.719 168.606L325.368 191.366C323.886 192.194 322.231 192.661 320.536 192.732C318.841 192.802 317.153 192.473 315.608 191.771Z" fill="#9ACDA8"/>
<path d="M364.723 165.833L325.372 188.594C323.89 189.422 322.235 189.889 320.54 189.959C318.845 190.03 317.157 189.701 315.612 188.999L274.858 165.426C274.364 165.155 273.937 164.777 273.609 164.318C272.75 165.703 273.14 167.2 274.858 168.199L315.608 191.771C317.153 192.473 318.841 192.802 320.536 192.732C322.231 192.661 323.886 192.194 325.368 191.366L364.719 168.605C366.963 167.308 367.646 165.495 366.669 164.071C366.173 164.808 365.505 165.412 364.723 165.833Z" fill="#B8DCC2"/>
<path d="M352.109 183.385C352.078 183.957 351.913 184.514 351.627 185.01C351.341 185.507 350.942 185.928 350.463 186.241C349.547 186.765 348.816 186.341 348.816 185.29C348.848 184.718 349.013 184.161 349.299 183.664C349.585 183.168 349.984 182.746 350.463 182.433C351.372 181.907 352.109 182.333 352.109 183.385Z" fill="#34473E"/>
<path d="M357.405 180.326C357.374 180.898 357.209 181.455 356.923 181.951C356.637 182.448 356.238 182.869 355.759 183.182C354.843 183.706 354.112 183.282 354.112 182.23C354.144 181.658 354.309 181.101 354.595 180.605C354.881 180.108 355.28 179.687 355.759 179.374C356.67 178.844 357.405 179.27 357.405 180.326Z" fill="#34473E"/>
<path d="M362.702 177.259C362.671 177.831 362.506 178.388 362.22 178.884C361.934 179.381 361.535 179.802 361.056 180.115C360.147 180.639 359.409 180.215 359.409 179.163C359.44 178.591 359.605 178.034 359.892 177.538C360.178 177.041 360.576 176.62 361.056 176.307C361.965 175.781 362.702 176.207 362.702 177.259Z" fill="#34473E"/>
<path d="M318.022 177.157L298.951 166.126C297.781 165.45 297.928 164.267 299.278 163.485L317.694 152.834C318.387 152.447 319.162 152.228 319.955 152.196C320.748 152.163 321.538 152.317 322.26 152.645L341.331 163.675C342.502 164.352 342.355 165.535 341.004 166.316L322.589 176.967C321.895 177.354 321.121 177.573 320.328 177.606C319.535 177.639 318.745 177.485 318.022 177.157Z" fill="#6FB883"/>
<path d="M319.848 167.921L317.21 166.395C317.048 166.302 317.068 166.133 317.255 166.029L319.802 164.556C319.898 164.503 320.006 164.472 320.116 164.468C320.226 164.463 320.335 164.485 320.435 164.53L323.073 166.057C323.235 166.15 323.216 166.319 323.029 166.421L320.48 167.895C320.384 167.948 320.277 167.979 320.167 167.983C320.057 167.988 319.948 167.966 319.848 167.921Z" fill="#34473E"/>
<path d="M298.951 166.126L299.005 166.157C299.094 166.094 299.176 166.026 299.278 165.969L317.694 155.318C318.387 154.931 319.162 154.712 319.955 154.679C320.748 154.646 321.537 154.8 322.261 155.128L341.278 166.132C342.356 165.36 342.413 164.306 341.331 163.68L322.261 152.65C321.538 152.322 320.748 152.168 319.955 152.201C319.162 152.234 318.387 152.452 317.694 152.839L299.278 163.49C297.928 164.267 297.781 165.45 298.951 166.126Z" fill="#51A969"/>
<path d="M426.581 297.274L385.833 273.701C383.331 272.26 383.645 269.728 386.532 268.058L425.884 245.296C427.366 244.469 429.021 244.002 430.716 243.932C432.411 243.861 434.099 244.19 435.644 244.891L476.398 268.464C478.9 269.905 478.586 272.437 475.697 274.108L436.345 296.869C434.862 297.697 433.207 298.164 431.511 298.234C429.816 298.305 428.127 297.976 426.581 297.274Z" fill="#9ACDA8"/>
<path d="M430.842 287.68C428.955 287.722 427.089 287.275 425.424 286.383L384.67 262.81C383.841 262.39 383.139 261.756 382.639 260.972C382.138 260.189 381.856 259.285 381.823 258.355C381.901 257.251 382.271 256.188 382.894 255.274C383.517 254.359 384.372 253.628 385.37 253.153L424.722 230.391C426.553 229.353 428.607 228.774 430.71 228.704C432.812 228.633 434.9 229.073 436.796 229.987L477.551 253.56C478.379 253.98 479.08 254.615 479.58 255.398C480.081 256.182 480.363 257.085 480.396 258.015C480.318 259.119 479.949 260.182 479.326 261.096C478.703 262.01 477.849 262.741 476.851 263.216L437.499 285.977C435.462 287.108 433.17 287.694 430.842 287.68ZM427.739 282.365C428.93 282.863 430.219 283.085 431.508 283.015C432.797 282.945 434.053 282.585 435.184 281.96L474.536 259.194C475.525 258.621 475.762 258.105 475.767 258.007C475.627 257.82 475.445 257.669 475.236 257.565L434.48 233.999C433.289 233.502 432.001 233.279 430.712 233.35C429.423 233.42 428.166 233.781 427.035 234.406L387.683 257.167C386.695 257.737 386.457 258.254 386.451 258.346C386.591 258.533 386.774 258.685 386.984 258.788L427.739 282.365Z" fill="#B8DCC2"/>
<path d="M478.068 243.571V229.483L446.537 229.465L435.639 223.161C434.093 222.46 432.406 222.131 430.711 222.202C429.016 222.273 427.361 222.74 425.879 223.567L415.711 229.448L384.151 229.43V243.919C384.145 244.472 384.3 245.015 384.598 245.48C384.896 245.946 385.323 246.314 385.827 246.539L426.581 270.112C428.126 270.813 429.814 271.141 431.509 271.071C433.203 271 434.858 270.533 436.34 269.706L475.692 246.946C477.358 245.98 478.158 244.732 478.068 243.571Z" fill="#51A969"/>
<path d="M431.11 222.191C429.281 222.218 427.485 222.69 425.879 223.567L415.711 229.448L384.151 229.43V243.919C384.145 244.472 384.3 245.015 384.598 245.48C384.896 245.946 385.323 246.314 385.827 246.539L426.581 270.112C427.978 270.832 429.541 271.166 431.11 271.08V222.191Z" fill="#316740"/>
<path d="M387.723 229.432H384.151V243.922C384.145 244.475 384.3 245.017 384.598 245.483C384.896 245.949 385.323 246.317 385.827 246.542L387.723 247.639V229.432Z" fill="#34473E"/>
<path d="M427.21 270.419C429.736 271.333 432.506 271.301 435.01 270.329V253.879H427.21V270.419Z" fill="#6FB883"/>
<path d="M426.581 255.675L385.833 232.102C383.331 230.661 383.645 228.129 386.532 226.457L425.884 203.697C427.366 202.87 429.021 202.402 430.716 202.332C432.411 202.261 434.099 202.59 435.644 203.292L476.398 226.863C478.9 228.304 478.586 230.838 475.697 232.508L436.34 255.263C434.858 256.091 433.204 256.559 431.509 256.631C429.815 256.702 428.127 256.375 426.581 255.675Z" fill="#9ACDA8"/>
<path d="M475.692 229.736L436.34 252.496C434.858 253.323 433.203 253.791 431.509 253.861C429.814 253.932 428.127 253.603 426.581 252.903L385.833 229.324C385.339 229.051 384.912 228.672 384.584 228.214C383.724 229.599 384.114 231.103 385.833 232.096L426.587 255.668C428.132 256.369 429.819 256.697 431.514 256.627C433.209 256.556 434.863 256.089 436.345 255.262L475.697 232.502C477.941 231.204 478.624 229.39 477.646 227.966C477.149 228.707 476.478 229.315 475.692 229.736Z" fill="#B8DCC2"/>
<path d="M463.079 247.288C463.048 247.86 462.883 248.417 462.596 248.913C462.31 249.41 461.912 249.832 461.433 250.145C460.517 250.669 459.786 250.244 459.786 249.192C459.817 248.62 459.982 248.063 460.268 247.567C460.555 247.071 460.953 246.649 461.433 246.336C462.341 245.81 463.079 246.237 463.079 247.288Z" fill="#34473E"/>
<path d="M468.375 244.225C468.344 244.797 468.179 245.354 467.893 245.85C467.606 246.346 467.208 246.768 466.728 247.081C465.813 247.605 465.082 247.18 465.082 246.129C465.113 245.557 465.278 245 465.564 244.504C465.85 244.007 466.249 243.585 466.728 243.272C467.637 242.747 468.375 243.173 468.375 244.225Z" fill="#34473E"/>
<path d="M473.672 241.162C473.641 241.734 473.476 242.291 473.19 242.787C472.903 243.283 472.505 243.705 472.025 244.018C471.11 244.542 470.379 244.117 470.379 243.065C470.41 242.493 470.575 241.936 470.861 241.44C471.147 240.944 471.546 240.522 472.025 240.209C472.928 239.684 473.672 240.11 473.672 241.162Z" fill="#34473E"/>
<path d="M428.988 241.059L409.916 230.03C408.745 229.352 408.893 228.169 410.244 227.389L428.659 216.738C429.353 216.35 430.127 216.131 430.92 216.098C431.713 216.065 432.503 216.219 433.226 216.548L452.297 227.579C453.474 228.255 453.321 229.438 451.969 230.22L433.554 240.871C432.861 241.258 432.087 241.476 431.293 241.509C430.5 241.542 429.711 241.388 428.988 241.059Z" fill="#6FB883"/>
<path d="M430.819 231.825L428.18 230.298C428.019 230.204 428.039 230.036 428.226 229.933L430.773 228.459C430.869 228.405 430.976 228.375 431.086 228.37C431.196 228.366 431.305 228.387 431.405 228.433L434.044 229.959C434.206 230.052 434.185 230.221 433.998 230.325L431.451 231.798C431.355 231.852 431.248 231.882 431.138 231.886C431.028 231.891 430.919 231.87 430.819 231.825Z" fill="#34473E"/>
<path d="M409.92 230.03L409.975 230.06C410.064 229.997 410.145 229.929 410.248 229.871L428.663 219.22C429.357 218.833 430.131 218.615 430.924 218.582C431.717 218.549 432.507 218.703 433.23 219.032L452.247 230.036C453.326 229.262 453.382 228.209 452.301 227.584L433.23 216.553C432.507 216.224 431.717 216.071 430.924 216.103C430.131 216.136 429.357 216.356 428.663 216.743L410.248 227.394C408.897 228.17 408.749 229.353 409.92 230.03Z" fill="#51A969"/>
<path d="M187.504 308.505L273.721 259.255C276.874 257.432 276.478 254.247 272.837 252.14L223.231 223.449C219.59 221.342 214.077 221.115 210.929 222.938L124.713 272.188C121.56 274.012 121.955 277.197 125.595 279.304L175.203 307.995C178.844 310.101 184.351 310.329 187.504 308.505Z" fill="#9ACDA8"/>
<path d="M182.148 297.511C179.316 297.535 176.524 296.831 174.04 295.467L124.433 266.776C121.783 265.244 120.264 263.044 120.264 260.742C120.307 259.676 120.635 258.641 121.213 257.744C121.791 256.848 122.598 256.123 123.55 255.645L209.777 206.385C213.616 204.167 220.036 204.389 224.383 206.903L273.989 235.594C276.64 237.127 278.159 239.326 278.159 241.62C278.116 242.687 277.788 243.722 277.21 244.619C276.632 245.516 275.825 246.241 274.872 246.719L188.65 295.978C186.649 297.038 184.411 297.565 182.148 297.511ZM216.239 209.494C214.8 209.445 213.371 209.76 212.085 210.411L125.859 259.671C125.262 260.016 124.897 260.42 124.897 260.745C124.897 261.216 125.471 262.021 126.753 262.761L176.359 291.452C179.254 293.126 183.92 293.367 186.347 291.962L186.358 291.955L272.573 242.706C273.17 242.36 273.535 241.957 273.535 241.631C273.535 241.16 272.961 240.356 271.681 239.614L222.073 210.923C220.279 209.964 218.273 209.472 216.239 209.494Z" fill="#B8DCC2"/>
<path d="M122.6 245.176V57.2105L197.19 37.6574L210.929 29.7117C214.082 27.8881 219.591 28.116 223.231 30.2214L236.047 37.6365L275.831 37.6142L264.051 219.062C264.058 219.759 263.862 220.443 263.487 221.03C263.112 221.616 262.573 222.08 261.938 222.365L187.501 278.63C184.348 280.454 178.842 280.226 175.201 278.121L125.593 249.43C123.502 248.211 122.482 246.638 122.6 245.176Z" fill="#34473E"/>
<path d="M216.637 28.4868C218.943 28.5191 221.206 29.1135 223.231 30.2188L236.046 37.6339L275.83 37.6116V226.077C275.838 226.774 275.642 227.458 275.267 228.045C274.892 228.632 274.353 229.096 273.718 229.38L187.501 278.629C185.741 279.538 183.77 279.96 181.793 279.851L180.911 90.2039L216.637 28.4868Z" fill="#34473E"/>
<path d="M186.713 279.018C183.529 280.171 180.036 280.131 176.88 278.905V87.9648H186.713V279.018Z" fill="#6FB883"/>
<path d="M187.504 90.2262L273.721 40.9759C276.874 39.1523 276.478 35.9674 272.837 33.8608L223.231 5.16721C219.59 3.06189 214.077 2.83262 210.929 4.65758L124.713 53.9026C121.56 55.7262 121.955 58.9124 125.595 61.0177L175.203 89.7087C178.844 91.8218 184.351 92.0498 187.504 90.2262Z" fill="#34473E"/>
<path d="M125.594 57.5289L175.202 86.2199C178.842 88.3252 184.349 88.5545 187.502 86.7309L273.721 37.4819C274.342 37.1383 274.878 36.6603 275.29 36.0828C276.373 37.8291 275.883 39.7235 273.721 40.9759L187.504 90.2262C184.351 92.0498 178.844 91.8219 175.203 89.7152L125.594 61.023C122.766 59.3866 121.906 57.1019 123.138 55.307C123.764 56.2367 124.607 56.9993 125.594 57.5289Z" fill="#B8DCC2"/>
<path d="M185.064 70.2656L242.466 36.933C243.941 36.0788 243.757 34.5879 242.053 33.6027L218.835 20.1769C217.962 19.6892 216.986 19.4134 215.987 19.3717C214.987 19.3301 213.992 19.5238 213.081 19.9372L155.682 53.2711C154.206 54.124 154.392 55.6149 156.094 56.6001L179.308 70.0272C180.182 70.5153 181.158 70.7911 182.158 70.8325C183.158 70.874 184.153 70.6798 185.064 70.2656Z" fill="#081F14"/>
<path d="M216.054 38.429L219.38 36.5058C219.584 36.3879 219.558 36.1809 219.323 36.0447L216.111 34.1869C215.99 34.1195 215.855 34.0814 215.717 34.0757C215.578 34.07 215.441 34.0969 215.315 34.1542L211.989 36.0787C211.784 36.1966 211.81 36.4023 212.045 36.5386L215.257 38.3963C215.378 38.464 215.513 38.5023 215.651 38.508C215.79 38.5137 215.928 38.4866 216.054 38.429Z" fill="#34473E"/>
<path d="M204.942 44.8302L208.267 42.907C208.471 42.7891 208.446 42.5821 208.211 42.4459L204.999 40.5882C204.878 40.5208 204.743 40.4828 204.605 40.4771C204.466 40.4714 204.329 40.4982 204.203 40.5554L200.876 42.4799C200.672 42.5978 200.698 42.8035 200.933 42.9398L204.145 44.7975C204.266 44.8652 204.401 44.9035 204.539 44.9092C204.678 44.9149 204.816 44.8878 204.942 44.8302Z" fill="#34473E"/>
<path d="M193.83 51.2313L197.155 49.308C197.359 49.1901 197.333 48.9831 197.098 48.8469L193.886 46.9892C193.765 46.9217 193.63 46.8836 193.492 46.8779C193.353 46.8723 193.216 46.8991 193.089 46.9564L189.764 48.881C189.56 48.9989 189.585 49.2046 189.821 49.3408L193.032 51.1985C193.153 51.2663 193.288 51.3046 193.427 51.3102C193.565 51.3159 193.703 51.2889 193.83 51.2313Z" fill="#34473E"/>
<path d="M182.717 57.6324L186.044 55.7092C186.248 55.5913 186.222 55.3843 185.986 55.248L182.774 53.3903C182.653 53.3229 182.518 53.2848 182.38 53.2791C182.242 53.2734 182.104 53.3003 181.978 53.3576L178.651 55.2821C178.447 55.4 178.473 55.6057 178.709 55.7419L181.92 57.5996C182.041 57.6674 182.176 57.7057 182.315 57.7113C182.453 57.717 182.591 57.69 182.717 57.6324Z" fill="#34473E"/>
<path d="M242.466 36.933L242.398 36.9723C242.287 36.8867 242.172 36.8071 242.053 36.7339L218.835 23.3081C217.961 22.8203 216.986 22.5445 215.987 22.5029C214.987 22.4612 213.992 22.6549 213.081 23.0683L155.75 56.3629C154.39 55.3869 154.312 54.0598 155.682 53.2711L213.081 19.9372C213.992 19.5238 214.987 19.3301 215.987 19.3717C216.986 19.4134 217.961 19.6892 218.835 20.1769L242.053 33.5962C243.757 34.5879 243.944 36.0788 242.466 36.933Z" fill="#6FB883"/>
<path d="M165.517 127.467L132.88 108.747C131.868 108.02 131.039 107.066 130.462 105.96C129.885 104.854 129.574 103.629 129.556 102.381V90.6899C129.556 88.2361 131.044 87.1081 132.88 88.1706L165.517 106.89C166.53 107.617 167.358 108.572 167.935 109.677C168.513 110.783 168.824 112.009 168.843 113.256V124.947C168.843 127.399 167.353 128.529 165.517 127.467Z" fill="#081F14"/>
<path d="M131.265 87.8181C130.968 88.146 130.742 88.5306 130.598 88.9488C130.455 89.367 130.398 89.81 130.43 90.2509V101.944C130.449 103.191 130.76 104.417 131.337 105.522C131.915 106.627 132.743 107.582 133.756 108.308L166.396 127.028C166.875 127.334 167.448 127.459 168.011 127.38C167.669 127.677 167.236 127.847 166.784 127.862C166.332 127.878 165.888 127.739 165.526 127.467L132.889 108.747C131.876 108.02 131.048 107.066 130.471 105.96C129.894 104.854 129.583 103.629 129.565 102.381V90.6898C129.555 89.0234 130.25 87.991 131.265 87.8181Z" fill="#7A8680"/>
<path d="M155.702 114.765L152.707 113.033C152.486 112.875 152.306 112.667 152.18 112.426C152.054 112.185 151.987 111.918 151.982 111.646V108.443C151.982 107.908 152.307 107.657 152.707 107.894L155.702 109.625C155.922 109.783 156.103 109.991 156.228 110.232C156.354 110.473 156.422 110.74 156.426 111.012V114.216C156.426 114.751 156.102 114.997 155.702 114.765Z" fill="#51A969"/>
<path d="M145.691 108.975L142.698 107.243C142.476 107.085 142.296 106.877 142.17 106.637C142.043 106.396 141.976 106.129 141.972 105.857V102.652C141.972 102.118 142.296 101.866 142.698 102.103L145.691 103.835C145.911 103.994 146.092 104.202 146.218 104.443C146.344 104.684 146.411 104.951 146.415 105.223V108.426C146.415 108.96 146.091 109.207 145.691 108.975Z" fill="#7A8680"/>
<path d="M165.517 211.956L132.88 193.236C131.868 192.509 131.04 191.555 130.462 190.45C129.885 189.345 129.574 188.119 129.556 186.872V175.179C129.556 172.725 131.044 171.599 132.88 172.661L165.517 191.381C166.53 192.107 167.358 193.062 167.935 194.167C168.513 195.272 168.824 196.498 168.843 197.745V209.438C168.843 211.89 167.353 213.018 165.517 211.956Z" fill="#081F14"/>
<path d="M131.265 172.309C130.969 172.636 130.742 173.021 130.598 173.439C130.455 173.857 130.398 174.299 130.43 174.74V186.433C130.449 187.68 130.76 188.906 131.337 190.012C131.915 191.117 132.743 192.072 133.756 192.798L166.396 211.518C166.875 211.823 167.448 211.948 168.011 211.871C167.668 212.167 167.235 212.336 166.783 212.352C166.331 212.367 165.888 212.228 165.526 211.956L132.889 193.236C131.877 192.509 131.048 191.555 130.471 190.45C129.894 189.344 129.583 188.119 129.565 186.872V175.179C129.555 173.514 130.25 172.482 131.265 172.309Z" fill="#7A8680"/>
<path d="M155.702 199.255L152.707 197.523C152.486 197.364 152.305 197.156 152.18 196.915C152.054 196.674 151.986 196.407 151.982 196.135V192.932C151.982 192.398 152.307 192.146 152.707 192.383L155.702 194.115C155.922 194.274 156.103 194.482 156.228 194.723C156.354 194.964 156.422 195.231 156.426 195.503V198.706C156.426 199.24 156.102 199.487 155.702 199.255Z" fill="#51A969"/>
<path d="M145.691 193.465L142.698 191.733C142.477 191.575 142.296 191.367 142.17 191.126C142.044 190.885 141.976 190.618 141.972 190.346V187.139C141.972 186.603 142.296 186.353 142.698 186.59L145.691 188.321C145.911 188.479 146.092 188.687 146.218 188.928C146.344 189.169 146.411 189.436 146.415 189.708V192.912C146.415 193.451 146.091 193.689 145.691 193.465Z" fill="#7A8680"/>
<path d="M165.517 254.201L132.88 235.481C131.868 234.754 131.039 233.8 130.462 232.694C129.885 231.589 129.574 230.363 129.556 229.115V217.424C129.556 214.97 131.044 213.844 132.88 214.905L165.517 233.625C166.53 234.351 167.358 235.306 167.935 236.411C168.513 237.517 168.824 238.743 168.843 239.991V251.683C168.843 254.136 167.353 255.264 165.517 254.201Z" fill="#081F14"/>
<path d="M131.265 214.552C130.969 214.88 130.742 215.265 130.599 215.683C130.455 216.101 130.398 216.544 130.431 216.985V228.678C130.449 229.925 130.76 231.151 131.337 232.256C131.915 233.362 132.743 234.316 133.756 235.042L166.396 253.762C166.875 254.069 167.448 254.194 168.011 254.115C167.669 254.411 167.236 254.581 166.784 254.597C166.332 254.613 165.888 254.473 165.526 254.201L132.88 235.481C131.868 234.754 131.039 233.8 130.462 232.694C129.885 231.589 129.574 230.363 129.556 229.115V217.424C129.556 215.758 130.25 214.725 131.265 214.552Z" fill="#7A8680"/>
<path d="M155.702 241.5L152.707 239.768C152.486 239.609 152.306 239.401 152.18 239.16C152.054 238.919 151.987 238.652 151.982 238.38V235.177C151.982 234.643 152.307 234.391 152.707 234.628L155.702 236.36C155.922 236.518 156.103 236.726 156.229 236.967C156.355 237.208 156.422 237.476 156.426 237.748V240.951C156.426 241.485 156.102 241.732 155.702 241.5Z" fill="#51A969"/>
<path d="M145.691 235.709L142.698 233.979C142.477 233.82 142.296 233.612 142.17 233.371C142.044 233.131 141.976 232.863 141.972 232.591V229.387C141.972 228.852 142.296 228.601 142.698 228.838L145.691 230.57C145.911 230.728 146.092 230.936 146.218 231.177C146.344 231.418 146.411 231.685 146.415 231.957V235.16C146.415 235.696 146.091 235.941 145.691 235.709Z" fill="#7A8680"/>
<path d="M165.517 169.714L132.88 150.996C131.868 150.269 131.039 149.315 130.462 148.209C129.885 147.104 129.574 145.878 129.556 144.63V132.938C129.556 130.485 131.044 129.357 132.88 130.42L165.517 149.14C166.529 149.866 167.358 150.82 167.935 151.926C168.513 153.031 168.823 154.257 168.843 155.504V167.197C168.843 169.646 167.353 170.773 165.517 169.714Z" fill="#081F14"/>
<path d="M131.265 130.063C130.968 130.391 130.742 130.776 130.598 131.194C130.455 131.612 130.398 132.055 130.43 132.496V144.187C130.449 145.435 130.76 146.661 131.337 147.767C131.915 148.872 132.743 149.826 133.756 150.553L166.396 169.273C166.875 169.578 167.448 169.703 168.011 169.625C167.668 169.921 167.235 170.091 166.783 170.107C166.331 170.122 165.888 169.982 165.526 169.71L132.889 150.991C131.877 150.264 131.048 149.31 130.471 148.204C129.894 147.099 129.583 145.874 129.565 144.626V132.934C129.555 131.269 130.25 130.236 131.265 130.063Z" fill="#7A8680"/>
<path d="M155.702 157.007L152.707 155.276C152.486 155.117 152.306 154.909 152.18 154.668C152.054 154.428 151.987 154.16 151.982 153.889V150.684C151.982 150.15 152.307 149.898 152.707 150.135L155.702 151.867C155.922 152.026 156.103 152.234 156.228 152.475C156.354 152.715 156.422 152.983 156.426 153.254V156.458C156.426 156.996 156.102 157.241 155.702 157.007Z" fill="#51A969"/>
<path d="M145.691 151.22L142.698 149.488C142.477 149.33 142.296 149.122 142.17 148.881C142.044 148.64 141.976 148.373 141.972 148.101V144.897C141.972 144.363 142.296 144.111 142.698 144.349L145.691 146.08C145.912 146.239 146.092 146.447 146.218 146.688C146.344 146.929 146.412 147.196 146.415 147.468V150.671C146.415 151.206 146.091 151.452 145.691 151.22Z" fill="#7A8680"/>
<path d="M193.785 115.498L269.08 71.9479C270.009 71.2809 270.769 70.405 271.299 69.3904C271.829 68.3759 272.114 67.251 272.131 66.1062V51.7227C272.131 49.472 270.764 48.437 269.08 49.4117L193.785 92.963C192.855 93.6295 192.095 94.5052 191.565 95.5195C191.035 96.5338 190.75 97.6586 190.732 98.8034V113.187C190.732 115.438 192.099 116.473 193.785 115.498Z" fill="#6FB883"/>
<path opacity="0.4" d="M195.951 110.454L266.923 69.405C267.394 69.0667 267.78 68.6224 268.049 68.1077C268.318 67.5931 268.462 67.0224 268.471 66.4415V55.628C268.471 54.4856 267.778 53.9603 266.923 54.449L195.951 95.5059C195.479 95.8441 195.093 96.2884 194.825 96.803C194.556 97.3177 194.411 97.8885 194.402 98.4693V109.282C194.398 110.424 195.092 110.949 195.951 110.454Z" fill="#34473E"/>
<path d="M252.128 72.4928L262.721 66.3668C263.179 66.0378 263.554 65.6057 263.815 65.1051C264.076 64.6044 264.216 64.0494 264.224 63.4846C264.224 62.3762 263.551 61.8666 262.721 62.3461L252.128 68.4721C251.67 68.801 251.295 69.2332 251.033 69.7338C250.772 70.2344 250.632 70.7895 250.624 71.3543C250.624 72.4626 251.297 72.9736 252.128 72.4928Z" fill="#34473E"/>
<path d="M243.102 75.7051C243.102 76.8148 243.878 77.2642 244.837 76.7087C245.343 76.3786 245.763 75.9338 246.065 75.4102C246.367 74.8866 246.541 74.2992 246.574 73.6955C246.574 72.5871 245.789 72.1378 244.837 72.6919C244.331 73.022 243.911 73.4669 243.609 73.9905C243.308 74.514 243.134 75.1015 243.102 75.7051Z" fill="#081F14"/>
<path d="M236.978 79.2477C236.978 80.356 237.754 80.8067 238.713 80.2512C239.219 79.9212 239.639 79.4763 239.941 78.9528C240.243 78.4292 240.417 77.8417 240.45 77.238C240.45 76.1284 239.665 75.679 238.713 76.2345C238.207 76.5646 237.787 77.0095 237.485 77.5331C237.184 78.0567 237.01 78.6441 236.978 79.2477Z" fill="#081F14"/>
<path d="M230.854 82.7902C230.854 83.8985 231.63 84.3479 232.589 83.7937C233.094 83.4636 233.515 83.0187 233.817 82.4951C234.119 81.9716 234.293 81.3841 234.326 80.7805C234.326 79.6708 233.541 79.2215 232.589 79.7756C232.083 80.1061 231.663 80.5513 231.361 81.0751C231.06 81.5988 230.886 82.1864 230.854 82.7902Z" fill="#34473E"/>
<path d="M224.729 86.3313C224.729 87.441 225.506 87.8903 226.465 87.3362C226.97 87.0059 227.391 86.561 227.693 86.0374C227.994 85.5139 228.169 84.9266 228.202 84.323C228.202 83.2133 227.417 82.7639 226.465 83.3181C225.96 83.6483 225.539 84.0933 225.237 84.6168C224.936 85.1404 224.762 85.7278 224.729 86.3313Z" fill="#081F14"/>
<path d="M198.931 104.433L202.498 102.369C202.792 102.159 203.033 101.882 203.201 101.561C203.368 101.24 203.458 100.884 203.464 100.522V96.7425C203.464 96.0311 203.032 95.7036 202.498 96.0115L198.931 98.0749C198.637 98.2858 198.397 98.5628 198.229 98.8836C198.062 99.2044 197.971 99.5601 197.966 99.9221V103.703C197.966 104.414 198.399 104.741 198.931 104.433Z" fill="#081F14"/>
<path d="M193.785 140.861L269.08 97.311C270.009 96.6443 270.769 95.7685 271.299 94.7543C271.828 93.74 272.114 92.6153 272.131 91.4707V77.0911C272.131 74.8404 270.764 73.8054 269.08 74.7801L193.785 118.33C192.855 118.997 192.095 119.872 191.565 120.887C191.035 121.901 190.75 123.026 190.732 124.171V138.554C190.732 140.802 192.099 141.836 193.785 140.861Z" fill="#6FB883"/>
<path opacity="0.4" d="M195.951 135.819L266.923 94.7682C267.394 94.4301 267.78 93.9858 268.049 93.4711C268.318 92.9564 268.462 92.3857 268.471 91.8048V80.9913C268.471 79.8502 267.778 79.3249 266.923 79.8122L195.951 120.869C195.479 121.207 195.093 121.652 194.825 122.166C194.556 122.681 194.411 123.252 194.402 123.833V134.646C194.398 135.783 195.092 136.307 195.951 135.819Z" fill="#34473E"/>
<path d="M252.128 97.8561L262.721 91.7301C263.179 91.4013 263.554 90.9691 263.815 90.4685C264.077 89.9679 264.217 89.4127 264.224 88.8479C264.224 87.7382 263.551 87.2286 262.721 87.7094L252.128 93.8354C251.669 94.1642 251.294 94.5963 251.033 95.097C250.772 95.5976 250.632 96.1527 250.624 96.7176C250.624 97.8272 251.297 98.3369 252.128 97.8561Z" fill="#34473E"/>
<path d="M243.102 101.066C243.102 102.175 243.878 102.625 244.837 102.071C245.342 101.74 245.763 101.296 246.065 100.772C246.367 100.248 246.541 99.661 246.574 99.0573C246.574 97.9477 245.789 97.4983 244.837 98.0525C244.332 98.3827 243.911 98.8276 243.61 99.3512C243.308 99.8747 243.134 100.462 243.102 101.066Z" fill="#EBEDEC"/>
<path d="M236.978 104.611C236.978 105.72 237.754 106.17 238.713 105.616C239.218 105.285 239.639 104.84 239.941 104.317C240.242 103.793 240.417 103.206 240.45 102.602C240.45 101.494 239.665 101.045 238.713 101.599C238.208 101.929 237.787 102.374 237.486 102.897C237.184 103.42 237.01 104.007 236.978 104.611Z" fill="#081F14"/>
<path d="M230.854 108.153C230.854 109.263 231.63 109.712 232.589 109.157C233.094 108.827 233.515 108.382 233.817 107.859C234.119 107.335 234.293 106.747 234.326 106.144C234.326 105.035 233.541 104.585 232.589 105.14C232.083 105.47 231.663 105.915 231.361 106.439C231.06 106.962 230.886 107.55 230.854 108.153Z" fill="#34473E"/>
<path d="M224.729 111.696C224.729 112.804 225.506 113.254 226.465 112.699C226.97 112.369 227.391 111.924 227.693 111.401C227.995 110.877 228.169 110.29 228.202 109.686C228.202 108.577 227.417 108.127 226.465 108.683C225.959 109.013 225.539 109.458 225.237 109.981C224.936 110.505 224.762 111.092 224.729 111.696Z" fill="#081F14"/>
<path d="M198.931 129.796L202.498 127.733C202.792 127.522 203.033 127.246 203.2 126.925C203.368 126.604 203.458 126.249 203.464 125.887V122.105C203.464 121.393 203.032 121.066 202.498 121.374L198.931 123.437C198.637 123.648 198.397 123.925 198.23 124.246C198.062 124.567 197.972 124.922 197.966 125.284V129.066C197.966 129.778 198.399 130.105 198.931 129.796Z" fill="#081F14"/>
<path d="M193.785 166.226L269.08 122.675C270.009 122.008 270.769 121.132 271.299 120.118C271.828 119.104 272.114 117.979 272.131 116.834V102.451C272.131 100.2 270.764 99.165 269.08 100.14L193.785 143.69C192.855 144.356 192.095 145.232 191.565 146.247C191.035 147.261 190.75 148.386 190.732 149.531V163.915C190.732 166.166 192.099 167.201 193.785 166.226Z" fill="#6FB883"/>
<path opacity="0.4" d="M195.951 161.182L266.923 120.132C267.394 119.794 267.78 119.349 268.049 118.835C268.318 118.32 268.462 117.749 268.471 117.168V106.356C268.471 105.214 267.778 104.688 266.923 105.177L195.951 146.233C195.479 146.571 195.094 147.015 194.825 147.53C194.556 148.044 194.411 148.615 194.402 149.196V160.01C194.398 161.152 195.092 161.677 195.951 161.182Z" fill="#34473E"/>
<path d="M252.128 123.221L262.721 117.095C263.179 116.766 263.554 116.334 263.815 115.833C264.076 115.333 264.216 114.777 264.224 114.213C264.224 113.104 263.551 112.593 262.721 113.074L252.128 119.2C251.67 119.529 251.295 119.961 251.033 120.462C250.772 120.963 250.632 121.518 250.624 122.082C250.624 123.191 251.297 123.7 252.128 123.221Z" fill="#34473E"/>
<path d="M243.102 126.433C243.102 127.542 243.878 127.991 244.837 127.437C245.343 127.107 245.763 126.662 246.065 126.138C246.367 125.615 246.541 125.027 246.574 124.424C246.574 123.314 245.789 122.865 244.837 123.42C244.331 123.75 243.911 124.195 243.609 124.719C243.308 125.242 243.134 125.83 243.102 126.433Z" fill="#97A19C"/>
<path d="M236.978 129.976C236.978 131.084 237.754 131.533 238.713 130.979C239.218 130.649 239.639 130.204 239.941 129.681C240.243 129.157 240.417 128.57 240.45 127.966C240.45 126.856 239.665 126.407 238.713 126.961C238.208 127.292 237.787 127.737 237.486 128.261C237.184 128.784 237.01 129.372 236.978 129.976Z" fill="#081F14"/>
<path d="M230.854 133.517C230.854 134.626 231.63 135.076 232.589 134.522C233.094 134.191 233.515 133.746 233.817 133.223C234.118 132.699 234.293 132.112 234.326 131.508C234.326 130.4 233.541 129.951 232.589 130.505C232.084 130.835 231.663 131.28 231.362 131.803C231.06 132.326 230.886 132.913 230.854 133.517Z" fill="#34473E"/>
<path d="M224.729 137.059C224.729 138.169 225.506 138.618 226.465 138.063C226.971 137.733 227.391 137.288 227.693 136.765C227.995 136.241 228.169 135.653 228.202 135.05C228.202 133.941 227.417 133.491 226.465 134.046C225.96 134.376 225.539 134.821 225.237 135.345C224.936 135.868 224.762 136.456 224.729 137.059Z" fill="#081F14"/>
<path d="M198.931 155.161L202.498 153.096C202.792 152.886 203.033 152.609 203.2 152.288C203.368 151.968 203.458 151.612 203.464 151.25V147.468C203.464 146.757 203.032 146.429 202.498 146.738L198.931 148.802C198.637 149.012 198.397 149.289 198.229 149.61C198.062 149.93 197.971 150.286 197.966 150.648V154.43C197.966 155.141 198.399 155.469 198.931 155.161Z" fill="#081F14"/>
<path d="M193.785 191.593L269.08 148.043C270.009 147.376 270.769 146.5 271.299 145.486C271.829 144.471 272.114 143.346 272.131 142.201V127.814C272.131 125.563 270.764 124.528 269.08 125.503L193.785 169.06C192.855 169.726 192.095 170.602 191.565 171.616C191.035 172.63 190.75 173.755 190.732 174.9V189.283C190.732 191.529 192.099 192.564 193.785 191.593Z" fill="#6FB883"/>
<path opacity="0.4" d="M195.951 186.545L266.923 145.496C267.394 145.158 267.78 144.714 268.049 144.199C268.318 143.684 268.462 143.114 268.471 142.533V131.722C268.471 130.58 267.778 130.056 266.923 130.543L195.951 171.597C195.479 171.935 195.093 172.38 194.825 172.894C194.556 173.409 194.411 173.98 194.402 174.561V185.373C194.398 186.515 195.092 187.041 195.951 186.545Z" fill="#34473E"/>
<path d="M252.128 148.584L262.721 142.458C263.179 142.129 263.554 141.697 263.815 141.197C264.076 140.696 264.216 140.141 264.224 139.576C264.224 138.468 263.551 137.958 262.721 138.438L252.128 144.565C251.669 144.894 251.294 145.326 251.033 145.826C250.772 146.327 250.632 146.882 250.624 147.447C250.624 148.555 251.297 149.065 252.128 148.584Z" fill="#34473E"/>
<path d="M243.102 151.797C243.102 152.906 243.878 153.356 244.837 152.801C245.342 152.471 245.763 152.026 246.065 151.503C246.366 150.979 246.541 150.392 246.574 149.788C246.574 148.68 245.789 148.231 244.837 148.785C244.332 149.115 243.911 149.559 243.61 150.083C243.308 150.606 243.134 151.193 243.102 151.797Z" fill="#081F14"/>
<path d="M236.978 155.339C236.978 156.447 237.754 156.898 238.713 156.343C239.219 156.012 239.639 155.568 239.941 155.044C240.243 154.521 240.417 153.933 240.45 153.329C240.45 152.221 239.665 151.77 238.713 152.326C238.207 152.656 237.787 153.101 237.485 153.624C237.184 154.148 237.01 154.735 236.978 155.339Z" fill="#081F14"/>
<path d="M230.854 158.881C230.854 159.99 231.63 160.439 232.589 159.885C233.094 159.555 233.515 159.11 233.817 158.586C234.119 158.063 234.293 157.475 234.326 156.872C234.326 155.762 233.541 155.313 232.589 155.867C232.083 156.197 231.663 156.643 231.361 157.166C231.06 157.69 230.886 158.278 230.854 158.881Z" fill="#34473E"/>
<path d="M224.729 162.423C224.729 163.532 225.506 163.982 226.465 163.427C226.97 163.097 227.391 162.652 227.693 162.129C227.995 161.605 228.169 161.018 228.202 160.414C228.202 159.305 227.417 158.855 226.465 159.409C225.96 159.74 225.539 160.185 225.238 160.708C224.936 161.232 224.762 161.819 224.729 162.423Z" fill="#081F14"/>
<path d="M198.931 180.524L202.498 178.461C202.792 178.25 203.033 177.973 203.201 177.652C203.368 177.331 203.458 176.976 203.464 176.614V172.833C203.464 172.121 203.032 171.794 202.498 172.102L198.931 174.165C198.637 174.376 198.397 174.653 198.229 174.974C198.062 175.295 197.971 175.65 197.966 176.012V179.793C197.966 180.506 198.399 180.832 198.931 180.524Z" fill="#34473E"/>
<path d="M193.785 216.952L269.08 173.402C270.009 172.736 270.769 171.86 271.299 170.846C271.828 169.831 272.114 168.707 272.131 167.562V153.179C272.131 150.928 270.764 149.893 269.08 150.868L193.785 194.418C192.855 195.084 192.095 195.96 191.565 196.974C191.035 197.988 190.75 199.113 190.732 200.258V214.641C190.732 216.892 192.099 217.926 193.785 216.952Z" fill="#6FB883"/>
<path opacity="0.4" d="M195.951 211.91L266.923 170.86C267.394 170.521 267.78 170.077 268.049 169.562C268.318 169.048 268.462 168.477 268.471 167.896V157.083C268.471 155.942 267.778 155.416 266.923 155.904L195.951 196.964C195.479 197.303 195.093 197.747 194.825 198.262C194.556 198.776 194.411 199.347 194.402 199.928V210.741C194.398 211.88 195.092 212.404 195.951 211.91Z" fill="#34473E"/>
<path d="M252.128 173.947L262.721 167.821C263.179 167.493 263.554 167.06 263.815 166.56C264.077 166.059 264.217 165.504 264.224 164.939C264.224 163.83 263.551 163.32 262.721 163.801L252.128 169.927C251.669 170.256 251.294 170.688 251.033 171.188C250.772 171.689 250.632 172.244 250.624 172.809C250.624 173.919 251.297 174.431 252.128 173.947Z" fill="#34473E"/>
<path d="M243.102 177.161C243.102 178.269 243.878 178.719 244.837 178.165C245.342 177.834 245.763 177.39 246.065 176.866C246.367 176.342 246.541 175.755 246.574 175.151C246.574 174.042 245.789 173.592 244.837 174.146C244.332 174.477 243.911 174.922 243.609 175.446C243.308 175.97 243.134 176.557 243.102 177.161Z" fill="#081F14"/>
<path d="M236.978 180.702C236.978 181.812 237.754 182.261 238.713 181.707C239.218 181.377 239.639 180.932 239.941 180.408C240.242 179.885 240.417 179.297 240.45 178.694C240.45 177.585 239.665 177.136 238.713 177.69C238.208 178.02 237.787 178.465 237.486 178.988C237.184 179.512 237.01 180.099 236.978 180.702Z" fill="#EBEDEC"/>
<path d="M230.854 184.245C230.854 185.354 231.63 185.804 232.589 185.248C233.094 184.918 233.515 184.473 233.817 183.95C234.119 183.426 234.293 182.839 234.326 182.235C234.326 181.127 233.541 180.677 232.589 181.231C232.083 181.562 231.663 182.007 231.361 182.53C231.06 183.054 230.886 183.641 230.854 184.245Z" fill="#34473E"/>
<path d="M224.729 187.794C224.729 188.902 225.506 189.352 226.465 188.797C226.97 188.467 227.391 188.022 227.693 187.499C227.995 186.975 228.169 186.388 228.202 185.784C228.202 184.675 227.417 184.225 226.465 184.781C225.959 185.111 225.539 185.556 225.237 186.079C224.936 186.603 224.762 187.19 224.729 187.794Z" fill="#EBEDEC"/>
<path d="M198.931 205.887L202.498 203.824C202.792 203.614 203.033 203.337 203.2 203.016C203.368 202.696 203.458 202.34 203.464 201.978V198.196C203.464 197.485 203.032 197.157 202.498 197.465L198.931 199.53C198.637 199.74 198.397 200.017 198.229 200.338C198.062 200.658 197.971 201.014 197.966 201.375V205.158C197.966 205.873 198.399 206.197 198.931 205.887Z" fill="#34473E"/>
<path d="M193.785 242.317L269.08 198.767C270.009 198.1 270.768 197.224 271.298 196.21C271.828 195.195 272.113 194.07 272.131 192.926V178.542C272.131 176.291 270.764 175.256 269.08 176.231L193.785 219.781C192.855 220.448 192.095 221.324 191.565 222.338C191.035 223.353 190.75 224.478 190.732 225.623V240.006C190.732 242.257 192.099 243.292 193.785 242.317Z" fill="#6FB883"/>
<path opacity="0.4" d="M195.951 237.273L266.923 196.224C267.394 195.886 267.779 195.442 268.048 194.927C268.317 194.412 268.462 193.842 268.471 193.261V182.447C268.471 181.305 267.778 180.78 266.923 181.268L195.951 222.324C195.479 222.662 195.094 223.106 194.825 223.621C194.556 224.136 194.411 224.706 194.402 225.287V236.101C194.398 237.243 195.092 237.769 195.951 237.273Z" fill="#34473E"/>
<path d="M252.128 199.312L262.721 193.186C263.179 192.857 263.554 192.425 263.815 191.924C264.076 191.424 264.216 190.869 264.224 190.304C264.224 189.196 263.551 188.685 262.721 189.166L252.128 195.291C251.67 195.62 251.295 196.053 251.033 196.553C250.772 197.054 250.632 197.609 250.624 198.174C250.624 199.282 251.297 199.792 252.128 199.312Z" fill="#34473E"/>
<path d="M243.102 202.525C243.102 203.633 243.878 204.084 244.837 203.528C245.343 203.198 245.763 202.753 246.065 202.23C246.367 201.706 246.541 201.119 246.574 200.515C246.574 199.407 245.789 198.956 244.837 199.511C244.331 199.841 243.911 200.286 243.609 200.81C243.308 201.333 243.134 201.921 243.102 202.525Z" fill="#081F14"/>
<path d="M236.978 206.067C236.978 207.175 237.754 207.625 238.713 207.071C239.218 206.74 239.639 206.296 239.941 205.772C240.243 205.248 240.417 204.661 240.45 204.057C240.45 202.948 239.665 202.498 238.713 203.052C238.208 203.383 237.787 203.828 237.486 204.352C237.184 204.876 237.01 205.463 236.978 206.067Z" fill="#081F14"/>
<path d="M230.854 209.608C230.854 210.718 231.63 211.167 232.589 210.613C233.094 210.283 233.515 209.838 233.817 209.314C234.118 208.791 234.293 208.203 234.326 207.6C234.326 206.49 233.541 206.041 232.589 206.595C232.083 206.925 231.663 207.37 231.361 207.894C231.06 208.417 230.886 209.005 230.854 209.608Z" fill="#34473E"/>
<path d="M224.729 213.151C224.729 214.26 225.506 214.71 226.465 214.155C226.97 213.825 227.391 213.38 227.693 212.857C227.994 212.333 228.169 211.746 228.202 211.142C228.202 210.034 227.417 209.585 226.465 210.139C225.96 210.469 225.539 210.914 225.238 211.437C224.936 211.96 224.762 212.547 224.729 213.151Z" fill="#081F14"/>
<path d="M198.931 231.252L202.498 229.189C202.792 228.978 203.033 228.701 203.2 228.38C203.368 228.059 203.458 227.704 203.464 227.342V223.559C203.464 222.848 203.032 222.522 202.498 222.83L198.931 224.893C198.637 225.104 198.397 225.38 198.229 225.701C198.062 226.022 197.971 226.377 197.966 226.739V230.521C197.966 231.232 198.399 231.56 198.931 231.252Z" fill="#081F14"/>
<path d="M193.785 267.681L269.08 224.131C270.009 223.464 270.769 222.588 271.299 221.573C271.829 220.559 272.114 219.434 272.131 218.289V203.908C272.131 201.656 270.764 200.621 269.08 201.597L193.785 245.147C192.855 245.814 192.095 246.689 191.565 247.704C191.035 248.718 190.75 249.843 190.732 250.987V265.371C190.732 267.62 192.099 268.655 193.785 267.681Z" fill="#6FB883"/>
<path opacity="0.4" d="M195.951 262.637L266.919 221.594C267.39 221.256 267.776 220.812 268.045 220.297C268.314 219.782 268.458 219.212 268.467 218.631V207.817C268.467 206.675 267.774 206.151 266.919 206.638L195.951 247.689C195.479 248.027 195.093 248.471 194.825 248.986C194.556 249.501 194.411 250.071 194.402 250.652V261.464C194.398 262.607 195.092 263.132 195.951 262.637Z" fill="#34473E"/>
<path d="M252.128 224.676L262.721 218.55C263.179 218.221 263.554 217.789 263.815 217.288C264.076 216.787 264.216 216.232 264.224 215.667C264.224 214.559 263.551 214.049 262.721 214.529L252.128 220.655C251.67 220.984 251.295 221.416 251.034 221.917C250.772 222.417 250.632 222.972 250.624 223.537C250.624 224.647 251.297 225.156 252.128 224.676Z" fill="#34473E"/>
<path d="M241.166 229.261C241.166 231.357 242.633 232.205 244.445 231.158C245.399 230.535 246.194 229.695 246.763 228.706C247.333 227.717 247.663 226.608 247.724 225.468C247.724 223.372 246.256 222.525 244.445 223.571C243.49 224.195 242.696 225.035 242.126 226.023C241.557 227.012 241.228 228.121 241.166 229.261Z" fill="#97A19C"/>
<path d="M228.481 236.697C228.481 237.805 229.258 238.256 230.217 237.7C230.722 237.37 231.143 236.926 231.445 236.402C231.747 235.878 231.921 235.291 231.953 234.687C231.953 233.579 231.169 233.128 230.217 233.684C229.711 234.014 229.291 234.459 228.989 234.982C228.688 235.506 228.514 236.093 228.481 236.697Z" fill="#081F14"/>
<path d="M222.357 240.239C222.357 241.348 223.134 241.797 224.093 241.243C224.598 240.913 225.019 240.468 225.321 239.944C225.623 239.421 225.797 238.833 225.829 238.23C225.829 237.12 225.045 236.671 224.093 237.225C223.587 237.555 223.167 238.001 222.865 238.524C222.564 239.048 222.39 239.636 222.357 240.239Z" fill="#34473E"/>
<path d="M216.233 243.781C216.233 244.89 217.01 245.34 217.969 244.785C218.474 244.455 218.895 244.01 219.197 243.487C219.499 242.963 219.673 242.376 219.705 241.772C219.705 240.663 218.921 240.213 217.969 240.767C217.464 241.098 217.043 241.543 216.742 242.066C216.44 242.59 216.266 243.177 216.233 243.781Z" fill="#081F14"/>
<path d="M198.931 256.616L202.498 254.552C202.792 254.342 203.033 254.065 203.201 253.744C203.368 253.423 203.458 253.067 203.464 252.705V248.924C203.464 248.213 203.032 247.885 202.498 248.193L198.931 250.257C198.637 250.468 198.397 250.745 198.23 251.065C198.062 251.386 197.972 251.742 197.966 252.104V255.885C197.966 256.597 198.399 256.924 198.931 256.616Z" fill="#34473E"/>
<path d="M187.504 86.8002L273.721 37.5499C276.874 35.7263 276.478 32.5401 272.837 30.4348L223.231 1.74384C219.59 -0.361477 214.077 -0.590747 210.929 1.2329L124.713 50.4818C121.56 52.3055 121.955 55.4916 125.595 57.5969L175.203 86.2879C178.844 88.3946 184.351 88.6199 187.504 86.8002Z" fill="#9ACDA8"/>
<path d="M224.095 31.2667C223.402 30.9147 222.636 30.7312 221.858 30.7312C221.081 30.7312 220.315 30.9147 219.622 31.2667L177.392 55.7537C177.122 55.8452 176.887 56.0191 176.721 56.2511C176.555 56.483 176.466 56.7613 176.466 57.0467C176.466 57.3321 176.555 57.6104 176.721 57.8423C176.887 58.0743 177.122 58.2483 177.392 58.3398C178.084 58.6924 178.85 58.8763 179.627 58.8763C180.404 58.8763 181.17 58.6924 181.863 58.3398L224.095 33.8581C224.366 33.7678 224.603 33.594 224.77 33.3614C224.938 33.1288 225.028 32.8493 225.028 32.5624C225.028 32.2756 224.938 31.996 224.77 31.7634C224.603 31.5308 224.366 31.3571 224.095 31.2667Z" fill="#081F14"/>
<path d="M294.663 370.258L380.881 321.008C384.034 319.184 383.638 315.998 379.997 313.893L330.391 285.202C326.75 283.095 321.237 282.867 318.089 284.691L231.871 333.941C228.718 335.764 229.115 338.949 232.755 341.056L282.362 369.747C286.002 371.852 291.511 372.082 294.663 370.258Z" fill="#9ACDA8"/>
<path d="M289.309 359.262C286.477 359.286 283.685 358.582 281.201 357.218L231.594 328.528C228.944 326.995 227.425 324.795 227.425 322.493C227.467 321.426 227.795 320.39 228.373 319.493C228.951 318.596 229.758 317.871 230.711 317.393L316.938 268.134C320.779 265.916 327.198 266.138 331.543 268.658L381.15 297.349C383.799 298.881 385.319 301.08 385.319 303.382C385.277 304.448 384.949 305.484 384.371 306.381C383.793 307.278 382.986 308.003 382.033 308.481L295.81 357.74C293.809 358.796 291.57 359.32 289.309 359.262ZM323.399 271.246C321.96 271.196 320.531 271.512 319.246 272.163L233.018 321.423C232.42 321.769 232.058 322.172 232.058 322.498C232.058 322.967 232.631 323.774 233.912 324.515L283.519 353.206C286.414 354.88 291.083 355.121 293.506 353.718L293.516 353.711L379.734 304.461C380.331 304.115 380.694 303.712 380.694 303.386C380.694 302.917 380.121 302.111 378.839 301.369L329.232 272.678C327.438 271.718 325.433 271.226 323.399 271.246Z" fill="#B8DCC2"/>
<path d="M229.759 306.925V118.962L304.35 99.4032L318.089 91.4575C321.242 89.6338 326.75 89.8618 330.39 91.9684L343.206 99.3822L382.99 99.3599L371.209 280.808C371.217 281.504 371.021 282.188 370.646 282.775C370.27 283.361 369.732 283.825 369.097 284.109L294.661 340.375C291.508 342.2 286 341.97 282.359 339.865L232.753 311.174C230.655 309.964 229.641 308.389 229.759 306.925Z" fill="#34473E"/>
<path d="M323.795 90.2351C326.101 90.2677 328.365 90.8626 330.39 91.9684L343.206 99.3822L382.99 99.3599V287.828C382.997 288.525 382.801 289.209 382.426 289.796C382.051 290.382 381.513 290.847 380.878 291.131L294.663 340.38C292.903 341.289 290.932 341.711 288.955 341.602L288.065 151.956L323.795 90.2351Z" fill="#34473E"/>
<path d="M293.872 340.769C290.688 341.922 287.195 341.882 284.038 340.656V149.715H293.872V340.769Z" fill="#6FB883"/>
<path d="M294.663 151.977L380.881 102.728C384.034 100.903 383.638 97.7184 379.997 95.6131L330.385 66.9208C326.745 64.8142 321.231 64.5862 318.084 66.4099L231.871 115.66C228.718 117.484 229.115 120.669 232.755 122.775L282.362 151.466C286.002 153.573 291.511 153.801 294.663 151.977Z" fill="#9ACDA8"/>
<path d="M232.756 119.276L282.362 147.967C286.003 150.072 291.516 150.302 294.664 148.478L380.881 99.2316C381.502 98.889 382.038 98.4113 382.45 97.8337C383.535 99.5788 383.043 101.474 380.881 102.727L294.664 151.976C291.511 153.801 286.003 153.572 282.362 151.466L232.756 122.775C229.926 121.139 229.067 118.853 230.298 117.058C230.926 117.986 231.769 118.747 232.756 119.276Z" fill="#B8DCC2"/>
<path d="M292.224 132.018L349.626 98.684C351.101 97.8298 350.917 96.3402 349.213 95.3537L325.999 81.9279C325.125 81.4405 324.15 81.1648 323.15 81.1232C322.151 81.0816 321.156 81.2751 320.245 81.6882L262.841 115.022C261.366 115.875 261.55 117.366 263.254 118.352L286.468 131.778C287.342 132.266 288.318 132.542 289.317 132.584C290.317 132.625 291.313 132.431 292.224 132.018Z" fill="#142A20"/>
<path d="M323.214 100.181L326.54 98.2569C326.744 98.139 326.719 97.932 326.483 97.7971L323.272 95.9394C323.151 95.8714 323.016 95.8329 322.877 95.827C322.739 95.8211 322.601 95.8479 322.475 95.9053L319.148 97.8298C318.944 97.9477 318.97 98.1534 319.206 98.2897L322.418 100.147C322.538 100.215 322.673 100.253 322.812 100.259C322.95 100.265 323.088 100.238 323.214 100.181Z" fill="#506058"/>
<path d="M312.102 106.583L315.428 104.658C315.632 104.54 315.607 104.335 315.37 104.197L312.158 102.341C312.038 102.273 311.903 102.234 311.764 102.228C311.626 102.222 311.488 102.249 311.362 102.307L308.036 104.231C307.832 104.349 307.857 104.555 308.094 104.691L311.306 106.549C311.427 106.616 311.562 106.654 311.7 106.66C311.838 106.666 311.976 106.64 312.102 106.583Z" fill="#506058"/>
<path d="M300.989 112.987L304.316 111.063C304.52 110.945 304.494 110.739 304.259 110.602L301.047 108.744C300.926 108.677 300.791 108.639 300.653 108.633C300.514 108.627 300.377 108.654 300.251 108.711L296.924 110.636C296.72 110.754 296.746 110.959 296.981 111.096L300.193 112.953C300.314 113.021 300.449 113.059 300.587 113.065C300.725 113.071 300.863 113.044 300.989 112.987Z" fill="#506058"/>
<path d="M289.877 119.385L293.203 117.46C293.407 117.342 293.382 117.137 293.146 116.999L289.935 115.143C289.814 115.075 289.679 115.036 289.54 115.03C289.402 115.024 289.264 115.051 289.138 115.109L285.811 117.033C285.607 117.151 285.633 117.357 285.869 117.493L289.081 119.351C289.202 119.418 289.337 119.456 289.475 119.462C289.613 119.468 289.751 119.442 289.877 119.385Z" fill="#506058"/>
<path d="M349.626 98.684L349.558 98.7233C349.445 98.6434 349.342 98.5595 349.213 98.4849L325.999 85.059C325.125 84.5716 324.15 84.296 323.151 84.2543C322.151 84.2127 321.156 84.4062 320.245 84.8193L262.906 118.114C261.546 117.139 261.476 115.811 262.838 115.022L320.24 81.6882C321.151 81.2751 322.146 81.0816 323.145 81.1232C324.145 81.1648 325.12 81.4405 325.994 81.9279L349.217 95.3537C350.917 96.3402 351.101 97.8298 349.626 98.684Z" fill="#6FB883"/>
<path d="M272.677 189.218L240.039 170.5C239.027 169.774 238.199 168.819 237.621 167.714C237.043 166.608 236.733 165.382 236.714 164.135V152.443C236.714 149.99 238.203 148.863 240.039 149.924L272.677 168.644C273.689 169.371 274.517 170.325 275.094 171.431C275.672 172.536 275.982 173.762 276.001 175.01V186.702C276.001 189.152 274.513 190.283 272.677 189.218Z" fill="#081F14"/>
<path d="M238.424 149.569C238.128 149.897 237.901 150.281 237.758 150.7C237.614 151.118 237.557 151.561 237.59 152.002V163.694C237.609 164.942 237.919 166.167 238.497 167.273C239.074 168.378 239.902 169.332 240.914 170.059L273.551 188.779C274.031 189.085 274.603 189.21 275.166 189.131C274.824 189.428 274.391 189.598 273.939 189.613C273.487 189.629 273.044 189.49 272.682 189.218L240.039 170.5C239.027 169.774 238.199 168.819 237.621 167.714C237.043 166.608 236.733 165.382 236.714 164.135V152.443C236.714 150.774 237.406 149.742 238.424 149.569Z" fill="#7A8680"/>
<path d="M262.859 176.516L259.866 174.784C259.645 174.626 259.465 174.418 259.339 174.177C259.213 173.936 259.146 173.669 259.142 173.397V170.194C259.142 169.659 259.466 169.408 259.866 169.645L262.859 171.377C263.081 171.535 263.262 171.743 263.388 171.984C263.514 172.225 263.582 172.492 263.585 172.764V175.967C263.585 176.502 263.261 176.748 262.859 176.516Z" fill="#51A969"/>
<path d="M252.85 170.726L249.855 168.995C249.635 168.837 249.454 168.629 249.329 168.388C249.203 168.147 249.135 167.88 249.131 167.608V164.403C249.131 163.869 249.455 163.617 249.855 163.854L252.85 165.586C253.071 165.745 253.251 165.953 253.377 166.194C253.503 166.435 253.57 166.702 253.575 166.974V170.177C253.575 170.713 253.25 170.958 252.85 170.726Z" fill="#7A8680"/>
<path d="M272.677 273.707L240.039 254.988C239.027 254.261 238.199 253.307 237.621 252.201C237.044 251.096 236.733 249.87 236.714 248.623V236.93C236.714 234.478 238.203 233.35 240.039 234.412L272.677 253.132C273.689 253.859 274.517 254.813 275.094 255.918C275.671 257.023 275.982 258.249 276.001 259.496V271.189C276.001 273.643 274.513 274.769 272.677 273.707Z" fill="#081F14"/>
<path d="M238.424 234.06C238.128 234.387 237.901 234.772 237.757 235.19C237.614 235.608 237.557 236.051 237.59 236.492V248.189C237.608 249.436 237.919 250.662 238.496 251.768C239.074 252.873 239.902 253.828 240.914 254.555L273.551 273.275C274.031 273.58 274.603 273.705 275.166 273.627C274.824 273.923 274.391 274.092 273.939 274.108C273.487 274.123 273.043 273.984 272.681 273.712L240.044 254.992C239.032 254.266 238.204 253.312 237.626 252.206C237.048 251.101 236.738 249.875 236.719 248.628V236.935C236.714 235.265 237.405 234.233 238.424 234.06Z" fill="#7A8680"/>
<path d="M262.859 261.006L259.866 259.275C259.645 259.117 259.465 258.908 259.339 258.668C259.213 258.427 259.146 258.159 259.142 257.888V254.683C259.142 254.149 259.466 253.897 259.866 254.134L262.859 255.866C263.08 256.024 263.261 256.232 263.387 256.473C263.513 256.714 263.581 256.981 263.585 257.254V260.457C263.585 260.991 263.261 261.238 262.859 261.006Z" fill="#51A969"/>
<path d="M252.85 255.216L249.855 253.484C249.635 253.326 249.454 253.118 249.329 252.877C249.203 252.636 249.135 252.369 249.131 252.097V248.894C249.131 248.359 249.455 248.108 249.855 248.345L252.85 250.075C253.071 250.234 253.251 250.442 253.377 250.684C253.503 250.925 253.571 251.192 253.575 251.464V254.667C253.575 255.202 253.25 255.447 252.85 255.216Z" fill="#7A8680"/>
<path d="M272.677 315.952L240.039 297.232C239.027 296.505 238.199 295.551 237.621 294.445C237.043 293.34 236.733 292.114 236.714 290.866V279.175C236.714 276.721 238.203 275.595 240.039 276.657L272.677 295.376C273.689 296.102 274.517 297.057 275.094 298.163C275.672 299.268 275.982 300.494 276.001 301.741V313.431C276.001 315.887 274.513 317.015 272.677 315.952Z" fill="#081F14"/>
<path d="M238.424 276.303C238.128 276.631 237.901 277.016 237.757 277.434C237.614 277.852 237.557 278.295 237.59 278.736V290.429C237.609 291.676 237.919 292.902 238.496 294.007C239.074 295.113 239.902 296.067 240.914 296.794L273.551 315.513C274.03 315.819 274.603 315.944 275.166 315.865C274.824 316.162 274.391 316.332 273.939 316.348C273.487 316.363 273.043 316.224 272.681 315.952L240.044 297.232C239.032 296.505 238.204 295.551 237.626 294.445C237.048 293.34 236.738 292.114 236.719 290.866V279.175C236.714 277.509 237.405 276.476 238.424 276.303Z" fill="#7A8680"/>
<path d="M262.859 303.251L259.866 301.519C259.645 301.36 259.465 301.152 259.339 300.911C259.213 300.67 259.146 300.403 259.142 300.131V296.924C259.142 296.39 259.466 296.138 259.866 296.375L262.859 298.107C263.081 298.265 263.261 298.473 263.387 298.714C263.514 298.955 263.581 299.223 263.585 299.495V302.698C263.585 303.236 263.261 303.483 262.859 303.251Z" fill="#51A969"/>
<path d="M252.85 297.46L249.855 295.73C249.635 295.571 249.454 295.363 249.329 295.122C249.203 294.881 249.135 294.614 249.131 294.342V291.138C249.131 290.603 249.455 290.352 249.855 290.589L252.85 292.321C253.071 292.479 253.251 292.687 253.377 292.928C253.503 293.169 253.57 293.436 253.575 293.708V296.913C253.575 297.448 253.25 297.692 252.85 297.46Z" fill="#7A8680"/>
<path d="M272.677 231.463L240.039 212.743C239.027 212.016 238.199 211.062 237.621 209.956C237.043 208.851 236.733 207.625 236.714 206.377V194.685C236.714 192.232 238.203 191.104 240.039 192.167L272.677 210.887C273.689 211.613 274.517 212.568 275.094 213.673C275.672 214.779 275.982 216.005 276.001 217.252V228.944C276.001 231.397 274.513 232.524 272.677 231.463Z" fill="#081F14"/>
<path d="M238.424 191.814C238.128 192.142 237.901 192.527 237.757 192.945C237.614 193.363 237.557 193.806 237.59 194.247V205.94C237.609 207.187 237.919 208.412 238.496 209.518C239.074 210.623 239.902 211.577 240.914 212.304L273.551 231.027C274.031 231.332 274.603 231.457 275.166 231.379C274.824 231.675 274.391 231.845 273.939 231.861C273.487 231.877 273.043 231.737 272.681 231.465L240.044 212.746C239.032 212.019 238.204 211.064 237.626 209.959C237.048 208.853 236.738 207.627 236.719 206.38V194.685C236.714 193.019 237.405 191.986 238.424 191.814Z" fill="#7A8680"/>
<path d="M262.859 218.762L259.866 217.03C259.645 216.871 259.465 216.663 259.339 216.422C259.213 216.181 259.146 215.914 259.142 215.642V212.439C259.142 211.903 259.466 211.653 259.866 211.89L262.859 213.621C263.08 213.779 263.261 213.987 263.387 214.228C263.513 214.469 263.581 214.736 263.585 215.008V218.213C263.585 218.747 263.261 218.992 262.859 218.762Z" fill="#51A969"/>
<path d="M252.85 212.971L249.855 211.239C249.635 211.081 249.454 210.873 249.328 210.632C249.202 210.391 249.135 210.124 249.131 209.852V206.648C249.131 206.114 249.455 205.862 249.855 206.099L252.85 207.831C253.071 207.99 253.251 208.198 253.377 208.439C253.503 208.68 253.57 208.947 253.575 209.219V212.423C253.575 212.957 253.25 213.203 252.85 212.971Z" fill="#7A8680"/>
<path d="M300.944 177.249L376.239 133.699C377.168 133.032 377.928 132.157 378.458 131.142C378.989 130.128 379.274 129.003 379.291 127.858V113.475C379.291 111.223 377.924 110.189 376.239 111.164L300.944 154.714C300.015 155.381 299.255 156.256 298.725 157.271C298.195 158.285 297.91 159.41 297.893 160.554V174.938C297.893 177.188 299.262 178.223 300.944 177.249Z" fill="#6FB883"/>
<path opacity="0.4" d="M303.105 172.204L374.078 131.155C374.549 130.816 374.935 130.372 375.203 129.857C375.472 129.342 375.616 128.772 375.625 128.191V117.378C375.625 116.235 374.932 115.711 374.078 116.205L303.105 157.256C302.633 157.594 302.248 158.038 301.979 158.553C301.71 159.067 301.565 159.638 301.557 160.219V171.032C301.557 172.175 302.25 172.7 303.105 172.204Z" fill="#34473E"/>
<path d="M359.287 134.244L369.879 128.118C370.338 127.789 370.712 127.357 370.973 126.856C371.234 126.355 371.374 125.8 371.382 125.236C371.382 124.126 370.71 123.616 369.879 124.096L359.287 130.223C358.828 130.552 358.454 130.984 358.193 131.485C357.932 131.985 357.792 132.541 357.784 133.105C357.784 134.211 358.456 134.725 359.287 134.244Z" fill="#34473E"/>
<path d="M350.264 137.456C350.264 138.566 351.048 139.015 352 138.461C352.506 138.131 352.926 137.686 353.227 137.162C353.529 136.639 353.703 136.051 353.736 135.448C353.736 134.339 352.959 133.89 352 134.444C351.495 134.774 351.074 135.219 350.773 135.742C350.471 136.265 350.297 136.853 350.264 137.456Z" fill="#081F14"/>
<path d="M344.137 140.999C344.137 142.108 344.921 142.558 345.873 142.002C346.379 141.672 346.8 141.227 347.101 140.704C347.403 140.18 347.577 139.593 347.609 138.989C347.609 137.881 346.832 137.431 345.873 137.985C345.368 138.316 344.947 138.76 344.645 139.284C344.344 139.807 344.169 140.395 344.137 140.999Z" fill="#081F14"/>
<path d="M338.013 144.541C338.013 145.649 338.797 146.099 339.749 145.544C340.255 145.214 340.676 144.769 340.977 144.246C341.279 143.722 341.453 143.135 341.485 142.531C341.485 141.422 340.708 140.972 339.749 141.526C339.244 141.857 338.823 142.302 338.521 142.826C338.22 143.349 338.045 143.937 338.013 144.541Z" fill="#34473E"/>
<path d="M331.889 148.084C331.889 149.192 332.673 149.641 333.625 149.087C334.131 148.757 334.551 148.312 334.853 147.788C335.154 147.265 335.328 146.678 335.361 146.074C335.361 144.964 334.584 144.515 333.625 145.069C333.12 145.4 332.699 145.845 332.397 146.368C332.096 146.892 331.921 147.48 331.889 148.084Z" fill="#081F14"/>
<path d="M306.091 166.177L309.659 164.114C309.952 163.903 310.193 163.626 310.36 163.305C310.528 162.984 310.618 162.629 310.624 162.267V158.486C310.624 157.774 310.191 157.447 309.659 157.755L306.091 159.818C305.797 160.029 305.557 160.306 305.389 160.627C305.222 160.948 305.132 161.303 305.126 161.665V165.446C305.126 166.165 305.557 166.492 306.091 166.177Z" fill="#081F14"/>
<path d="M300.944 202.612L376.239 159.062C377.168 158.396 377.928 157.52 378.458 156.506C378.989 155.491 379.274 154.366 379.291 153.222V138.838C379.291 136.587 377.924 135.552 376.239 136.527L300.944 180.077C300.015 180.744 299.255 181.62 298.725 182.635C298.195 183.649 297.91 184.774 297.893 185.919V200.301C297.893 202.553 299.262 203.587 300.944 202.612Z" fill="#6FB883"/>
<path opacity="0.4" d="M303.105 197.569L374.078 156.519C374.549 156.181 374.935 155.736 375.203 155.222C375.472 154.707 375.617 154.136 375.625 153.556V142.744C375.625 141.601 374.932 141.076 374.078 141.564L303.105 182.614C302.634 182.952 302.248 183.396 301.979 183.911C301.71 184.425 301.565 184.996 301.557 185.577V196.39C301.557 197.539 302.25 198.063 303.105 197.569Z" fill="#34473E"/>
<path d="M359.287 159.608L369.879 153.481C370.338 153.152 370.713 152.72 370.974 152.219C371.235 151.719 371.374 151.164 371.382 150.599C371.382 149.489 370.71 148.98 369.879 149.46L359.287 155.586C358.829 155.915 358.454 156.348 358.193 156.848C357.932 157.349 357.792 157.904 357.784 158.469C357.784 159.578 358.456 160.088 359.287 159.608Z" fill="#34473E"/>
<path d="M350.264 162.821C350.264 163.929 351.048 164.378 352 163.824C352.506 163.494 352.926 163.049 353.228 162.526C353.529 162.002 353.703 161.415 353.736 160.811C353.736 159.701 352.959 159.252 352 159.806C351.495 160.137 351.074 160.582 350.772 161.105C350.471 161.629 350.296 162.217 350.264 162.821Z" fill="#EBEDEC"/>
<path d="M344.137 166.362C344.137 167.471 344.921 167.921 345.873 167.367C346.379 167.036 346.799 166.591 347.101 166.068C347.402 165.544 347.576 164.957 347.609 164.353C347.609 163.244 346.832 162.794 345.873 163.349C345.368 163.679 344.947 164.124 344.645 164.647C344.344 165.171 344.169 165.758 344.137 166.362Z" fill="#081F14"/>
<path d="M338.013 169.904C338.013 171.014 338.797 171.463 339.749 170.909C340.255 170.579 340.675 170.134 340.977 169.61C341.278 169.087 341.452 168.499 341.485 167.896C341.485 166.788 340.708 166.338 339.749 166.892C339.244 167.222 338.823 167.667 338.522 168.19C338.22 168.714 338.046 169.301 338.013 169.904Z" fill="#34473E"/>
<path d="M331.889 173.447C331.889 174.555 332.673 175.005 333.625 174.45C334.131 174.12 334.551 173.676 334.853 173.152C335.155 172.628 335.329 172.041 335.361 171.437C335.361 170.329 334.584 169.878 333.625 170.434C333.12 170.764 332.699 171.209 332.397 171.732C332.095 172.256 331.921 172.843 331.889 173.447Z" fill="#081F14"/>
<path d="M306.091 191.548L309.659 189.484C309.952 189.273 310.193 188.996 310.36 188.676C310.528 188.355 310.618 188 310.624 187.638V183.856C310.624 183.144 310.191 182.817 309.659 183.126L306.091 185.189C305.797 185.4 305.557 185.676 305.389 185.997C305.221 186.318 305.131 186.673 305.126 187.035V190.817C305.126 191.529 305.557 191.855 306.091 191.548Z" fill="#081F14"/>
<path d="M300.944 227.977L376.239 184.427C377.168 183.76 377.928 182.884 378.459 181.87C378.989 180.855 379.274 179.73 379.291 178.585V164.201C379.291 161.951 377.924 160.916 376.239 161.89L300.944 205.441C300.015 206.108 299.255 206.984 298.725 207.998C298.195 209.013 297.91 210.137 297.893 211.282V225.666C297.893 227.916 299.262 228.951 300.944 227.977Z" fill="#6FB883"/>
<path opacity="0.4" d="M303.105 222.933L374.078 181.884C374.549 181.545 374.934 181.101 375.203 180.586C375.472 180.071 375.616 179.501 375.625 178.92V168.107C375.625 166.964 374.932 166.439 374.078 166.928L303.105 207.977C302.634 208.315 302.248 208.76 301.979 209.274C301.71 209.789 301.566 210.359 301.557 210.94V221.754C301.557 222.904 302.25 223.428 303.105 222.933Z" fill="#34473E"/>
<path d="M359.287 184.972L369.879 178.846C370.338 178.517 370.712 178.085 370.973 177.584C371.234 177.083 371.374 176.528 371.382 175.964C371.382 174.855 370.71 174.346 369.879 174.825L359.287 180.951C358.829 181.28 358.454 181.712 358.193 182.213C357.932 182.714 357.792 183.269 357.784 183.833C357.784 184.942 358.456 185.451 359.287 184.972Z" fill="#34473E"/>
<path d="M350.264 188.187C350.264 189.296 351.048 189.746 352 189.19C352.506 188.86 352.926 188.415 353.228 187.892C353.529 187.368 353.703 186.781 353.736 186.177C353.736 185.069 352.959 184.619 352 185.173C351.495 185.503 351.074 185.948 350.772 186.472C350.47 186.995 350.296 187.583 350.264 188.187Z" fill="#EBEDEC"/>
<path d="M344.137 191.724C344.137 192.832 344.921 193.281 345.873 192.727C346.379 192.397 346.799 191.952 347.101 191.429C347.402 190.905 347.576 190.318 347.609 189.714C347.609 188.604 346.832 188.155 345.873 188.711C345.368 189.041 344.947 189.485 344.645 190.009C344.343 190.533 344.169 191.12 344.137 191.724Z" fill="#081F14"/>
<path d="M338.013 195.269C338.013 196.377 338.797 196.827 339.749 196.272C340.255 195.942 340.675 195.497 340.977 194.974C341.278 194.45 341.452 193.863 341.485 193.259C341.485 192.15 340.708 191.7 339.749 192.254C339.244 192.585 338.823 193.03 338.521 193.554C338.22 194.077 338.045 194.665 338.013 195.269Z" fill="#34473E"/>
<path d="M331.889 198.81C331.889 199.92 332.673 200.369 333.625 199.815C334.131 199.485 334.551 199.04 334.852 198.516C335.154 197.993 335.328 197.405 335.361 196.802C335.361 195.693 334.584 195.244 333.625 195.798C333.12 196.128 332.699 196.573 332.398 197.096C332.096 197.619 331.922 198.207 331.889 198.81Z" fill="#081F14"/>
<path d="M306.091 216.912L309.659 214.848C309.952 214.637 310.193 214.36 310.36 214.039C310.528 213.719 310.618 213.363 310.624 213.001V209.22C310.624 208.507 310.191 208.181 309.659 208.489L306.091 210.552C305.797 210.763 305.557 211.04 305.389 211.361C305.221 211.682 305.131 212.037 305.126 212.4V216.181C305.126 216.892 305.557 217.219 306.091 216.912Z" fill="#081F14"/>
<path d="M300.944 253.34L376.239 209.79C377.168 209.124 377.928 208.248 378.458 207.234C378.989 206.219 379.274 205.094 379.291 203.95V189.566C379.291 187.314 377.924 186.28 376.239 187.255L300.944 230.805C300.015 231.472 299.255 232.348 298.725 233.362C298.195 234.376 297.91 235.501 297.893 236.646V251.029C297.893 253.28 299.262 254.315 300.944 253.34Z" fill="#6FB883"/>
<path opacity="0.4" d="M303.105 248.298L374.078 207.247C374.549 206.909 374.935 206.464 375.203 205.95C375.472 205.435 375.617 204.864 375.625 204.284V193.47C375.625 192.328 374.932 191.804 374.078 192.291L303.105 233.342C302.633 233.68 302.248 234.124 301.979 234.639C301.71 235.153 301.565 235.724 301.557 236.305V247.118C301.557 248.266 302.25 248.791 303.105 248.298Z" fill="#34473E"/>
<path d="M359.287 210.335L369.879 204.209C370.338 203.88 370.713 203.448 370.974 202.947C371.235 202.447 371.374 201.892 371.382 201.327C371.382 200.217 370.71 199.708 369.879 200.188L359.287 206.314C358.828 206.643 358.454 207.075 358.193 207.576C357.932 208.077 357.792 208.632 357.784 209.197C357.784 210.306 358.456 210.816 359.287 210.335Z" fill="#34473E"/>
<path d="M350.264 213.547C350.264 214.657 351.048 215.106 352 214.552C352.506 214.222 352.926 213.777 353.227 213.253C353.529 212.73 353.703 212.143 353.736 211.539C353.736 210.429 352.959 209.98 352 210.534C351.495 210.864 351.074 211.309 350.772 211.833C350.471 212.356 350.296 212.944 350.264 213.547Z" fill="#081F14"/>
<path d="M344.137 217.09C344.137 218.2 344.921 218.649 345.873 218.093C346.379 217.763 346.8 217.318 347.101 216.795C347.403 216.271 347.577 215.684 347.609 215.08C347.609 213.972 346.832 213.523 345.873 214.077C345.368 214.407 344.947 214.852 344.645 215.375C344.343 215.899 344.169 216.486 344.137 217.09Z" fill="#081F14"/>
<path d="M338.013 220.632C338.013 221.741 338.797 222.19 339.749 221.636C340.255 221.306 340.675 220.861 340.977 220.337C341.278 219.814 341.452 219.226 341.485 218.623C341.485 217.513 340.708 217.064 339.749 217.619C339.244 217.949 338.823 218.394 338.521 218.917C338.219 219.441 338.045 220.029 338.013 220.632Z" fill="#34473E"/>
<path d="M331.889 224.175C331.889 225.283 332.673 225.733 333.625 225.178C334.131 224.848 334.551 224.403 334.853 223.88C335.154 223.356 335.328 222.769 335.361 222.165C335.361 221.056 334.584 220.606 333.625 221.16C333.12 221.491 332.699 221.936 332.397 222.46C332.096 222.983 331.921 223.571 331.889 224.175Z" fill="#081F14"/>
<path d="M306.091 242.275L309.659 240.212C309.952 240.001 310.193 239.724 310.36 239.403C310.528 239.082 310.618 238.727 310.624 238.365V234.584C310.624 233.872 310.191 233.545 309.659 233.853L306.091 235.916C305.797 236.127 305.557 236.404 305.389 236.725C305.222 237.045 305.132 237.401 305.126 237.763V241.544C305.126 242.257 305.557 242.583 306.091 242.275Z" fill="#34473E"/>
<path d="M300.944 278.703L376.239 235.153C377.168 234.487 377.928 233.611 378.458 232.597C378.989 231.583 379.274 230.458 379.291 229.313V214.929C379.291 212.679 377.924 211.644 376.239 212.618L300.944 256.169C300.015 256.835 299.255 257.711 298.725 258.725C298.195 259.74 297.91 260.864 297.893 262.009V276.392C297.893 278.644 299.262 279.679 300.944 278.703Z" fill="#6FB883"/>
<path opacity="0.4" d="M303.105 273.661L374.078 232.61C374.549 232.272 374.935 231.828 375.203 231.313C375.472 230.798 375.617 230.228 375.625 229.647V218.834C375.625 217.692 374.932 217.167 374.078 217.662L303.105 258.711C302.634 259.05 302.248 259.494 301.979 260.009C301.71 260.523 301.565 261.094 301.557 261.675V272.488C301.557 273.631 302.25 274.155 303.105 273.661Z" fill="#34473E"/>
<path d="M359.287 235.7L369.879 229.572C370.338 229.243 370.713 228.811 370.974 228.311C371.235 227.81 371.374 227.255 371.382 226.69C371.382 225.58 370.71 225.071 369.879 225.552L359.287 231.678C358.829 232.007 358.454 232.439 358.193 232.939C357.932 233.44 357.792 233.995 357.784 234.56C357.784 235.669 358.456 236.179 359.287 235.7Z" fill="#34473E"/>
<path d="M350.264 238.912C350.264 240.02 351.048 240.47 352 239.916C352.506 239.585 352.926 239.14 353.228 238.617C353.529 238.093 353.703 237.506 353.736 236.902C353.736 235.793 352.959 235.343 352 235.897C351.495 236.228 351.074 236.673 350.772 237.197C350.471 237.721 350.296 238.308 350.264 238.912Z" fill="#081F14"/>
<path d="M344.137 242.453C344.137 243.563 344.921 244.012 345.873 243.458C346.379 243.128 346.799 242.683 347.101 242.159C347.402 241.636 347.576 241.048 347.609 240.445C347.609 239.335 346.832 238.886 345.873 239.44C345.368 239.77 344.947 240.215 344.646 240.739C344.344 241.262 344.17 241.85 344.137 242.453Z" fill="#EBEDEC"/>
<path d="M338.013 245.996C338.013 247.105 338.797 247.555 339.749 246.999C340.255 246.669 340.675 246.224 340.977 245.701C341.278 245.177 341.452 244.59 341.485 243.986C341.485 242.878 340.708 242.428 339.749 242.982C339.244 243.313 338.823 243.757 338.521 244.281C338.22 244.805 338.045 245.392 338.013 245.996Z" fill="#34473E"/>
<path d="M331.889 249.538C331.889 250.648 332.673 251.097 333.625 250.542C334.131 250.212 334.551 249.767 334.853 249.243C335.155 248.72 335.329 248.132 335.361 247.529C335.361 246.42 334.584 245.97 333.625 246.525C333.12 246.855 332.699 247.3 332.397 247.824C332.095 248.347 331.921 248.935 331.889 249.538Z" fill="#EBEDEC"/>
<path d="M306.091 267.64L309.659 265.575C309.952 265.364 310.193 265.088 310.36 264.767C310.528 264.446 310.618 264.091 310.624 263.729V259.947C310.624 259.235 310.191 258.908 309.659 259.217L306.091 261.28C305.797 261.491 305.557 261.768 305.389 262.088C305.221 262.409 305.131 262.765 305.126 263.126V266.909C305.126 267.62 305.557 267.948 306.091 267.64Z" fill="#34473E"/>
<path d="M300.944 304.068L376.239 260.518C377.168 259.851 377.928 258.976 378.459 257.961C378.989 256.947 379.274 255.822 379.291 254.676V240.293C379.291 238.042 377.924 237.007 376.239 237.982L300.944 281.532C300.015 282.199 299.255 283.075 298.725 284.09C298.195 285.104 297.91 286.229 297.893 287.374V301.757C297.893 304.008 299.262 305.047 300.944 304.068Z" fill="#6FB883"/>
<path opacity="0.4" d="M303.105 299.02L374.078 257.971C374.549 257.633 374.935 257.188 375.203 256.674C375.472 256.159 375.616 255.589 375.625 255.008V244.194C375.625 243.052 374.932 242.527 374.078 243.015L303.105 284.064C302.634 284.403 302.248 284.847 301.979 285.362C301.71 285.876 301.566 286.447 301.557 287.028V297.841C301.557 298.994 302.25 299.52 303.105 299.02Z" fill="#34473E"/>
<path d="M359.287 261.063L369.879 254.937C370.338 254.608 370.712 254.176 370.973 253.675C371.234 253.175 371.374 252.62 371.382 252.055C371.382 250.947 370.71 250.437 369.879 250.916L359.287 257.042C358.829 257.371 358.454 257.804 358.193 258.304C357.932 258.805 357.792 259.36 357.784 259.925C357.784 261.028 358.456 261.544 359.287 261.063Z" fill="#34473E"/>
<path d="M350.264 264.276C350.264 265.385 351.048 265.835 352 265.279C352.506 264.949 352.926 264.504 353.228 263.981C353.53 263.457 353.704 262.869 353.736 262.266C353.736 261.158 352.959 260.707 352 261.262C351.495 261.592 351.074 262.037 350.772 262.561C350.47 263.084 350.296 263.672 350.264 264.276Z" fill="#081F14"/>
<path d="M344.137 267.818C344.137 268.926 344.921 269.376 345.873 268.822C346.379 268.491 346.799 268.047 347.101 267.523C347.402 266.999 347.576 266.412 347.609 265.808C347.609 264.699 346.832 264.249 345.873 264.805C345.368 265.135 344.947 265.58 344.645 266.103C344.343 266.627 344.169 267.214 344.137 267.818Z" fill="#081F14"/>
<path d="M338.013 271.36C338.013 272.469 338.797 272.918 339.749 272.364C340.255 272.034 340.675 271.589 340.977 271.065C341.278 270.542 341.452 269.954 341.485 269.351C341.485 268.241 340.708 267.792 339.749 268.346C339.244 268.676 338.823 269.121 338.521 269.645C338.22 270.169 338.045 270.757 338.013 271.36Z" fill="#34473E"/>
<path d="M331.889 274.902C331.889 276.011 332.673 276.461 333.625 275.906C334.131 275.576 334.551 275.131 334.852 274.608C335.154 274.084 335.328 273.497 335.361 272.893C335.361 271.785 334.584 271.336 333.625 271.89C333.12 272.22 332.699 272.664 332.398 273.188C332.096 273.711 331.922 274.298 331.889 274.902Z" fill="#081F14"/>
<path d="M306.091 293.003L309.659 290.94C309.952 290.729 310.192 290.452 310.36 290.131C310.527 289.81 310.618 289.454 310.624 289.092V285.312C310.624 284.599 310.191 284.273 309.659 284.581L306.091 286.644C305.797 286.855 305.557 287.132 305.389 287.452C305.221 287.773 305.131 288.129 305.126 288.491V292.272C305.126 292.983 305.557 293.311 306.091 293.003Z" fill="#081F14"/>
<path d="M300.944 329.432L376.239 285.882C377.168 285.215 377.928 284.339 378.458 283.325C378.989 282.311 379.274 281.186 379.291 280.041V265.658C379.291 263.406 377.924 262.372 376.239 263.347L300.944 306.897C300.015 307.564 299.255 308.439 298.725 309.454C298.195 310.468 297.91 311.592 297.893 312.737V327.121C297.893 329.371 299.262 330.406 300.944 329.432Z" fill="#6FB883"/>
<path opacity="0.4" d="M303.105 324.389L374.078 283.339C374.549 283 374.935 282.556 375.203 282.041C375.472 281.527 375.617 280.956 375.625 280.375V269.562C375.625 268.419 374.932 267.895 374.078 268.383L303.105 309.433C302.633 309.771 302.248 310.216 301.979 310.73C301.71 311.245 301.565 311.816 301.557 312.397V323.21C301.557 324.358 302.25 324.883 303.105 324.389Z" fill="#34473E"/>
<path d="M359.287 286.427L369.879 280.301C370.338 279.972 370.713 279.54 370.974 279.039C371.235 278.538 371.374 277.983 371.382 277.418C371.382 276.309 370.71 275.799 369.879 276.28L359.287 282.406C358.828 282.735 358.454 283.167 358.193 283.668C357.932 284.168 357.792 284.723 357.784 285.288C357.784 286.398 358.456 286.907 359.287 286.427Z" fill="#34473E"/>
<path d="M348.325 291.012C348.325 293.108 349.794 293.956 351.605 292.909C352.559 292.286 353.354 291.445 353.923 290.457C354.493 289.468 354.822 288.359 354.883 287.219C354.883 285.123 353.416 284.276 351.605 285.322C350.65 285.946 349.856 286.786 349.286 287.774C348.716 288.763 348.387 289.872 348.325 291.012Z" fill="#EBEDEC"/>
<path d="M335.642 298.448C335.642 299.558 336.418 300.007 337.377 299.452C337.883 299.122 338.303 298.677 338.605 298.153C338.907 297.63 339.081 297.042 339.114 296.438C339.114 295.33 338.329 294.881 337.377 295.435C336.872 295.765 336.451 296.21 336.15 296.734C335.848 297.257 335.674 297.844 335.642 298.448Z" fill="#081F14"/>
<path d="M329.518 301.99C329.518 303.099 330.294 303.549 331.253 302.994C331.758 302.664 332.179 302.219 332.481 301.695C332.782 301.172 332.956 300.584 332.988 299.981C332.988 298.871 332.212 298.422 331.253 298.977C330.748 299.307 330.327 299.752 330.025 300.276C329.724 300.799 329.55 301.387 329.518 301.99Z" fill="#34473E"/>
<path d="M323.392 305.533C323.392 306.641 324.176 307.091 325.128 306.536C325.634 306.206 326.055 305.761 326.356 305.238C326.658 304.714 326.832 304.127 326.865 303.523C326.865 302.414 326.08 301.964 325.128 302.518C324.623 302.849 324.202 303.294 323.9 303.818C323.599 304.341 323.424 304.929 323.392 305.533Z" fill="#081F14"/>
<path d="M306.091 318.367L309.659 316.303C309.952 316.092 310.193 315.816 310.36 315.495C310.528 315.175 310.618 314.819 310.624 314.457V310.68C310.624 309.969 310.191 309.641 309.659 309.949L306.091 312.013C305.797 312.224 305.557 312.5 305.389 312.821C305.222 313.142 305.132 313.498 305.126 313.86V317.642C305.126 318.348 305.557 318.672 306.091 318.367Z" fill="#34473E"/>
<path d="M86.9795 353.749L46.224 330.177C43.7236 328.736 44.0375 326.203 46.9249 324.533L86.2772 301.772C87.7587 300.944 89.4134 300.476 91.1082 300.406C92.8029 300.335 94.4906 300.664 96.0355 301.365L136.791 324.938C139.293 326.379 138.979 328.911 136.09 330.582L96.7378 353.343C95.2563 354.171 93.6016 354.639 91.9069 354.709C90.2121 354.78 88.5244 354.451 86.9795 353.749Z" fill="#9ACDA8"/>
<path d="M91.2391 344.155C89.3527 344.197 87.4875 343.75 85.8238 342.859L45.0683 319.286C44.2394 318.867 43.538 318.232 43.0375 317.449C42.5369 316.665 42.2555 315.761 42.2227 314.832C42.3006 313.728 42.6701 312.664 43.2933 311.75C43.9165 310.836 44.771 310.105 45.7692 309.631L85.1215 286.87C86.9515 285.831 89.0057 285.251 91.1083 285.18C93.2109 285.11 95.2993 285.551 97.1945 286.466L137.949 310.025C138.778 310.444 139.479 311.079 139.979 311.862C140.48 312.646 140.761 313.55 140.794 314.479C140.717 315.583 140.347 316.647 139.724 317.56C139.101 318.474 138.246 319.205 137.248 319.679L97.8955 342.441C95.8605 343.575 93.5681 344.166 91.2391 344.155ZM88.1372 338.842C89.3286 339.34 90.6169 339.562 91.9059 339.491C93.195 339.421 94.4516 339.06 95.5821 338.436L134.933 315.674C135.922 315.102 136.16 314.587 136.166 314.495C136.027 314.307 135.845 314.156 135.635 314.054L94.8785 290.481C93.6875 289.984 92.3998 289.762 91.1114 289.832C89.8229 289.901 88.5667 290.261 87.4362 290.885L48.0826 313.641C47.0939 314.213 46.8572 314.73 46.8507 314.828C46.9913 315.015 47.1736 315.166 47.383 315.269L88.1372 338.842Z" fill="#B8DCC2"/>
<path d="M138.466 300.046V285.959L106.936 285.94L96.0397 279.631C94.4946 278.93 92.807 278.602 91.1123 278.672C89.4177 278.743 87.7631 279.21 86.2814 280.037L76.1098 285.919L44.549 285.902V300.391C44.5428 300.944 44.6981 301.486 44.9957 301.952C45.2934 302.417 45.7204 302.785 46.2242 303.011L86.9797 326.583C88.5248 327.284 90.2124 327.613 91.907 327.542C93.6017 327.471 95.2562 327.004 96.738 326.177L136.09 303.417C137.756 302.455 138.561 301.208 138.466 300.046Z" fill="#51A969"/>
<path d="M91.5084 278.668C89.6791 278.693 87.8834 279.165 86.2775 280.043L76.1098 285.92L44.549 285.903V300.391C44.5428 300.944 44.6981 301.486 44.9957 301.952C45.2934 302.417 45.7204 302.785 46.2242 303.011L86.9797 326.583C88.3766 327.304 89.9397 327.638 91.5084 327.553V278.668Z" fill="#316740"/>
<path d="M48.1204 285.908H44.549V300.396C44.5428 300.949 44.6981 301.491 44.9957 301.957C45.2934 302.422 45.7204 302.791 46.2242 303.016L48.1204 304.113V285.908Z" fill="#34473E"/>
<path d="M87.6074 326.894C90.133 327.809 92.904 327.778 95.408 326.805V310.354H87.6074V326.894Z" fill="#6FB883"/>
<path d="M86.9795 312.15L46.224 288.578C43.7236 287.136 44.0375 284.604 46.9249 282.932L86.2772 260.172C87.7588 259.345 89.4135 258.877 91.1083 258.807C92.8031 258.737 94.4907 259.066 96.0355 259.767L136.791 283.34C139.293 284.781 138.979 287.313 136.09 288.984L96.7378 311.744C95.2563 312.572 93.6016 313.039 91.9069 313.11C90.2121 313.18 88.5244 312.852 86.9795 312.15Z" fill="#9ACDA8"/>
<path d="M136.09 286.212L96.7377 308.977C95.2559 309.804 93.6013 310.271 91.9067 310.342C90.2121 310.412 88.5245 310.084 86.9794 309.383L46.2239 285.811C45.731 285.538 45.3048 285.159 44.9763 284.701C44.1171 286.086 44.5068 287.59 46.2239 288.583L86.9794 312.155C88.5245 312.856 90.2121 313.184 91.9067 313.114C93.6013 313.043 95.2559 312.576 96.7377 311.749L136.09 288.989C138.334 287.691 139.017 285.877 138.038 284.453C137.541 285.189 136.872 285.793 136.09 286.212Z" fill="#B8DCC2"/>
<path d="M123.477 303.763C123.446 304.335 123.281 304.892 122.995 305.389C122.709 305.885 122.31 306.307 121.831 306.62C120.922 307.144 120.185 306.72 120.185 305.668C120.216 305.096 120.381 304.539 120.667 304.043C120.953 303.546 121.352 303.125 121.831 302.812C122.74 302.285 123.477 302.712 123.477 303.763Z" fill="#34473E"/>
<path d="M128.773 300.7C128.742 301.272 128.577 301.829 128.291 302.325C128.005 302.821 127.606 303.243 127.127 303.556C126.211 304.08 125.48 303.655 125.48 302.605C125.511 302.032 125.676 301.475 125.962 300.979C126.249 300.482 126.648 300.06 127.127 299.747C128.036 299.222 128.773 299.648 128.773 300.7Z" fill="#34473E"/>
<path d="M134.069 297.637C134.038 298.209 133.873 298.766 133.587 299.262C133.301 299.758 132.903 300.18 132.424 300.493C131.508 301.017 130.777 300.592 130.777 299.54C130.808 298.968 130.974 298.411 131.26 297.915C131.546 297.419 131.945 296.997 132.424 296.684C133.333 296.159 134.069 296.585 134.069 297.637Z" fill="#34473E"/>
<path d="M89.3898 297.535L70.3178 286.505C69.1409 285.828 69.2952 284.645 70.6461 283.864L89.0616 273.213C89.7549 272.826 90.5292 272.607 91.3223 272.574C92.1154 272.541 92.9052 272.695 93.6282 273.023L112.699 284.054C113.876 284.73 113.723 285.913 112.371 286.695L93.9564 297.346C93.2629 297.733 92.4886 297.952 91.6955 297.984C90.9024 298.017 90.1127 297.863 89.3898 297.535Z" fill="#6FB883"/>
<path d="M91.215 288.3L88.576 286.774C88.4139 286.679 88.4348 286.512 88.6218 286.408L91.1693 284.934C91.2651 284.881 91.3722 284.85 91.482 284.846C91.5917 284.841 91.701 284.862 91.8009 284.908L94.4399 286.434C94.6021 286.527 94.5811 286.696 94.3941 286.8L91.8467 288.274C91.7507 288.327 91.6436 288.357 91.534 288.362C91.4243 288.366 91.3151 288.345 91.215 288.3Z" fill="#34473E"/>
<path d="M70.3181 286.505L70.373 286.535C70.462 286.473 70.543 286.404 70.6463 286.347L89.0618 275.696C89.7553 275.309 90.5297 275.09 91.3227 275.058C92.1158 275.025 92.9055 275.179 93.6284 275.507L112.645 286.512C113.724 285.738 113.781 284.678 112.699 284.059L93.6284 273.028C92.9055 272.7 92.1157 272.546 91.3225 272.579C90.5294 272.612 89.7551 272.831 89.0618 273.218L70.6463 283.869C69.2955 284.645 69.1477 285.828 70.3181 286.505Z" fill="#51A969"/>
<path d="M197.95 417.652L157.195 394.08C154.694 392.633 155.008 390.106 157.896 388.435L197.248 365.675C198.73 364.848 200.384 364.381 202.079 364.31C203.774 364.24 205.461 364.568 207.006 365.269L247.762 388.841C250.262 390.283 249.95 392.815 247.061 394.487L207.708 417.247C206.227 418.074 204.572 418.542 202.877 418.612C201.183 418.682 199.495 418.353 197.95 417.652Z" fill="#9ACDA8"/>
<path d="M202.21 408.059C200.323 408.1 198.457 407.653 196.793 406.761L156.038 383.188C155.21 382.769 154.508 382.134 154.007 381.351C153.507 380.567 153.225 379.664 153.191 378.734C153.27 377.63 153.639 376.567 154.262 375.653C154.885 374.74 155.739 374.008 156.737 373.533L196.09 350.769C197.92 349.73 199.975 349.15 202.077 349.08C204.18 349.009 206.268 349.45 208.163 350.364L248.913 373.934C249.742 374.354 250.443 374.988 250.944 375.772C251.444 376.555 251.726 377.459 251.759 378.388C251.681 379.493 251.311 380.556 250.688 381.47C250.065 382.385 249.21 383.116 248.211 383.591L208.866 406.356C206.83 407.487 204.538 408.073 202.21 408.059ZM199.107 402.744C200.298 403.242 201.586 403.464 202.875 403.394C204.163 403.324 205.419 402.963 206.55 402.339L245.906 379.576C246.894 379.005 247.131 378.488 247.138 378.397C246.997 378.211 246.815 378.061 246.607 377.957L205.85 354.378C204.658 353.88 203.37 353.658 202.081 353.728C200.792 353.798 199.535 354.16 198.405 354.784L159.053 377.545C158.064 378.116 157.826 378.633 157.821 378.724C157.962 378.91 158.144 379.061 158.353 379.165L199.107 402.744Z" fill="#B8DCC2"/>
<path d="M249.436 363.948V349.861L217.905 349.842L207.005 343.54C205.461 342.838 203.773 342.509 202.078 342.579C200.383 342.649 198.729 343.117 197.247 343.944L187.078 349.825L155.519 349.808V364.297C155.513 364.85 155.668 365.392 155.965 365.858C156.263 366.323 156.69 366.691 157.194 366.917L197.949 390.489C199.494 391.19 201.182 391.519 202.877 391.449C204.571 391.378 206.226 390.911 207.708 390.085L247.06 367.323C248.726 366.359 249.53 365.11 249.436 363.948Z" fill="#51A969"/>
<path d="M202.478 342.57C200.649 342.595 198.853 343.067 197.247 343.945L187.078 349.826L155.519 349.809V364.297C155.513 364.85 155.668 365.392 155.965 365.858C156.263 366.323 156.69 366.691 157.194 366.917L197.949 390.49C199.346 391.21 200.909 391.545 202.478 391.459V342.57Z" fill="#316740"/>
<path d="M159.09 349.81H155.519V364.298C155.513 364.851 155.668 365.393 155.965 365.859C156.263 366.325 156.69 366.693 157.194 366.918L159.09 368.015V349.81Z" fill="#34473E"/>
<path d="M198.577 390.796C201.103 391.711 203.874 391.68 206.378 390.707V374.256H198.577V390.796Z" fill="#6FB883"/>
<path d="M197.95 376.054L157.195 352.481C154.694 351.04 155.008 348.508 157.896 346.837L197.248 324.076C198.73 323.249 200.384 322.782 202.079 322.712C203.774 322.641 205.461 322.97 207.006 323.671L247.762 347.243C250.262 348.684 249.95 351.217 247.061 352.887L207.708 375.647C206.227 376.474 204.572 376.942 202.878 377.012C201.183 377.083 199.495 376.754 197.95 376.054Z" fill="#9ACDA8"/>
<path d="M247.061 350.114L207.708 372.874C206.227 373.702 204.572 374.17 202.877 374.24C201.183 374.311 199.495 373.982 197.95 373.28L157.195 349.708C156.701 349.436 156.275 349.057 155.947 348.598C155.088 349.983 155.478 351.487 157.195 352.48L197.95 376.054C199.495 376.755 201.183 377.084 202.877 377.014C204.572 376.943 206.227 376.475 207.708 375.648L247.061 352.887C249.305 351.589 249.986 349.776 249.009 348.352C248.513 349.09 247.844 349.694 247.061 350.114Z" fill="#B8DCC2"/>
<path d="M234.446 367.669C234.415 368.241 234.25 368.798 233.964 369.294C233.678 369.79 233.28 370.212 232.801 370.525C231.892 371.049 231.154 370.624 231.154 369.572C231.185 369 231.351 368.443 231.637 367.947C231.923 367.451 232.321 367.029 232.801 366.716C233.71 366.188 234.446 366.621 234.446 367.669Z" fill="#34473E"/>
<path d="M239.742 364.602C239.711 365.174 239.546 365.731 239.26 366.228C238.974 366.724 238.576 367.146 238.097 367.459C237.181 367.983 236.45 367.559 236.45 366.507C236.481 365.935 236.646 365.378 236.932 364.881C237.218 364.385 237.617 363.964 238.097 363.651C239.005 363.124 239.742 363.551 239.742 364.602Z" fill="#34473E"/>
<path d="M245.039 361.539C245.008 362.111 244.843 362.668 244.557 363.164C244.271 363.66 243.873 364.082 243.393 364.395C242.478 364.919 241.747 364.495 241.747 363.444C241.778 362.872 241.943 362.315 242.229 361.818C242.515 361.322 242.914 360.901 243.393 360.588C244.302 360.061 245.039 360.487 245.039 361.539Z" fill="#34473E"/>
<path d="M200.36 361.438L181.288 350.407C180.118 349.73 180.264 348.548 181.617 347.766L200.031 337.115C200.724 336.728 201.498 336.509 202.291 336.476C203.085 336.443 203.874 336.597 204.597 336.925L223.669 347.956C224.84 348.633 224.693 349.815 223.341 350.597L204.927 361.25C204.233 361.636 203.459 361.855 202.666 361.888C201.873 361.92 201.083 361.766 200.36 361.438Z" fill="#6FB883"/>
<path d="M202.186 352.202L199.547 350.676C199.385 350.582 199.406 350.414 199.593 350.31L202.14 348.836C202.236 348.783 202.343 348.753 202.453 348.749C202.562 348.744 202.672 348.765 202.772 348.81L205.411 350.337C205.573 350.431 205.552 350.599 205.365 350.702L202.817 352.176C202.721 352.229 202.614 352.259 202.505 352.264C202.395 352.268 202.286 352.247 202.186 352.202Z" fill="#34473E"/>
<path d="M181.288 350.407L181.342 350.439C181.43 350.371 181.522 350.308 181.617 350.25L200.031 339.599C200.724 339.212 201.498 338.993 202.291 338.96C203.085 338.927 203.874 339.081 204.597 339.409L223.616 350.414C224.693 349.639 224.751 348.58 223.669 347.961L204.597 336.93C203.874 336.602 203.085 336.448 202.291 336.481C201.498 336.514 200.724 336.733 200.031 337.12L181.617 347.771C180.264 348.542 180.118 349.73 181.288 350.407Z" fill="#51A969"/>
</g>
<defs>
<clipPath id="clip0_336_1238">
<rect width="491.039" height="433.577" fill="white" transform="translate(0.313477)"/>
</clipPath>
</defs>
</svg>
