<svg width="497" height="442" viewBox="0 0 497 442" fill="none" xmlns="http://www.w3.org/2000/svg">
<g clip-path="url(#clip0_162_770)">
<path d="M86.7435 166.02C85.9436 166.518 85.1951 167.095 84.5091 167.741C83.9562 157.501 76.4724 153.597 67.5018 159.068C60.1955 163.518 54.1341 172.84 52.0945 181.88C49.8814 181.744 47.6856 182.346 45.8494 183.591C39.3091 187.579 34.1516 197.029 34.33 204.697C34.5084 212.365 39.9552 215.348 46.4955 211.36L87.2205 186.524C89.7611 184.779 91.8553 182.459 93.333 179.751C94.8107 177.043 95.6303 174.025 95.7254 170.94C95.5936 165.278 91.5722 163.08 86.7435 166.02Z" fill="#EEF6F0"/>
<path d="M454.357 136.353C453.557 136.851 452.809 137.428 452.123 138.074C451.57 127.834 444.086 123.931 435.116 129.401C427.809 133.857 421.748 143.173 419.708 152.215C417.495 152.078 415.299 152.679 413.462 153.924C406.923 157.912 401.765 167.362 401.944 175.031C402.122 182.7 407.569 185.682 414.108 181.693L454.834 156.856C457.375 155.111 459.469 152.791 460.946 150.083C462.424 147.376 463.243 144.358 463.338 141.273C463.206 135.613 459.186 133.41 454.357 136.353Z" fill="#EEF6F0"/>
<path d="M268.009 434.955C267.661 434.962 267.317 434.88 267.01 434.716C266.703 434.552 266.444 434.311 266.257 434.017C266.07 433.724 265.962 433.386 265.943 433.038C265.924 432.69 265.994 432.343 266.148 432.031C267.929 428.249 270.715 425.032 274.2 422.732C275.921 421.606 277.929 420.998 279.984 420.982C282.626 421.051 285.796 419.012 288.55 415.526C289.977 413.671 291.72 412.085 293.699 410.84C295.42 409.712 297.428 409.105 299.484 409.091C302.113 409.171 305.293 407.12 308.048 403.634C309.474 401.778 311.218 400.19 313.198 398.945C314.918 397.818 316.926 397.21 318.982 397.196C321.635 397.28 324.796 395.226 327.548 391.741C328.975 389.886 330.719 388.299 332.697 387.053C335.624 385.267 338.573 384.83 341.005 385.823C341.498 386.028 341.89 386.421 342.095 386.914C342.3 387.408 342.303 387.963 342.102 388.458C341.9 388.954 341.512 389.349 341.021 389.559C340.53 389.769 339.976 389.776 339.48 389.579C338.681 389.368 337.844 389.342 337.033 389.505C336.223 389.668 335.46 390.014 334.804 390.517C333.236 391.518 331.855 392.785 330.721 394.261C327.127 398.808 322.783 401.367 318.876 401.251C317.602 401.305 316.367 401.706 315.303 402.411C313.735 403.41 312.354 404.677 311.222 406.152C307.627 410.702 303.283 413.252 299.375 413.146C298.098 413.184 296.857 413.586 295.8 414.305C294.233 415.305 292.853 416.571 291.721 418.046C288.124 422.594 283.792 425.132 279.873 425.038C278.598 425.083 277.361 425.485 276.301 426.197C273.47 428.095 271.212 430.734 269.773 433.827C269.61 434.158 269.359 434.438 269.048 434.637C268.737 434.836 268.378 434.946 268.009 434.955Z" fill="#EEF6F0"/>
<path d="M32.8741 266.081C32.8324 267.436 32.4726 268.761 31.8237 269.951C31.1748 271.14 30.2552 272.159 29.1394 272.926C27.018 274.219 25.2518 273.252 25.1939 270.765C25.2357 269.41 25.5958 268.084 26.2449 266.895C26.894 265.706 27.8139 264.687 28.9299 263.921C31.05 262.627 32.8162 263.595 32.8741 266.081Z" fill="#EEF6F0"/>
<path d="M45.3204 258.491C45.2785 259.846 44.9186 261.171 44.2697 262.36C43.6208 263.549 42.7013 264.568 41.5857 265.335C39.4643 266.628 37.6981 265.661 37.6402 263.174C37.682 261.819 38.042 260.493 38.6912 259.304C39.3403 258.115 40.2602 257.096 41.3762 256.33C43.4963 255.037 45.2625 256.004 45.3204 258.491Z" fill="#EEF6F0"/>
<path d="M57.7668 250.9C57.725 252.255 57.3651 253.58 56.7162 254.77C56.0673 255.959 55.1477 256.978 54.0321 257.744C51.9108 259.038 50.1458 258.07 50.088 255.584C50.1293 254.23 50.489 252.904 51.1379 251.714C51.7868 250.525 52.7067 249.506 53.8226 248.74C55.9427 247.447 57.7089 248.413 57.7668 250.9Z" fill="#EEF6F0"/>
<path d="M70.2126 243.31C70.1711 244.664 69.8113 245.99 69.1624 247.179C68.5135 248.368 67.5938 249.387 66.478 250.153C64.3579 251.447 62.5916 250.48 62.5338 247.993C62.5754 246.639 62.9353 245.313 63.5842 244.124C64.2331 242.934 65.1527 241.915 66.2685 241.149C68.3899 239.856 70.1548 240.822 70.2126 243.31Z" fill="#EEF6F0"/>
<path d="M400.183 358.377C400.143 359.691 399.794 360.978 399.164 362.131C398.534 363.285 397.642 364.274 396.559 365.018C394.502 366.273 392.788 365.335 392.732 362.922C392.773 361.607 393.122 360.321 393.752 359.167C394.381 358.013 395.273 357.024 396.356 356.281C398.414 355.025 400.127 355.965 400.183 358.377Z" fill="#EEF6F0"/>
<path d="M410.461 352.109C410.421 353.423 410.072 354.71 409.442 355.864C408.813 357.017 407.92 358.006 406.837 358.75C404.78 360.005 403.066 359.066 403.01 356.654C403.05 355.339 403.399 354.053 404.029 352.899C404.659 351.745 405.551 350.756 406.634 350.012C408.693 348.757 410.405 349.696 410.461 352.109Z" fill="#EEF6F0"/>
<path d="M399.903 346.325C399.863 347.64 399.514 348.926 398.884 350.08C398.254 351.234 397.362 352.223 396.279 352.966C394.221 354.222 392.508 353.282 392.452 350.87C392.492 349.556 392.841 348.269 393.471 347.115C394.101 345.961 394.993 344.973 396.076 344.229C398.133 342.974 399.847 343.913 399.903 346.325Z" fill="#EEF6F0"/>
<path d="M410.181 340.057C410.141 341.371 409.792 342.658 409.162 343.812C408.532 344.966 407.64 345.955 406.557 346.698C404.499 347.953 402.786 347.014 402.729 344.602C402.77 343.287 403.119 342.001 403.749 340.847C404.378 339.693 405.271 338.704 406.354 337.961C408.412 336.705 410.125 337.645 410.181 340.057Z" fill="#EEF6F0"/>
<path d="M303.931 42.1058L296.252 46.7884L296.042 37.7841L303.722 33.1001L303.931 42.1058Z" fill="#EEF6F0"/>
<path d="M314.588 35.5264L306.908 40.2104L306.698 31.206L314.379 26.5247L314.588 35.5264Z" fill="#EEF6F0"/>
<path d="M304.27 53.7864L296.59 58.4703L296.38 49.466L304.06 44.782L304.27 53.7864Z" fill="#EEF6F0"/>
<path d="M314.863 47.3267L307.182 52.0107L306.973 43.005L314.653 38.3211L314.863 47.3267Z" fill="#EEF6F0"/>
<path d="M120.366 372.314C118.985 373.189 117.762 374.291 116.75 375.575C116.407 368.292 111.12 365.501 104.778 369.37C102.638 370.727 100.753 372.453 99.2128 374.467C96.2344 369.524 90.279 368.498 83.5064 372.628C73.9742 378.441 66.459 392.218 66.7189 403.388C66.7432 404.262 66.8222 405.133 66.9556 405.996C65.2482 405.71 63.4969 406.107 62.079 407.102C59.6796 408.75 57.702 410.941 56.3064 413.498C54.9109 416.056 54.1369 418.906 54.0472 421.82C54.1716 427.166 57.9742 429.25 62.5295 426.465L120.799 390.931C123.106 389.346 125.007 387.239 126.349 384.78C127.691 382.322 128.435 379.581 128.521 376.78C128.401 371.639 124.749 369.639 120.366 372.314Z" fill="#EEF6F0"/>
<path d="M317.579 235.749L276.72 213.369C274.212 212.001 274.464 209.488 277.283 207.769L315.692 184.344C317.139 183.492 318.766 182.992 320.441 182.883C322.116 182.774 323.794 183.061 325.338 183.719L366.202 206.1C368.71 207.468 368.458 209.981 365.638 211.7L327.23 235.125C325.782 235.977 324.155 236.478 322.479 236.586C320.803 236.695 319.125 236.408 317.579 235.749Z" fill="#9ACDA8"/>
<path d="M321.576 226.159C319.711 226.243 317.855 225.844 316.189 224.999L275.324 202.616C274.495 202.22 273.786 201.608 273.273 200.845C272.76 200.081 272.461 199.193 272.406 198.274C272.458 197.18 272.799 196.119 273.394 195.201C273.99 194.282 274.819 193.539 275.796 193.047L314.205 169.622C317.756 167.458 322.89 167.162 326.139 168.944L367.003 191.327C367.833 191.723 368.542 192.334 369.055 193.098C369.568 193.862 369.867 194.749 369.921 195.668C369.869 196.762 369.528 197.823 368.933 198.742C368.337 199.66 367.509 200.403 366.532 200.896L328.123 224.321C326.134 225.486 323.88 226.119 321.576 226.159ZM320.905 172.371C319.39 172.391 317.905 172.792 316.586 173.537L278.177 196.964C277.213 197.552 276.989 198.068 276.985 198.159C277.127 198.341 277.311 198.486 277.521 198.583L318.386 220.968C319.576 221.433 320.856 221.623 322.129 221.523C323.403 221.424 324.638 221.038 325.741 220.394L364.15 196.97C365.115 196.382 365.338 195.865 365.342 195.775C365.199 195.593 365.015 195.447 364.806 195.349L323.941 172.967C322.996 172.515 321.951 172.31 320.905 172.371Z" fill="#EEF6F0"/>
<path d="M367.286 181.434L366.961 167.493L335.766 168.202L324.838 162.216C323.293 161.558 321.616 161.271 319.941 161.38C318.265 161.488 316.639 161.989 315.192 162.841L305.268 168.895L274.042 169.603L274.376 183.937C274.383 184.484 274.549 185.018 274.854 185.471C275.16 185.925 275.591 186.279 276.095 186.491L316.954 208.873C318.499 209.532 320.176 209.819 321.851 209.71C323.527 209.601 325.153 209.101 326.6 208.248L365.009 184.823C366.639 183.832 367.406 182.578 367.286 181.434Z" fill="#51A969"/>
<path d="M277.577 169.523L274.043 169.606L274.376 183.94C274.383 184.487 274.549 185.02 274.855 185.474C275.16 185.928 275.591 186.282 276.095 186.494L277.996 187.535L277.577 169.523Z" fill="#34473E"/>
<path d="M317.586 209.165C320.106 210.012 322.847 209.916 325.302 208.896L324.923 192.621L317.206 192.801L317.586 209.165Z" fill="#6FB883"/>
<path d="M316.622 194.591L275.759 172.209C273.251 170.841 273.503 168.327 276.321 166.607L314.731 143.184C316.178 142.331 317.804 141.831 319.479 141.722C321.155 141.613 322.832 141.899 324.377 142.557L365.24 164.941C367.748 166.309 367.496 168.822 364.677 170.542L326.268 193.966C324.821 194.818 323.195 195.319 321.519 195.428C319.844 195.536 318.167 195.25 316.622 194.591Z" fill="#9ACDA8"/>
<path d="M364.617 167.798L326.208 191.223C324.761 192.076 323.135 192.577 321.459 192.685C319.784 192.794 318.107 192.507 316.562 191.848L275.699 169.465C275.204 169.208 274.773 168.843 274.438 168.397C273.62 169.787 274.04 171.259 275.763 172.207L316.622 194.591C318.167 195.25 319.844 195.536 321.519 195.428C323.195 195.319 324.821 194.819 326.268 193.966L364.677 170.541C366.867 169.206 367.501 167.396 366.501 166.01C366.027 166.75 365.381 167.364 364.617 167.798Z" fill="#EEF6F0"/>
<path d="M352.542 185.454C352.524 186.021 352.374 186.576 352.102 187.073C351.83 187.571 351.446 187.997 350.979 188.318C350.085 188.857 349.352 188.454 349.328 187.414C349.345 186.848 349.496 186.293 349.768 185.795C350.039 185.297 350.424 184.871 350.891 184.55C351.778 184.009 352.518 184.413 352.542 185.454Z" fill="#34473E"/>
<path d="M357.711 182.306C357.694 182.872 357.543 183.427 357.271 183.925C357 184.422 356.615 184.849 356.148 185.169C355.254 185.709 354.521 185.306 354.497 184.265C354.515 183.698 354.666 183.143 354.937 182.646C355.209 182.148 355.594 181.722 356.06 181.401C356.95 180.857 357.687 181.261 357.711 182.306Z" fill="#34473E"/>
<path d="M362.881 179.149C362.863 179.716 362.712 180.271 362.441 180.768C362.169 181.266 361.784 181.692 361.317 182.013C360.43 182.552 359.691 182.149 359.667 181.109C359.684 180.542 359.835 179.987 360.106 179.489C360.378 178.992 360.763 178.566 361.23 178.245C362.117 177.704 362.856 178.109 362.881 179.149Z" fill="#34473E"/>
<path d="M318.674 180.077L299.552 169.602C298.378 168.96 298.496 167.786 299.815 166.982L317.789 156.02C318.466 155.621 319.227 155.387 320.011 155.337C320.795 155.286 321.58 155.42 322.303 155.728L341.424 166.202C342.598 166.845 342.48 168.018 341.162 168.822L323.187 179.784C322.51 180.183 321.749 180.417 320.965 180.468C320.181 180.519 319.396 180.385 318.674 180.077Z" fill="#6FB883"/>
<path d="M320.267 170.897L317.622 169.448C317.46 169.359 317.475 169.192 317.658 169.085L320.144 167.57C320.238 167.514 320.344 167.481 320.452 167.474C320.561 167.467 320.67 167.486 320.77 167.529L323.415 168.978C323.577 169.067 323.562 169.234 323.379 169.34L320.891 170.856C320.798 170.912 320.692 170.945 320.584 170.952C320.476 170.959 320.367 170.94 320.267 170.897Z" fill="#34473E"/>
<path d="M299.552 169.602L299.606 169.632C299.692 169.568 299.772 169.498 299.872 169.439L317.846 158.477C318.523 158.079 319.284 157.844 320.068 157.793C320.852 157.742 321.637 157.876 322.36 158.184L341.428 168.634C342.477 167.845 342.509 166.801 341.424 166.207L322.303 155.733C321.58 155.425 320.795 155.291 320.011 155.342C319.227 155.392 318.466 155.626 317.789 156.025L299.815 166.987C298.496 167.786 298.378 168.96 299.552 169.602Z" fill="#51A969"/>
<path d="M428.844 296.417L387.986 274.033C385.478 272.665 385.73 270.152 388.548 268.433L426.958 245.008C428.405 244.156 430.031 243.655 431.707 243.547C433.382 243.438 435.059 243.725 436.604 244.383L477.467 266.766C479.975 268.134 479.723 270.647 476.904 272.366L438.494 295.791C437.046 296.644 435.419 297.145 433.743 297.253C432.067 297.362 430.389 297.075 428.844 296.417Z" fill="#9ACDA8"/>
<path d="M432.838 286.827C430.972 286.912 429.115 286.513 427.448 285.668L386.585 263.284C385.755 262.888 385.046 262.276 384.533 261.513C384.019 260.749 383.72 259.861 383.666 258.942C383.718 257.848 384.059 256.787 384.654 255.869C385.25 254.95 386.078 254.206 387.055 253.714L425.464 230.288C427.252 229.219 429.271 228.599 431.349 228.481C433.428 228.363 435.504 228.75 437.401 229.61L478.264 251.995C479.093 252.391 479.801 253.003 480.314 253.766C480.828 254.53 481.127 255.417 481.182 256.336C481.13 257.43 480.789 258.491 480.194 259.409C479.599 260.328 478.77 261.071 477.794 261.564L439.384 284.989C437.396 286.154 435.141 286.787 432.838 286.827ZM429.645 281.64C430.836 282.105 432.115 282.295 433.389 282.196C434.663 282.097 435.898 281.711 437.002 281.068L475.411 257.638C476.376 257.048 476.599 256.532 476.601 256.435C476.459 256.253 476.275 256.108 476.066 256.01L435.202 233.633C434.012 233.168 432.732 232.978 431.458 233.078C430.184 233.177 428.949 233.563 427.845 234.207L389.436 257.632C388.471 258.218 388.247 258.736 388.244 258.827C388.387 259.009 388.571 259.154 388.781 259.251L429.645 281.64Z" fill="#EEF6F0"/>
<path d="M478.547 242.1L478.222 228.162L447.027 228.87L436.099 222.884C434.554 222.226 432.876 221.94 431.201 222.048C429.526 222.157 427.9 222.658 426.452 223.51L416.528 229.563L385.303 230.271L385.637 244.606C385.643 245.153 385.81 245.687 386.115 246.14C386.421 246.594 386.852 246.949 387.356 247.16L428.219 269.544C429.763 270.201 431.441 270.487 433.116 270.378C434.791 270.27 436.417 269.769 437.864 268.917L476.273 245.493C477.899 244.5 478.663 243.246 478.547 242.1Z" fill="#51A969"/>
<path d="M431.596 222.029C429.787 222.097 428.022 222.606 426.452 223.51L416.528 229.563L385.303 230.271L385.637 244.606C385.643 245.154 385.81 245.687 386.115 246.141C386.421 246.594 386.852 246.949 387.356 247.16L428.219 269.544C429.617 270.224 431.171 270.519 432.721 270.397L431.596 222.029Z" fill="#316740"/>
<path d="M388.838 230.191L385.303 230.274L385.636 244.609C385.643 245.156 385.81 245.689 386.115 246.143C386.42 246.597 386.852 246.951 387.355 247.163L389.257 248.204L388.838 230.191Z" fill="#34473E"/>
<path d="M428.847 269.832C431.366 270.679 434.107 270.584 436.562 269.565L436.183 253.289L428.466 253.469L428.847 269.832Z" fill="#6FB883"/>
<path d="M427.886 255.26L387.028 232.876C384.52 231.508 384.772 228.996 387.591 227.275L426 203.851C427.447 202.999 429.074 202.498 430.749 202.389C432.424 202.281 434.102 202.567 435.647 203.226L476.51 225.608C479.018 226.977 478.766 229.491 475.946 231.21L437.531 254.628C436.085 255.481 434.459 255.983 432.784 256.092C431.109 256.202 429.431 255.917 427.886 255.26Z" fill="#9ACDA8"/>
<path d="M475.877 228.467L437.468 251.891C436.021 252.743 434.394 253.243 432.719 253.352C431.044 253.461 429.367 253.175 427.823 252.517L386.964 230.127C386.47 229.869 386.039 229.504 385.703 229.058C384.885 230.448 385.305 231.927 387.028 232.87L427.891 255.253C429.436 255.911 431.113 256.197 432.788 256.088C434.463 255.98 436.089 255.479 437.536 254.627L475.946 231.203C478.136 229.867 478.77 228.057 477.769 226.671C477.295 227.415 476.645 228.032 475.877 228.467Z" fill="#EEF6F0"/>
<path d="M463.802 246.122C463.785 246.689 463.634 247.244 463.363 247.741C463.091 248.239 462.706 248.666 462.239 248.987C461.346 249.526 460.613 249.123 460.589 248.082C460.606 247.515 460.757 246.961 461.028 246.463C461.3 245.966 461.685 245.539 462.152 245.219C463.039 244.677 463.778 245.082 463.802 246.122Z" fill="#34473E"/>
<path d="M468.972 242.969C468.954 243.536 468.804 244.091 468.532 244.589C468.261 245.086 467.876 245.512 467.409 245.833C466.515 246.373 465.782 245.969 465.758 244.93C465.776 244.363 465.926 243.808 466.198 243.31C466.469 242.813 466.854 242.386 467.321 242.065C468.208 241.524 468.948 241.929 468.972 242.969Z" fill="#34473E"/>
<path d="M474.141 239.817C474.124 240.384 473.973 240.939 473.702 241.436C473.43 241.934 473.045 242.36 472.578 242.681C471.685 243.22 470.952 242.817 470.927 241.776C470.945 241.209 471.095 240.655 471.367 240.157C471.639 239.66 472.024 239.233 472.491 238.913C473.371 238.372 474.117 238.776 474.141 239.817Z" fill="#34473E"/>
<path d="M429.931 240.745L410.808 230.271C409.634 229.628 409.753 228.454 411.072 227.651L429.046 216.689C429.723 216.29 430.484 216.056 431.268 216.005C432.052 215.954 432.837 216.088 433.56 216.396L452.681 226.871C453.861 227.513 453.737 228.686 452.417 229.491L434.444 240.453C433.767 240.852 433.006 241.086 432.222 241.136C431.438 241.187 430.653 241.053 429.931 240.745Z" fill="#6FB883"/>
<path d="M431.529 231.566L428.883 230.117C428.722 230.027 428.738 229.861 428.92 229.754L431.407 228.237C431.5 228.182 431.606 228.149 431.714 228.142C431.822 228.135 431.931 228.154 432.031 228.197L434.677 229.646C434.84 229.734 434.823 229.902 434.64 230.009L432.154 231.525C432.06 231.58 431.955 231.613 431.846 231.62C431.738 231.627 431.63 231.608 431.529 231.566Z" fill="#34473E"/>
<path d="M410.812 230.271L410.867 230.3C410.953 230.236 411.032 230.166 411.133 230.107L429.107 219.145C429.784 218.747 430.545 218.513 431.329 218.462C432.113 218.411 432.898 218.545 433.621 218.854L452.689 229.304C453.738 228.513 453.77 227.469 452.685 226.876L433.564 216.401C432.841 216.093 432.056 215.959 431.272 216.01C430.488 216.061 429.727 216.295 429.05 216.694L411.076 227.656C409.757 228.454 409.638 229.628 410.812 230.271Z" fill="#51A969"/>
<path d="M192.568 313.032L276.734 262.321C279.812 260.444 279.346 257.303 275.696 255.302L225.957 228.058C222.307 226.058 216.847 225.959 213.774 227.836L129.609 278.547C126.532 280.424 126.996 283.565 130.647 285.566L180.387 312.81C184.037 314.81 189.491 314.909 192.568 313.032Z" fill="#9ACDA8"/>
<path d="M187.016 302.278C184.215 302.367 181.437 301.735 178.948 300.443L129.208 273.199C126.551 271.743 124.997 269.602 124.944 267.325C124.962 266.269 125.263 265.237 125.814 264.337C126.365 263.437 127.147 262.701 128.078 262.206L212.253 211.486C216.001 209.203 222.357 209.274 226.716 211.662L276.455 238.905C279.112 240.361 280.666 242.502 280.719 244.772C280.701 245.828 280.401 246.86 279.849 247.761C279.298 248.661 278.516 249.397 277.584 249.892L193.414 300.612C191.459 301.706 189.256 302.279 187.016 302.278ZM218.719 214.413C217.293 214.397 215.887 214.742 214.63 215.416L130.456 266.136C129.872 266.492 129.521 266.899 129.528 267.221C129.539 267.687 130.126 268.47 131.41 269.173L181.149 296.417C184.052 298.006 188.674 298.137 191.043 296.691L191.053 296.684L275.217 245.975C275.8 245.619 276.152 245.211 276.145 244.888C276.134 244.423 275.547 243.64 274.264 242.936L224.523 215.693C222.726 214.785 220.73 214.345 218.719 214.413Z" fill="#EEF6F0"/>
<path d="M126.897 251.87L122.57 65.9051L195.916 44.8431L209.326 36.6657C212.404 34.7889 217.859 34.8876 221.509 36.8867L234.359 43.9279L273.719 42.9901L266.241 222.778C266.265 223.467 266.086 224.149 265.728 224.738C265.37 225.327 264.848 225.798 264.226 226.094L191.877 283.475C188.8 285.351 183.346 285.253 179.696 283.253L129.956 256.01C127.859 254.852 126.814 253.319 126.897 251.87Z" fill="#34473E"/>
<path d="M214.945 35.3224C217.227 35.3012 219.48 35.8373 221.509 36.8841L234.359 43.9253L273.719 42.9875L278.057 229.448C278.081 230.137 277.903 230.818 277.545 231.407C277.187 231.996 276.665 232.468 276.043 232.764L191.877 283.473C190.157 284.413 188.217 284.876 186.258 284.814L181.02 97.2051L214.945 35.3224Z" fill="#34473E"/>
<path d="M191.106 283.876C187.983 285.091 184.526 285.132 181.375 283.991L176.98 95.0828L186.708 94.8564L191.106 283.876Z" fill="#6FB883"/>
<path d="M187.543 97.0754L271.709 46.3647C274.787 44.4878 274.322 41.346 270.671 39.3456L220.932 12.0992C217.282 10.1001 211.822 10.0002 208.75 11.8782L124.584 62.5837C121.507 64.4606 121.971 67.6037 125.622 69.6028L175.362 96.8466C179.012 98.8535 184.466 98.9522 187.543 97.0754Z" fill="#34473E"/>
<path d="M125.54 66.1513L175.28 93.395C178.93 95.3941 184.384 95.4942 187.461 93.6174L271.629 42.9079C272.235 42.5537 272.754 42.0684 273.149 41.4875C274.261 43.1903 273.819 45.0758 271.709 46.3647L187.543 97.0755C184.466 98.9523 179.012 98.8535 175.362 96.8531L125.62 69.6081C122.784 68.0543 121.881 65.8136 123.059 64.0095C123.7 64.9149 124.551 65.65 125.54 66.1513Z" fill="#EEF6F0"/>
<path d="M184.671 77.3833L240.694 43.0841C242.134 42.2051 241.917 40.7343 240.208 39.7988L216.929 27.0503C216.053 26.5878 215.082 26.3374 214.092 26.3193C213.103 26.3011 212.123 26.5156 211.231 26.9456L155.21 61.246C153.769 62.1238 153.987 63.5946 155.694 64.5301L178.97 77.2799C179.846 77.7427 180.818 77.9932 181.808 78.0111C182.798 78.0291 183.778 77.8141 184.671 77.3833Z" fill="#081F14"/>
<path d="M214.597 45.1724L217.844 43.1931C218.043 43.0717 218.013 42.8675 217.776 42.7382L214.556 40.9742C214.435 40.9102 214.3 40.8756 214.163 40.8732C214.027 40.8707 213.891 40.9005 213.767 40.9601L210.522 42.9407C210.321 43.0621 210.352 43.265 210.588 43.3943L213.808 45.1583C213.929 45.2226 214.064 45.2574 214.201 45.2598C214.338 45.2622 214.474 45.2323 214.597 45.1724Z" fill="#34473E"/>
<path d="M203.751 51.7611L206.997 49.7818C207.196 49.6605 207.167 49.4562 206.931 49.3269L203.71 47.5629C203.589 47.499 203.454 47.4645 203.318 47.462C203.181 47.4596 203.045 47.4893 202.922 47.5488L199.674 49.5294C199.475 49.6508 199.506 49.8537 199.742 49.983L202.962 51.747C203.083 51.8113 203.218 51.846 203.355 51.8485C203.492 51.8509 203.628 51.821 203.751 51.7611Z" fill="#34473E"/>
<path d="M192.905 58.3499L196.151 56.3706C196.35 56.2492 196.319 56.045 196.083 55.9157L192.863 54.1517C192.741 54.0877 192.607 54.0531 192.47 54.0507C192.333 54.0482 192.197 54.078 192.074 54.1376L188.828 56.1182C188.629 56.2395 188.658 56.4425 188.896 56.5718L192.115 58.3358C192.236 58.4001 192.371 58.4349 192.508 58.4373C192.645 58.4397 192.781 58.4098 192.905 58.3499Z" fill="#34473E"/>
<path d="M182.057 64.9388L185.304 62.9594C185.503 62.8381 185.473 62.6339 185.237 62.5045L182.016 60.7405C181.895 60.6766 181.761 60.642 181.624 60.6395C181.487 60.6371 181.351 60.6668 181.228 60.7264L177.98 62.7071C177.781 62.8284 177.812 63.0313 178.048 63.1607L181.268 64.9247C181.39 64.9889 181.524 65.0237 181.661 65.0261C181.798 65.0286 181.934 64.9986 182.057 64.9388Z" fill="#34473E"/>
<path d="M240.694 43.084L240.628 43.1244C240.516 43.0423 240.4 42.9662 240.28 42.8965L217.001 30.148C216.125 29.6855 215.154 29.4351 214.164 29.4169C213.175 29.3988 212.195 29.6133 211.303 30.0432L155.348 64.3033C153.98 63.3689 153.872 62.0577 155.21 61.2459L211.231 26.9454C212.123 26.5155 213.103 26.301 214.092 26.3191C215.082 26.3373 216.053 26.5877 216.929 27.0502L240.208 39.7922C241.917 40.7342 242.136 42.2049 240.694 43.084Z" fill="#6FB883"/>
<path d="M166.648 134.426L133.927 116.656C132.909 115.961 132.067 115.035 131.471 113.955C130.874 112.874 130.539 111.669 130.492 110.435L130.222 98.8681C130.166 96.4404 131.612 95.2901 133.453 96.299L166.174 114.068C167.193 114.764 168.034 115.689 168.631 116.77C169.228 117.85 169.563 119.056 169.611 120.29L169.88 131.857C169.936 134.282 168.489 135.435 166.648 134.426Z" fill="#081F14"/>
<path d="M131.848 95.9875C131.562 96.3187 131.347 96.7044 131.214 97.1215C131.082 97.5385 131.036 97.9781 131.078 98.4136L131.347 109.982C131.395 111.216 131.73 112.421 132.327 113.501C132.924 114.582 133.765 115.507 134.784 116.202L167.507 133.971C167.988 134.263 168.558 134.374 169.113 134.283C168.782 134.584 168.357 134.762 167.91 134.788C167.463 134.814 167.021 134.686 166.657 134.425L133.936 116.656C132.918 115.96 132.077 115.035 131.48 113.955C130.883 112.874 130.548 111.668 130.501 110.435L130.232 98.8678C130.184 97.2193 130.848 96.1819 131.848 95.9875Z" fill="#7A8680"/>
<path d="M156.644 122.085L153.641 120.441C153.419 120.289 153.236 120.087 153.106 119.852C152.976 119.617 152.903 119.354 152.893 119.085L152.819 115.916C152.807 115.387 153.122 115.131 153.523 115.356L156.526 116.999C156.748 117.151 156.931 117.353 157.061 117.588C157.191 117.824 157.264 118.086 157.274 118.355L157.348 121.526C157.361 122.054 157.045 122.306 156.644 122.085Z" fill="#51A969"/>
<path d="M146.606 116.587L143.605 114.942C143.383 114.791 143.199 114.59 143.069 114.355C142.938 114.119 142.865 113.857 142.855 113.588L142.781 110.417C142.769 109.888 143.084 109.632 143.487 109.857L146.488 111.502C146.71 111.654 146.893 111.855 147.023 112.091C147.153 112.326 147.227 112.589 147.237 112.858L147.311 116.027C147.323 116.556 147.008 116.807 146.606 116.587Z" fill="#7A8680"/>
<path d="M168.592 218.016L135.872 200.246C134.854 199.551 134.012 198.626 133.416 197.545C132.819 196.465 132.484 195.26 132.436 194.026L132.167 182.458C132.111 180.03 133.557 178.881 135.398 179.89L168.119 197.66C169.137 198.355 169.979 199.28 170.576 200.36C171.173 201.441 171.508 202.646 171.556 203.88L171.825 215.448C171.881 217.874 170.433 219.025 168.592 218.016Z" fill="#081F14"/>
<path d="M133.792 179.579C133.507 179.91 133.292 180.295 133.159 180.712C133.027 181.129 132.981 181.568 133.023 182.004L133.292 193.572C133.339 194.806 133.675 196.011 134.272 197.092C134.869 198.172 135.71 199.098 136.729 199.793L169.452 217.563C169.934 217.853 170.503 217.964 171.058 217.874C170.726 218.175 170.302 218.353 169.855 218.378C169.408 218.404 168.966 218.276 168.602 218.015L135.881 200.246C134.863 199.551 134.022 198.625 133.425 197.545C132.828 196.465 132.493 195.26 132.446 194.026L132.177 182.458C132.129 180.811 132.792 179.773 133.792 179.579Z" fill="#7A8680"/>
<path d="M158.589 205.676L155.586 204.031C155.364 203.879 155.181 203.678 155.051 203.442C154.92 203.207 154.847 202.944 154.837 202.675L154.764 199.506C154.751 198.977 155.067 198.721 155.468 198.946L158.471 200.591C158.692 200.742 158.876 200.944 159.006 201.18C159.136 201.415 159.209 201.678 159.219 201.947L159.293 205.116C159.305 205.645 158.99 205.896 158.589 205.676Z" fill="#51A969"/>
<path d="M148.551 200.178L145.55 198.534C145.328 198.382 145.144 198.181 145.014 197.945C144.883 197.71 144.81 197.447 144.8 197.178L144.726 194.005C144.714 193.475 145.029 193.22 145.432 193.445L148.433 195.088C148.655 195.24 148.838 195.442 148.968 195.677C149.098 195.913 149.171 196.175 149.182 196.444L149.255 199.615C149.268 200.147 148.952 200.391 148.551 200.178Z" fill="#7A8680"/>
<path d="M169.565 259.811L136.844 242.042C135.826 241.346 134.984 240.421 134.388 239.341C133.791 238.26 133.456 237.054 133.409 235.821L133.139 224.254C133.083 221.826 134.529 220.677 136.37 221.685L169.091 239.454C170.11 240.15 170.951 241.075 171.548 242.156C172.145 243.236 172.48 244.442 172.528 245.676L172.797 257.244C172.853 259.67 171.406 260.82 169.565 259.811Z" fill="#081F14"/>
<path d="M134.764 221.373C134.479 221.704 134.263 222.09 134.131 222.507C133.999 222.924 133.953 223.364 133.995 223.799L134.264 235.368C134.311 236.601 134.647 237.807 135.244 238.887C135.84 239.967 136.682 240.892 137.701 241.588L170.424 259.357C170.905 259.649 171.475 259.76 172.03 259.669C171.698 259.97 171.274 260.148 170.827 260.174C170.38 260.2 169.938 260.072 169.574 259.811L136.844 242.042C135.826 241.346 134.984 240.421 134.388 239.341C133.791 238.26 133.456 237.054 133.408 235.821L133.139 224.254C133.101 222.605 133.764 221.568 134.764 221.373Z" fill="#7A8680"/>
<path d="M159.561 247.471L156.558 245.827C156.336 245.675 156.153 245.473 156.023 245.238C155.893 245.002 155.82 244.74 155.81 244.471L155.736 241.302C155.724 240.773 156.039 240.516 156.44 240.742L159.443 242.386C159.665 242.538 159.848 242.739 159.978 242.975C160.108 243.211 160.181 243.473 160.191 243.742L160.265 246.911C160.278 247.44 159.962 247.691 159.561 247.471Z" fill="#51A969"/>
<path d="M149.523 241.973L146.522 240.329C146.3 240.178 146.116 239.976 145.986 239.741C145.856 239.505 145.782 239.242 145.772 238.973L145.698 235.803C145.686 235.274 146.001 235.018 146.404 235.243L149.405 236.888C149.627 237.04 149.81 237.241 149.94 237.477C150.07 237.712 150.143 237.975 150.154 238.244L150.228 241.413C150.24 241.943 149.925 242.193 149.523 241.973Z" fill="#7A8680"/>
<path d="M167.62 176.224L134.899 158.456C133.881 157.76 133.04 156.835 132.443 155.754C131.846 154.674 131.511 153.468 131.464 152.234L131.195 140.666C131.138 138.24 132.585 137.09 134.426 138.099L167.146 155.868C168.165 156.564 169.006 157.489 169.603 158.569C170.2 159.649 170.535 160.854 170.583 162.088L170.852 173.656C170.908 176.08 169.461 177.229 167.62 176.224Z" fill="#081F14"/>
<path d="M132.819 137.783C132.534 138.114 132.318 138.5 132.186 138.917C132.054 139.334 132.008 139.774 132.05 140.209L132.319 151.776C132.366 153.01 132.702 154.216 133.299 155.296C133.895 156.377 134.737 157.302 135.756 157.998L168.479 175.767C168.961 176.058 169.53 176.168 170.085 176.078C169.753 176.379 169.328 176.557 168.882 176.583C168.435 176.608 167.993 176.48 167.629 176.22L134.908 158.45C133.89 157.755 133.048 156.83 132.452 155.75C131.855 154.669 131.52 153.464 131.473 152.23L131.203 140.662C131.156 139.015 131.819 137.978 132.819 137.783Z" fill="#7A8680"/>
<path d="M157.616 163.877L154.613 162.234C154.391 162.082 154.208 161.881 154.078 161.645C153.948 161.41 153.875 161.147 153.864 160.878L153.791 157.708C153.778 157.179 154.093 156.923 154.495 157.148L157.497 158.793C157.719 158.944 157.903 159.146 158.033 159.381C158.163 159.617 158.236 159.88 158.246 160.149L158.32 163.318C158.332 163.85 158.017 164.1 157.616 163.877Z" fill="#51A969"/>
<path d="M147.579 158.383L144.577 156.738C144.355 156.587 144.171 156.385 144.041 156.15C143.911 155.914 143.837 155.651 143.827 155.382L143.753 152.213C143.741 151.684 144.056 151.428 144.459 151.653L147.46 153.298C147.682 153.449 147.866 153.651 147.996 153.887C148.126 154.122 148.199 154.385 148.209 154.654L148.283 157.823C148.295 158.352 147.98 158.603 147.579 158.383Z" fill="#7A8680"/>
<path d="M194.339 121.934L267.831 77.1138C268.734 76.4325 269.466 75.5484 269.967 74.5325C270.468 73.5166 270.724 72.3971 270.715 71.2641L270.383 57.0336C270.332 54.8069 268.956 53.8144 267.312 54.8175L193.82 99.6385C192.916 100.319 192.184 101.203 191.683 102.219C191.182 103.235 190.926 104.354 190.935 105.487L191.266 119.717C191.318 121.944 192.694 122.937 194.339 121.934Z" fill="#6FB883"/>
<path opacity="0.4" d="M196.365 116.894L265.637 74.6478C266.096 74.3023 266.467 73.8538 266.721 73.3384C266.975 72.8231 267.105 72.2551 267.101 71.6802L266.852 60.9818C266.826 59.8516 266.128 59.3478 265.293 59.8509L196.021 102.105C195.562 102.45 195.191 102.898 194.937 103.414C194.683 103.929 194.553 104.497 194.558 105.072L194.806 115.769C194.829 116.9 195.527 117.403 196.365 116.894Z" fill="#34473E"/>
<path d="M251.071 78.0433L261.41 71.7387C261.856 71.4027 262.217 70.9665 262.464 70.4652C262.711 69.9639 262.837 69.4115 262.832 68.8525C262.806 67.756 262.128 67.2673 261.318 67.7608L250.979 74.0654C250.533 74.4014 250.172 74.8376 249.925 75.3389C249.678 75.8402 249.552 76.3926 249.557 76.9516C249.583 78.0481 250.261 78.5381 251.071 78.0433Z" fill="#34473E"/>
<path d="M242.215 81.4291C242.241 82.5269 243.02 82.9536 243.955 82.382C244.448 82.0438 244.854 81.594 245.141 81.0691C245.427 80.5441 245.586 79.9589 245.604 79.3609C245.579 78.2643 244.792 77.8378 243.863 78.408C243.37 78.7462 242.965 79.196 242.678 79.721C242.392 80.2459 242.233 80.8312 242.215 81.4291Z" fill="#081F14"/>
<path d="M236.238 85.0749C236.263 86.1715 237.042 86.5995 237.978 86.0278C238.471 85.6897 238.877 85.2398 239.163 84.7149C239.45 84.19 239.609 83.6047 239.627 83.0067C239.601 81.9089 238.815 81.4823 237.886 82.0538C237.393 82.3921 236.987 82.8419 236.701 83.3669C236.415 83.8918 236.256 84.477 236.238 85.0749Z" fill="#081F14"/>
<path d="M230.26 88.7206C230.286 89.8172 231.065 90.2439 232 89.6735C232.493 89.3353 232.899 88.8855 233.185 88.3605C233.472 87.8356 233.631 87.2504 233.649 86.6524C233.624 85.5546 232.837 85.1281 231.908 85.6983C231.415 86.0368 231.01 86.487 230.723 87.0121C230.437 87.5372 230.279 88.1226 230.26 88.7206Z" fill="#34473E"/>
<path d="M224.283 92.3651C224.309 93.4629 225.088 93.8896 226.023 93.3193C226.516 92.9809 226.922 92.531 227.208 92.0061C227.495 91.4812 227.654 90.8961 227.672 90.2982C227.647 89.2003 226.86 88.7738 225.931 89.344C225.439 89.6823 225.033 90.1322 224.746 90.6571C224.46 91.182 224.301 91.7672 224.283 92.3651Z" fill="#081F14"/>
<path d="M199.175 110.868L202.657 108.744C202.943 108.529 203.175 108.25 203.333 107.928C203.492 107.607 203.573 107.253 203.57 106.894L203.483 103.155C203.466 102.451 203.032 102.137 202.511 102.454L199.029 104.578C198.743 104.793 198.512 105.073 198.353 105.394C198.195 105.715 198.114 106.069 198.117 106.427L198.204 110.168C198.22 110.872 198.656 111.185 199.175 110.868Z" fill="#081F14"/>
<path d="M194.923 147.027L268.414 102.207C269.318 101.526 270.05 100.642 270.551 99.6266C271.051 98.6109 271.308 97.4917 271.298 96.3588L270.967 82.1323C270.916 79.9055 269.54 78.913 267.896 79.9161L194.404 124.736C193.5 125.417 192.768 126.3 192.267 127.316C191.766 128.332 191.51 129.451 191.519 130.584L191.85 144.815C191.902 147.039 193.278 148.03 194.923 147.027Z" fill="#6FB883"/>
<path opacity="0.4" d="M196.949 141.988L266.221 99.741C266.68 99.3956 267.051 98.9472 267.305 98.4318C267.56 97.9164 267.689 97.3484 267.685 96.7735L267.436 86.0751C267.41 84.9461 266.712 84.4423 265.877 84.9442L196.605 127.198C196.146 127.543 195.775 127.992 195.521 128.507C195.267 129.023 195.137 129.591 195.142 130.165L195.39 140.864C195.413 141.989 196.111 142.491 196.949 141.988Z" fill="#34473E"/>
<path d="M251.655 103.137L261.994 96.832C262.44 96.4961 262.801 96.0599 263.048 95.5586C263.295 95.0573 263.421 94.5048 263.416 93.9458C263.39 92.848 262.712 92.3593 261.902 92.8541L251.563 99.1587C251.117 99.4946 250.756 99.9307 250.509 100.432C250.262 100.933 250.136 101.486 250.141 102.045C250.167 103.143 250.845 103.631 251.655 103.137Z" fill="#34473E"/>
<path d="M242.799 106.52C242.824 107.618 243.603 108.045 244.539 107.474C245.032 107.136 245.438 106.686 245.724 106.161C246.011 105.636 246.169 105.051 246.188 104.453C246.162 103.355 245.376 102.929 244.446 103.499C243.954 103.837 243.548 104.287 243.262 104.812C242.976 105.337 242.817 105.922 242.799 106.52Z" fill="#EBEDEC"/>
<path d="M236.822 110.168C236.847 111.266 237.626 111.693 238.562 111.122C239.054 110.784 239.46 110.334 239.747 109.809C240.033 109.284 240.192 108.699 240.211 108.101C240.185 107.005 239.399 106.578 238.469 107.148C237.977 107.487 237.572 107.936 237.285 108.461C236.999 108.986 236.84 109.571 236.822 110.168Z" fill="#081F14"/>
<path d="M230.844 113.814C230.87 114.912 231.649 115.339 232.584 114.767C233.077 114.429 233.483 113.979 233.77 113.454C234.056 112.929 234.215 112.344 234.233 111.746C234.208 110.649 233.421 110.222 232.492 110.793C231.999 111.131 231.593 111.581 231.307 112.106C231.021 112.631 230.862 113.216 230.844 113.814Z" fill="#34473E"/>
<path d="M224.867 117.46C224.892 118.556 225.671 118.983 226.607 118.413C227.099 118.075 227.505 117.625 227.792 117.1C228.078 116.575 228.237 115.99 228.256 115.392C228.23 114.294 227.444 113.867 226.514 114.439C226.022 114.777 225.616 115.227 225.33 115.752C225.044 116.277 224.885 116.862 224.867 117.46Z" fill="#081F14"/>
<path d="M199.759 135.961L203.241 133.838C203.527 133.623 203.759 133.344 203.917 133.022C204.076 132.701 204.157 132.347 204.154 131.989L204.067 128.247C204.05 127.544 203.616 127.229 203.095 127.546L199.613 129.67C199.327 129.885 199.096 130.165 198.938 130.486C198.779 130.807 198.698 131.161 198.701 131.52L198.788 135.262C198.804 135.965 199.24 136.28 199.759 135.961Z" fill="#081F14"/>
<path d="M195.507 172.122L268.998 127.301C269.902 126.62 270.634 125.736 271.135 124.72C271.635 123.704 271.892 122.585 271.883 121.452L271.551 107.222C271.5 104.995 270.124 104.003 268.48 105.006L194.988 149.825C194.084 150.507 193.352 151.391 192.851 152.406C192.35 153.422 192.094 154.542 192.103 155.675L192.434 169.906C192.486 172.133 193.862 173.125 195.507 172.122Z" fill="#6FB883"/>
<path opacity="0.4" d="M197.533 167.082L266.805 124.835C267.264 124.489 267.635 124.041 267.889 123.525C268.144 123.01 268.273 122.442 268.269 121.867L268.02 111.17C267.993 110.04 267.296 109.536 266.461 110.039L197.189 152.292C196.731 152.637 196.359 153.086 196.105 153.601C195.851 154.116 195.721 154.684 195.725 155.259L195.974 165.958C195.997 167.088 196.695 167.592 197.533 167.082Z" fill="#34473E"/>
<path d="M252.239 128.231L262.578 121.927C263.024 121.591 263.385 121.155 263.632 120.653C263.879 120.152 264.005 119.6 264 119.041C263.974 117.944 263.296 117.454 262.486 117.949L252.147 124.253C251.701 124.589 251.34 125.026 251.093 125.527C250.846 126.028 250.72 126.581 250.725 127.14C250.751 128.236 251.429 128.725 252.239 128.231Z" fill="#34473E"/>
<path d="M243.383 131.617C243.409 132.714 244.188 133.141 245.123 132.57C245.616 132.232 246.022 131.782 246.309 131.257C246.595 130.732 246.754 130.147 246.772 129.549C246.747 128.451 245.96 128.025 245.031 128.596C244.538 128.934 244.133 129.384 243.846 129.909C243.56 130.434 243.401 131.019 243.383 131.617Z" fill="#97A19C"/>
<path d="M237.406 135.263C237.431 136.36 238.21 136.786 239.146 136.216C239.639 135.878 240.045 135.428 240.331 134.903C240.617 134.378 240.776 133.793 240.795 133.195C240.769 132.097 239.983 131.671 239.053 132.241C238.561 132.579 238.155 133.029 237.869 133.555C237.583 134.08 237.424 134.665 237.406 135.263Z" fill="#081F14"/>
<path d="M231.428 138.908C231.454 140.005 232.233 140.432 233.168 139.862C233.661 139.523 234.067 139.073 234.353 138.549C234.64 138.024 234.799 137.439 234.817 136.841C234.792 135.744 234.005 135.318 233.076 135.888C232.584 136.226 232.178 136.676 231.892 137.2C231.605 137.725 231.447 138.31 231.428 138.908Z" fill="#34473E"/>
<path d="M225.451 142.553C225.477 143.651 226.256 144.078 227.191 143.506C227.684 143.168 228.09 142.718 228.377 142.193C228.663 141.668 228.822 141.083 228.84 140.485C228.815 139.389 228.028 138.961 227.099 139.532C226.606 139.871 226.201 140.321 225.914 140.845C225.628 141.37 225.469 141.956 225.451 142.553Z" fill="#081F14"/>
<path d="M200.343 161.056L203.825 158.931C204.111 158.716 204.343 158.437 204.501 158.116C204.66 157.795 204.741 157.441 204.738 157.083L204.651 153.341C204.634 152.637 204.2 152.323 203.679 152.641L200.197 154.765C199.911 154.98 199.68 155.259 199.521 155.58C199.363 155.901 199.282 156.255 199.285 156.613L199.372 160.355C199.388 161.059 199.824 161.373 200.343 161.056Z" fill="#081F14"/>
<path d="M196.091 197.219L269.582 152.399C270.486 151.718 271.217 150.834 271.718 149.818C272.219 148.802 272.475 147.683 272.466 146.549L272.135 132.315C272.083 130.088 270.707 129.096 269.063 130.099L195.572 174.925C194.668 175.606 193.936 176.49 193.435 177.506C192.934 178.521 192.677 179.641 192.687 180.774L193.018 195.004C193.069 197.226 194.445 198.218 196.091 197.219Z" fill="#6FB883"/>
<path opacity="0.4" d="M198.117 192.175L267.388 149.929C267.847 149.584 268.218 149.135 268.473 148.62C268.727 148.105 268.857 147.537 268.852 146.962L268.603 136.266C268.577 135.136 267.879 134.633 267.044 135.135L197.773 177.386C197.314 177.732 196.943 178.18 196.688 178.695C196.434 179.211 196.304 179.779 196.309 180.354L196.558 191.051C196.58 192.181 197.278 192.685 198.117 192.175Z" fill="#34473E"/>
<path d="M252.823 153.325L263.162 147.02C263.608 146.684 263.969 146.248 264.215 145.747C264.462 145.245 264.588 144.693 264.583 144.134C264.558 143.037 263.88 142.549 263.069 143.042L252.73 149.348C252.284 149.684 251.923 150.12 251.676 150.621C251.429 151.123 251.303 151.675 251.309 152.234C251.334 153.331 252.012 153.82 252.823 153.325Z" fill="#34473E"/>
<path d="M243.967 156.711C243.992 157.809 244.771 158.235 245.707 157.665C246.199 157.327 246.605 156.877 246.892 156.352C247.178 155.827 247.337 155.242 247.356 154.644C247.33 153.547 246.544 153.121 245.614 153.691C245.122 154.029 244.717 154.479 244.43 155.003C244.144 155.528 243.985 156.113 243.967 156.711Z" fill="#081F14"/>
<path d="M237.989 160.356C238.015 161.453 238.794 161.881 239.729 161.309C240.222 160.971 240.628 160.521 240.915 159.996C241.201 159.471 241.36 158.886 241.378 158.288C241.353 157.192 240.566 156.764 239.637 157.335C239.144 157.674 238.739 158.123 238.452 158.648C238.166 159.173 238.007 159.758 237.989 160.356Z" fill="#081F14"/>
<path d="M232.012 164.002C232.037 165.099 232.816 165.525 233.752 164.955C234.244 164.617 234.65 164.167 234.937 163.642C235.223 163.117 235.382 162.532 235.401 161.934C235.375 160.836 234.588 160.41 233.659 160.98C233.167 161.318 232.761 161.768 232.475 162.294C232.189 162.819 232.03 163.404 232.012 164.002Z" fill="#34473E"/>
<path d="M226.035 167.647C226.06 168.744 226.839 169.171 227.775 168.601C228.267 168.263 228.673 167.813 228.96 167.288C229.246 166.763 229.405 166.178 229.424 165.58C229.398 164.482 228.612 164.055 227.682 164.626C227.19 164.964 226.784 165.414 226.498 165.939C226.212 166.464 226.053 167.049 226.035 167.647Z" fill="#081F14"/>
<path d="M200.927 186.149L204.409 184.026C204.695 183.811 204.926 183.531 205.085 183.21C205.243 182.888 205.324 182.534 205.321 182.176L205.234 178.435C205.218 177.732 204.783 177.417 204.262 177.734L200.78 179.858C200.495 180.073 200.263 180.353 200.105 180.674C199.946 180.995 199.865 181.349 199.868 181.708L199.955 185.448C199.972 186.153 200.407 186.466 200.927 186.149Z" fill="#34473E"/>
<path d="M196.674 222.309L270.166 177.489C271.07 176.808 271.801 175.924 272.302 174.908C272.803 173.892 273.059 172.773 273.05 171.64L272.719 157.41C272.667 155.183 271.291 154.191 269.647 155.194L196.156 200.013C195.252 200.694 194.52 201.578 194.019 202.594C193.517 203.61 193.261 204.729 193.27 205.862L193.601 220.092C193.653 222.319 195.029 223.31 196.674 222.309Z" fill="#6FB883"/>
<path opacity="0.4" d="M198.701 217.27L267.972 175.023C268.431 174.677 268.803 174.229 269.057 173.713C269.311 173.198 269.441 172.63 269.436 172.055L269.187 161.357C269.161 160.228 268.463 159.724 267.628 160.226L198.357 202.483C197.898 202.829 197.527 203.277 197.272 203.793C197.018 204.308 196.888 204.876 196.893 205.451L197.142 216.149C197.164 217.276 197.862 217.778 198.701 217.27Z" fill="#34473E"/>
<path d="M253.407 178.418L263.746 172.113C264.192 171.778 264.553 171.341 264.8 170.84C265.047 170.339 265.173 169.786 265.167 169.227C265.142 168.129 264.464 167.641 263.653 168.136L253.314 174.44C252.868 174.776 252.507 175.212 252.26 175.714C252.013 176.215 251.887 176.767 251.893 177.326C251.918 178.424 252.596 178.915 253.407 178.418Z" fill="#34473E"/>
<path d="M244.551 181.805C244.576 182.902 245.355 183.329 246.291 182.758C246.783 182.42 247.19 181.97 247.476 181.445C247.762 180.92 247.921 180.335 247.94 179.737C247.914 178.639 247.128 178.213 246.198 178.783C245.706 179.122 245.3 179.572 245.014 180.097C244.728 180.622 244.569 181.207 244.551 181.805Z" fill="#081F14"/>
<path d="M238.573 185.45C238.599 186.548 239.378 186.974 240.313 186.404C240.806 186.066 241.212 185.616 241.498 185.091C241.785 184.566 241.944 183.981 241.962 183.383C241.937 182.286 241.15 181.86 240.221 182.43C239.729 182.768 239.323 183.218 239.037 183.743C238.75 184.267 238.592 184.852 238.573 185.45Z" fill="#EBEDEC"/>
<path d="M232.596 189.096C232.621 190.193 233.4 190.62 234.336 190.049C234.828 189.71 235.234 189.261 235.521 188.736C235.807 188.211 235.966 187.625 235.985 187.027C235.959 185.931 235.172 185.504 234.243 186.075C233.751 186.413 233.345 186.863 233.059 187.388C232.772 187.912 232.614 188.498 232.596 189.096Z" fill="#34473E"/>
<path d="M226.619 192.748C226.644 193.844 227.423 194.271 228.359 193.701C228.851 193.362 229.257 192.913 229.544 192.388C229.83 191.863 229.989 191.278 230.008 190.68C229.982 189.582 229.195 189.155 228.266 189.727C227.774 190.065 227.368 190.515 227.082 191.04C226.795 191.565 226.637 192.15 226.619 192.748Z" fill="#EBEDEC"/>
<path d="M201.511 211.243L204.993 209.119C205.279 208.904 205.51 208.625 205.669 208.304C205.827 207.983 205.908 207.629 205.905 207.271L205.818 203.529C205.802 202.825 205.367 202.511 204.846 202.828L201.364 204.953C201.079 205.168 200.847 205.447 200.689 205.768C200.53 206.089 200.449 206.443 200.452 206.801L200.539 210.543C200.556 211.251 200.991 211.561 201.511 211.243Z" fill="#34473E"/>
<path d="M197.258 247.403L270.75 202.584C271.653 201.902 272.385 201.018 272.886 200.002C273.387 198.986 273.643 197.867 273.634 196.734L273.303 182.503C273.251 180.277 271.875 179.284 270.231 180.287L196.74 225.107C195.836 225.788 195.103 226.672 194.602 227.688C194.101 228.704 193.845 229.824 193.854 230.957L194.185 245.187C194.237 247.414 195.613 248.406 197.258 247.403Z" fill="#6FB883"/>
<path opacity="0.4" d="M199.285 242.363L268.556 200.118C269.015 199.772 269.386 199.323 269.64 198.808C269.895 198.293 270.025 197.725 270.02 197.15L269.771 186.452C269.745 185.321 269.047 184.818 268.212 185.321L198.941 227.573C198.482 227.919 198.111 228.367 197.856 228.882C197.602 229.398 197.472 229.966 197.477 230.541L197.726 241.239C197.748 242.369 198.446 242.873 199.285 242.363Z" fill="#34473E"/>
<path d="M253.991 203.513L264.33 197.208C264.776 196.872 265.137 196.436 265.383 195.935C265.63 195.433 265.756 194.881 265.751 194.322C265.726 193.226 265.048 192.736 264.237 193.23L253.898 199.535C253.452 199.871 253.091 200.307 252.844 200.808C252.597 201.31 252.472 201.862 252.477 202.421C252.502 203.518 253.18 204.006 253.991 203.513Z" fill="#34473E"/>
<path d="M245.135 206.899C245.16 207.995 245.939 208.423 246.875 207.852C247.368 207.514 247.774 207.064 248.06 206.539C248.347 206.014 248.505 205.429 248.524 204.831C248.498 203.734 247.712 203.306 246.782 203.878C246.29 204.216 245.884 204.666 245.598 205.191C245.311 205.716 245.153 206.301 245.135 206.899Z" fill="#081F14"/>
<path d="M239.157 210.545C239.183 211.641 239.962 212.068 240.897 211.498C241.39 211.159 241.796 210.709 242.082 210.185C242.369 209.66 242.528 209.074 242.546 208.476C242.521 207.379 241.734 206.952 240.805 207.522C240.313 207.861 239.907 208.311 239.62 208.836C239.334 209.361 239.176 209.947 239.157 210.545Z" fill="#081F14"/>
<path d="M233.18 214.189C233.205 215.287 233.984 215.714 234.92 215.143C235.412 214.805 235.818 214.355 236.105 213.83C236.391 213.305 236.55 212.72 236.569 212.122C236.543 211.024 235.756 210.598 234.827 211.168C234.335 211.506 233.929 211.956 233.643 212.481C233.357 213.006 233.198 213.591 233.18 214.189Z" fill="#34473E"/>
<path d="M227.203 217.835C227.228 218.933 228.007 219.359 228.943 218.789C229.435 218.451 229.841 218.001 230.128 217.476C230.414 216.951 230.573 216.366 230.592 215.768C230.566 214.671 229.779 214.245 228.85 214.815C228.358 215.153 227.952 215.603 227.666 216.128C227.38 216.652 227.221 217.237 227.203 217.835Z" fill="#081F14"/>
<path d="M202.095 236.338L205.577 234.214C205.863 233.999 206.094 233.719 206.252 233.398C206.411 233.077 206.492 232.723 206.489 232.364L206.402 228.622C206.386 227.918 205.951 227.606 205.43 227.922L201.948 230.046C201.663 230.261 201.431 230.541 201.273 230.862C201.114 231.183 201.033 231.536 201.036 231.895L201.123 235.637C201.139 236.34 201.575 236.654 202.095 236.338Z" fill="#081F14"/>
<path d="M197.842 272.497L271.334 227.677C272.238 226.996 272.969 226.112 273.47 225.096C273.971 224.08 274.227 222.96 274.218 221.827L273.887 207.599C273.835 205.371 272.459 204.379 270.815 205.383L197.324 250.203C196.42 250.884 195.688 251.768 195.187 252.783C194.685 253.799 194.429 254.918 194.438 256.051L194.769 270.282C194.821 272.507 196.197 273.5 197.842 272.497Z" fill="#6FB883"/>
<path opacity="0.4" d="M199.869 267.457L269.137 225.217C269.596 224.872 269.967 224.423 270.221 223.908C270.475 223.393 270.605 222.825 270.601 222.25L270.352 211.551C270.326 210.421 269.628 209.919 268.793 210.421L199.525 252.668C199.066 253.013 198.695 253.462 198.441 253.977C198.186 254.492 198.057 255.06 198.061 255.635L198.31 266.332C198.333 267.463 199.03 267.966 199.869 267.457Z" fill="#34473E"/>
<path d="M254.575 228.606L264.914 222.302C265.36 221.966 265.72 221.529 265.967 221.028C266.214 220.527 266.34 219.975 266.335 219.416C266.31 218.319 265.632 217.83 264.821 218.324L254.482 224.628C254.036 224.965 253.676 225.401 253.429 225.902C253.182 226.403 253.056 226.956 253.061 227.515C253.086 228.612 253.764 229.101 254.575 228.606Z" fill="#34473E"/>
<path d="M243.836 233.395C243.884 235.469 245.355 236.274 247.123 235.197C248.053 234.558 248.82 233.708 249.361 232.717C249.902 231.726 250.202 230.621 250.237 229.492C250.189 227.418 248.716 226.613 246.948 227.691C246.018 228.329 245.252 229.179 244.711 230.17C244.17 231.161 243.87 232.266 243.836 233.395Z" fill="#97A19C"/>
<path d="M231.457 241.044C231.482 242.141 232.261 242.569 233.197 241.997C233.689 241.659 234.095 241.209 234.382 240.684C234.668 240.159 234.827 239.574 234.845 238.976C234.82 237.879 234.033 237.452 233.104 238.023C232.612 238.361 232.206 238.811 231.919 239.336C231.633 239.861 231.475 240.446 231.457 241.044Z" fill="#081F14"/>
<path d="M225.479 244.69C225.505 245.786 226.284 246.213 227.219 245.643C227.712 245.305 228.118 244.855 228.404 244.33C228.691 243.805 228.85 243.22 228.868 242.622C228.842 241.524 228.056 241.097 227.127 241.667C226.634 242.006 226.228 242.456 225.942 242.981C225.656 243.506 225.497 244.092 225.479 244.69Z" fill="#34473E"/>
<path d="M219.502 248.334C219.528 249.432 220.306 249.859 221.242 249.289C221.735 248.95 222.141 248.5 222.427 247.976C222.714 247.451 222.873 246.865 222.891 246.267C222.865 245.17 222.079 244.743 221.15 245.313C220.657 245.652 220.252 246.102 219.965 246.627C219.679 247.151 219.52 247.737 219.502 248.334Z" fill="#081F14"/>
<path d="M202.679 261.431L206.161 259.308C206.447 259.092 206.678 258.813 206.837 258.492C206.995 258.17 207.076 257.816 207.073 257.458L206.986 253.717C206.97 253.013 206.535 252.699 206.014 253.016L202.532 255.14C202.247 255.355 202.016 255.635 201.857 255.956C201.699 256.277 201.617 256.631 201.62 256.989L201.707 260.73C201.723 261.435 202.159 261.748 202.679 261.431Z" fill="#34473E"/>
<path d="M187.464 93.6858L271.631 42.9751C274.708 41.0983 274.243 37.9551 270.592 35.956L220.854 8.71225C217.203 6.71314 211.743 6.61322 208.671 8.48992L124.506 59.1994C121.428 61.0762 121.893 64.2193 125.543 66.2184L175.283 93.4622C178.934 95.4626 184.387 95.5588 187.464 93.6858Z" fill="#9ACDA8"/>
<path d="M222.388 37.901C221.694 37.5686 220.932 37.4048 220.163 37.4226C219.395 37.4405 218.641 37.6397 217.963 38.004L176.746 63.2024C176.481 63.2991 176.253 63.4766 176.094 63.7099C175.935 63.9432 175.853 64.2206 175.86 64.503C175.866 64.7854 175.961 65.0586 176.131 65.2843C176.3 65.5099 176.536 65.6767 176.805 65.761C177.499 66.0939 178.261 66.2582 179.03 66.2403C179.798 66.2224 180.552 66.0229 181.229 65.6581L222.448 40.4648C222.715 40.3692 222.945 40.1918 223.105 39.9578C223.266 39.7239 223.348 39.4452 223.342 39.1614C223.335 38.8776 223.239 38.6031 223.068 38.3769C222.897 38.1506 222.659 37.9841 222.388 37.901Z" fill="#081F14"/>
<path d="M300.009 371.661L384.175 320.95C387.252 319.073 386.787 315.93 383.137 313.931L333.398 286.687C329.747 284.687 324.287 284.588 321.215 286.465L237.049 337.175C233.971 339.052 234.437 342.194 238.087 344.194L287.826 371.438C291.476 373.437 296.931 373.537 300.009 371.661Z" fill="#9ACDA8"/>
<path d="M294.459 360.905C291.657 360.994 288.879 360.362 286.39 359.07L236.65 331.826C233.994 330.371 232.439 328.229 232.387 325.952C232.404 324.896 232.704 323.863 233.255 322.962C233.806 322.062 234.589 321.325 235.52 320.83L319.696 270.11C323.444 267.828 329.801 267.9 334.157 270.293L383.897 297.536C386.554 298.992 388.108 301.132 388.161 303.409C388.143 304.466 387.843 305.498 387.292 306.398C386.741 307.299 385.958 308.035 385.027 308.529L300.855 359.249C298.899 360.34 296.697 360.91 294.459 360.905ZM326.16 273.041C324.735 273.025 323.328 273.37 322.072 274.044L237.896 324.764C237.312 325.12 236.963 325.528 236.971 325.85C236.981 326.315 237.567 327.1 238.852 327.803L288.59 355.046C291.493 356.636 296.118 356.767 298.483 355.323L298.493 355.317L382.66 304.606C383.243 304.25 383.592 303.842 383.584 303.52C383.574 303.056 382.988 302.272 381.703 301.567L331.963 274.324C330.167 273.415 328.171 272.974 326.16 273.041Z" fill="#EEF6F0"/>
<path d="M234.338 310.496L230.011 124.532L303.357 103.465L316.767 95.2879C319.845 93.411 325.299 93.5098 328.95 95.5102L341.8 102.55L381.16 101.612L373.681 281.4C373.705 282.089 373.527 282.77 373.169 283.359C372.811 283.948 372.289 284.42 371.667 284.715L299.318 342.095C296.241 343.974 290.786 343.874 287.136 341.874L237.397 314.631C235.294 313.481 234.255 311.947 234.338 310.496Z" fill="#34473E"/>
<path d="M322.385 93.9471C324.668 93.9262 326.921 94.4627 328.95 95.5101L341.8 102.55L381.16 101.612L385.498 288.075C385.522 288.764 385.344 289.445 384.986 290.034C384.628 290.623 384.106 291.095 383.485 291.391L299.321 342.1C297.6 343.04 295.66 343.503 293.702 343.441L288.456 155.834L322.385 93.9471Z" fill="#34473E"/>
<path d="M298.547 342.504C295.424 343.718 291.967 343.759 288.815 342.619L284.42 153.709L294.149 153.482L298.547 342.504Z" fill="#6FB883"/>
<path d="M294.984 155.703L379.151 104.993C382.228 103.115 381.763 99.9732 378.112 97.9741L328.368 70.7291C324.718 68.7287 319.258 68.6301 316.186 70.5068L232.024 121.217C228.947 123.094 229.412 126.236 233.063 128.236L282.802 155.48C286.452 157.481 291.907 157.579 294.984 155.703Z" fill="#9ACDA8"/>
<path d="M232.982 124.775L282.721 152.018C286.372 154.017 291.832 154.117 294.904 152.241L379.07 101.534C379.676 101.181 380.196 100.696 380.591 100.115C381.703 101.816 381.26 103.703 379.151 104.992L294.984 155.701C291.907 157.579 286.452 157.479 282.802 155.48L233.063 128.237C230.225 126.683 229.323 124.441 230.5 122.637C231.142 123.541 231.994 124.274 232.982 124.775Z" fill="#EEF6F0"/>
<path d="M292.112 136.012L348.135 101.711C349.575 100.832 349.358 99.3628 347.65 98.426L324.374 85.6774C323.498 85.2152 322.527 84.965 321.537 84.9468C320.548 84.9286 319.568 85.143 318.676 85.5727L262.65 119.873C261.21 120.751 261.427 122.222 263.135 123.159L286.411 135.907C287.287 136.37 288.259 136.62 289.249 136.638C290.239 136.657 291.219 136.442 292.112 136.012Z" fill="#142A20"/>
<path d="M322.039 103.801L325.284 101.82C325.484 101.699 325.454 101.495 325.218 101.367L321.998 99.6025C321.877 99.5381 321.742 99.5031 321.605 99.5004C321.468 99.4977 321.333 99.5275 321.209 99.5872L317.962 101.568C317.763 101.689 317.793 101.892 318.029 102.021L321.25 103.785C321.371 103.849 321.505 103.884 321.642 103.887C321.779 103.89 321.915 103.86 322.039 103.801Z" fill="#506058"/>
<path d="M311.192 110.389L314.438 108.409C314.637 108.288 314.608 108.085 314.371 107.954L311.15 106.191C311.029 106.127 310.895 106.092 310.758 106.089C310.621 106.087 310.485 106.116 310.362 106.176L307.116 108.156C306.917 108.278 306.946 108.481 307.183 108.61L310.404 110.374C310.525 110.438 310.659 110.473 310.796 110.476C310.933 110.478 311.069 110.449 311.192 110.389Z" fill="#506058"/>
<path d="M300.345 116.982L303.592 115.001C303.791 114.88 303.761 114.677 303.525 114.547L300.304 112.782C300.183 112.719 300.049 112.684 299.912 112.682C299.775 112.679 299.639 112.709 299.516 112.768L296.269 114.749C296.069 114.87 296.1 115.073 296.336 115.203L299.556 116.967C299.678 117.031 299.812 117.065 299.949 117.068C300.086 117.071 300.222 117.041 300.345 116.982Z" fill="#506058"/>
<path d="M289.498 123.567L292.744 121.586C292.943 121.465 292.914 121.262 292.678 121.131L289.458 119.369C289.337 119.304 289.202 119.269 289.065 119.267C288.928 119.264 288.793 119.294 288.669 119.353L285.422 121.334C285.223 121.455 285.253 121.658 285.489 121.788L288.71 123.552C288.831 123.616 288.965 123.65 289.102 123.653C289.239 123.656 289.375 123.626 289.498 123.567Z" fill="#506058"/>
<path d="M348.135 101.711L348.069 101.752C347.956 101.675 347.852 101.595 347.722 101.524L324.446 88.7751C323.571 88.3129 322.599 88.0627 321.609 88.0445C320.62 88.0263 319.64 88.2407 318.748 88.6704L262.786 122.931C261.418 121.998 261.317 120.685 262.647 119.873L318.671 85.5727C319.563 85.143 320.543 84.9287 321.532 84.9468C322.522 84.965 323.493 85.2152 324.369 85.6774L347.654 98.4258C349.358 99.3627 349.575 100.832 348.135 101.711Z" fill="#6FB883"/>
<path d="M274.088 193.053L241.368 175.286C240.349 174.59 239.508 173.665 238.911 172.585C238.314 171.504 237.978 170.299 237.931 169.065L237.662 157.498C237.605 155.07 239.053 153.921 240.894 154.929L273.615 172.698C274.633 173.394 275.474 174.319 276.071 175.4C276.668 176.48 277.003 177.686 277.05 178.92L277.319 190.488C277.376 192.912 275.929 194.064 274.088 193.053Z" fill="#081F14"/>
<path d="M239.288 154.615C239.002 154.946 238.787 155.331 238.655 155.749C238.522 156.166 238.476 156.605 238.519 157.041L238.788 168.609C238.835 169.843 239.17 171.048 239.767 172.128C240.364 173.209 241.205 174.134 242.223 174.829L274.944 192.599C275.425 192.891 275.995 193.001 276.55 192.91C276.218 193.211 275.794 193.389 275.347 193.415C274.9 193.441 274.458 193.313 274.093 193.053L241.368 175.286C240.349 174.59 239.508 173.665 238.911 172.585C238.314 171.504 237.978 170.299 237.931 169.065L237.662 157.498C237.623 155.847 238.284 154.809 239.288 154.615Z" fill="#7A8680"/>
<path d="M264.084 180.713L261.082 179.068C260.86 178.916 260.677 178.715 260.547 178.479C260.417 178.244 260.344 177.981 260.334 177.712L260.26 174.543C260.248 174.014 260.563 173.758 260.964 173.983L263.965 175.628C264.188 175.779 264.372 175.981 264.502 176.216C264.632 176.452 264.705 176.715 264.715 176.984L264.789 180.153C264.801 180.682 264.486 180.933 264.084 180.713Z" fill="#51A969"/>
<path d="M254.047 175.214L251.045 173.571C250.823 173.419 250.64 173.217 250.509 172.982C250.379 172.746 250.306 172.484 250.296 172.215L250.222 169.044C250.21 168.516 250.525 168.259 250.926 168.485L253.929 170.129C254.151 170.281 254.334 170.483 254.464 170.718C254.594 170.954 254.667 171.216 254.678 171.485L254.751 174.654C254.764 175.184 254.449 175.434 254.047 175.214Z" fill="#7A8680"/>
<path d="M276.033 276.643L243.313 258.875C242.294 258.179 241.453 257.254 240.856 256.173C240.259 255.093 239.923 253.887 239.876 252.653L239.607 241.085C239.55 238.659 240.998 237.509 242.839 238.518L275.56 256.287C276.578 256.983 277.419 257.908 278.016 258.988C278.612 260.068 278.948 261.273 278.995 262.507L279.264 274.075C279.321 276.503 277.874 277.652 276.033 276.643Z" fill="#081F14"/>
<path d="M241.233 238.206C240.947 238.537 240.732 238.923 240.6 239.34C240.467 239.757 240.421 240.197 240.464 240.632L240.733 252.204C240.78 253.438 241.115 254.644 241.712 255.724C242.309 256.805 243.15 257.73 244.168 258.426L276.889 276.195C277.371 276.486 277.94 276.596 278.495 276.507C278.163 276.807 277.738 276.985 277.292 277.011C276.845 277.036 276.403 276.908 276.039 276.648L243.318 258.879C242.299 258.183 241.458 257.258 240.861 256.178C240.264 255.098 239.929 253.892 239.881 252.659L239.612 241.09C239.568 239.438 240.229 238.401 241.233 238.206Z" fill="#7A8680"/>
<path d="M266.029 264.303L263.027 262.659C262.805 262.508 262.622 262.306 262.492 262.071C262.362 261.835 262.289 261.572 262.278 261.303L262.205 258.133C262.192 257.604 262.507 257.348 262.909 257.573L265.91 259.218C266.132 259.369 266.316 259.571 266.446 259.806C266.577 260.042 266.65 260.305 266.66 260.574L266.734 263.743C266.746 264.272 266.431 264.523 266.029 264.303Z" fill="#51A969"/>
<path d="M255.992 258.805L252.99 257.161C252.768 257.009 252.584 256.807 252.454 256.572C252.324 256.337 252.251 256.074 252.241 255.805L252.167 252.636C252.155 252.107 252.47 251.851 252.871 252.076L255.874 253.719C256.096 253.871 256.279 254.073 256.409 254.309C256.539 254.544 256.612 254.807 256.623 255.077L256.696 258.246C256.709 258.774 256.393 259.024 255.992 258.805Z" fill="#7A8680"/>
<path d="M277.006 318.439L244.285 300.669C243.267 299.974 242.425 299.048 241.828 297.968C241.232 296.887 240.896 295.682 240.848 294.448L240.579 282.881C240.523 280.453 241.971 279.304 243.812 280.313L276.532 298.081C277.551 298.777 278.392 299.702 278.988 300.783C279.585 301.863 279.921 303.069 279.968 304.303L280.237 315.868C280.293 318.297 278.847 319.448 277.006 318.439Z" fill="#081F14"/>
<path d="M242.206 280C241.92 280.331 241.704 280.717 241.572 281.134C241.44 281.551 241.394 281.991 241.436 282.426L241.705 293.995C241.753 295.228 242.088 296.434 242.685 297.514C243.282 298.595 244.123 299.52 245.141 300.216L277.862 317.984C278.343 318.276 278.912 318.387 279.468 318.296C279.136 318.597 278.711 318.775 278.265 318.801C277.818 318.827 277.375 318.699 277.011 318.438L244.291 300.669C243.272 299.973 242.431 299.048 241.834 297.968C241.237 296.887 240.901 295.681 240.854 294.448L240.585 282.881C240.541 281.232 241.202 280.195 242.206 280Z" fill="#7A8680"/>
<path d="M267.001 306.098L263.999 304.454C263.777 304.302 263.594 304.1 263.464 303.865C263.334 303.629 263.261 303.367 263.251 303.098L263.177 299.925C263.165 299.396 263.48 299.14 263.881 299.365L266.882 301.01C267.105 301.161 267.288 301.363 267.419 301.598C267.549 301.834 267.622 302.097 267.632 302.366L267.706 305.535C267.718 306.067 267.403 306.319 267.001 306.098Z" fill="#51A969"/>
<path d="M256.965 300.6L253.962 298.957C253.74 298.805 253.557 298.603 253.427 298.368C253.297 298.132 253.224 297.869 253.213 297.601L253.14 294.43C253.127 293.901 253.442 293.645 253.844 293.87L256.847 295.515C257.068 295.667 257.252 295.868 257.382 296.104C257.512 296.339 257.585 296.602 257.595 296.871L257.669 300.041C257.681 300.571 257.366 300.82 256.965 300.6Z" fill="#7A8680"/>
<path d="M275.061 234.849L242.34 217.079C241.322 216.384 240.48 215.458 239.884 214.378C239.287 213.297 238.951 212.092 238.904 210.858L238.635 199.29C238.578 196.863 240.026 195.713 241.867 196.722L274.587 214.491C275.606 215.187 276.447 216.112 277.044 217.193C277.64 218.273 277.976 219.479 278.023 220.713L278.292 232.28C278.348 234.707 276.902 235.856 275.061 234.849Z" fill="#081F14"/>
<path d="M240.261 196.41C239.975 196.741 239.76 197.127 239.627 197.544C239.495 197.961 239.449 198.401 239.491 198.837L239.761 210.405C239.808 211.638 240.143 212.844 240.74 213.924C241.337 215.004 242.178 215.929 243.196 216.625L275.917 234.397C276.398 234.688 276.967 234.799 277.523 234.708C277.191 235.009 276.767 235.188 276.32 235.214C275.873 235.24 275.431 235.112 275.066 234.851L242.346 217.082C241.327 216.386 240.486 215.461 239.889 214.38C239.292 213.3 238.956 212.094 238.909 210.86L238.64 199.29C238.596 197.642 239.257 196.604 240.261 196.41Z" fill="#7A8680"/>
<path d="M265.056 222.508L262.055 220.864C261.833 220.712 261.65 220.51 261.52 220.275C261.39 220.039 261.317 219.777 261.306 219.508L261.232 216.339C261.22 215.808 261.535 215.553 261.937 215.779L264.938 217.422C265.16 217.574 265.344 217.775 265.474 218.011C265.604 218.246 265.678 218.509 265.688 218.778L265.762 221.948C265.774 222.477 265.459 222.727 265.056 222.508Z" fill="#51A969"/>
<path d="M255.02 217.01L252.017 215.365C251.795 215.214 251.612 215.012 251.482 214.777C251.352 214.541 251.279 214.278 251.269 214.009L251.195 210.84C251.183 210.311 251.498 210.055 251.899 210.28L254.902 211.925C255.124 212.077 255.307 212.278 255.437 212.514C255.567 212.749 255.64 213.012 255.65 213.281L255.724 216.451C255.736 216.979 255.421 217.23 255.02 217.01Z" fill="#7A8680"/>
<path d="M301.779 180.561L375.271 135.741C376.175 135.06 376.907 134.176 377.408 133.161C377.909 132.145 378.165 131.025 378.156 129.892L377.825 115.662C377.773 113.434 376.397 112.443 374.752 113.446L301.26 158.266C300.357 158.947 299.625 159.831 299.124 160.846C298.623 161.862 298.367 162.981 298.376 164.114L298.707 178.345C298.759 180.571 300.138 181.564 301.779 180.561Z" fill="#6FB883"/>
<path opacity="0.4" d="M303.802 175.519L373.075 133.273C373.533 132.928 373.904 132.479 374.158 131.964C374.412 131.448 374.542 130.881 374.537 130.306L374.288 119.607C374.262 118.477 373.564 117.975 372.731 118.483L303.458 160.73C302.999 161.076 302.628 161.524 302.373 162.04C302.119 162.555 301.989 163.123 301.994 163.698L302.243 174.396C302.269 175.526 302.967 176.03 303.802 175.519Z" fill="#34473E"/>
<path d="M358.511 136.67L368.85 130.366C369.296 130.03 369.657 129.593 369.904 129.092C370.15 128.591 370.276 128.038 370.271 127.48C370.245 126.382 369.568 125.893 368.758 126.387L358.419 132.692C357.973 133.028 357.612 133.465 357.365 133.966C357.119 134.467 356.993 135.02 356.999 135.579C357.024 136.673 357.701 137.165 358.511 136.67Z" fill="#34473E"/>
<path d="M349.658 140.056C349.684 141.154 350.47 141.581 351.4 141.01C351.892 140.672 352.298 140.222 352.584 139.697C352.87 139.172 353.029 138.587 353.047 137.989C353.022 136.893 352.243 136.466 351.307 137.036C350.815 137.375 350.409 137.824 350.122 138.349C349.836 138.873 349.677 139.458 349.658 140.056Z" fill="#081F14"/>
<path d="M343.678 143.702C343.703 144.8 344.49 145.226 345.419 144.655C345.912 144.317 346.318 143.867 346.604 143.342C346.89 142.817 347.049 142.232 347.067 141.634C347.041 140.537 346.262 140.111 345.327 140.681C344.834 141.019 344.428 141.469 344.142 141.994C343.855 142.519 343.696 143.104 343.678 143.702Z" fill="#081F14"/>
<path d="M337.701 147.348C337.726 148.444 338.513 148.871 339.442 148.301C339.935 147.963 340.341 147.513 340.627 146.988C340.913 146.463 341.072 145.878 341.09 145.28C341.064 144.182 340.285 143.755 339.35 144.325C338.857 144.664 338.451 145.114 338.165 145.639C337.878 146.164 337.719 146.75 337.701 147.348Z" fill="#34473E"/>
<path d="M331.723 150.994C331.749 152.09 332.535 152.517 333.465 151.946C333.957 151.608 334.363 151.158 334.649 150.633C334.935 150.108 335.094 149.523 335.112 148.925C335.087 147.828 334.308 147.401 333.372 147.971C332.88 148.31 332.474 148.76 332.187 149.285C331.901 149.81 331.742 150.395 331.723 150.994Z" fill="#081F14"/>
<path d="M306.617 169.488L310.099 167.365C310.385 167.149 310.616 166.87 310.774 166.549C310.933 166.227 311.014 165.873 311.011 165.515L310.924 161.774C310.908 161.071 310.472 160.757 309.952 161.073L306.47 163.197C306.184 163.412 305.953 163.692 305.795 164.013C305.636 164.334 305.555 164.688 305.558 165.047L305.645 168.787C305.662 169.499 306.096 169.812 306.617 169.488Z" fill="#081F14"/>
<path d="M302.363 205.654L375.854 160.834C376.758 160.154 377.49 159.27 377.991 158.254C378.492 157.238 378.749 156.119 378.739 154.986L378.408 140.756C378.357 138.529 376.981 137.536 375.335 138.539L301.844 183.359C300.94 184.04 300.208 184.925 299.708 185.94C299.207 186.956 298.951 188.076 298.96 189.209L299.291 203.438C299.343 205.666 300.721 206.657 302.363 205.654Z" fill="#6FB883"/>
<path opacity="0.4" d="M304.385 200.616L373.658 158.368C374.117 158.023 374.488 157.574 374.742 157.059C374.996 156.543 375.125 155.976 375.121 155.401L374.872 144.704C374.846 143.574 374.148 143.07 373.314 143.573L304.041 185.819C303.582 186.164 303.211 186.613 302.957 187.128C302.703 187.643 302.573 188.211 302.577 188.786L302.826 199.485C302.853 200.621 303.551 201.124 304.385 200.616Z" fill="#34473E"/>
<path d="M359.095 161.765L369.434 155.459C369.88 155.123 370.241 154.687 370.487 154.186C370.734 153.684 370.86 153.132 370.854 152.573C370.828 151.475 370.152 150.987 369.341 151.481L359.002 157.786C358.557 158.122 358.196 158.558 357.949 159.06C357.702 159.561 357.577 160.113 357.582 160.672C357.608 161.77 358.284 162.259 359.095 161.765Z" fill="#34473E"/>
<path d="M350.241 165.151C350.267 166.248 351.054 166.674 351.983 166.104C352.475 165.766 352.881 165.316 353.167 164.791C353.453 164.266 353.612 163.681 353.63 163.083C353.605 161.985 352.826 161.558 351.89 162.129C351.398 162.467 350.992 162.917 350.705 163.442C350.419 163.968 350.26 164.553 350.241 165.151Z" fill="#EBEDEC"/>
<path d="M344.261 168.796C344.287 169.893 345.074 170.32 346.003 169.75C346.495 169.411 346.901 168.961 347.187 168.436C347.473 167.912 347.632 167.326 347.65 166.729C347.625 165.631 346.846 165.204 345.91 165.774C345.418 166.113 345.012 166.562 344.725 167.087C344.439 167.612 344.28 168.198 344.261 168.796Z" fill="#081F14"/>
<path d="M338.284 172.441C338.31 173.539 339.096 173.966 340.026 173.395C340.518 173.057 340.924 172.607 341.21 172.082C341.496 171.557 341.655 170.972 341.673 170.374C341.648 169.278 340.869 168.851 339.933 169.421C339.441 169.76 339.035 170.209 338.748 170.734C338.462 171.259 338.303 171.843 338.284 172.441Z" fill="#34473E"/>
<path d="M332.307 176.087C332.332 177.184 333.119 177.61 334.048 177.04C334.541 176.702 334.947 176.252 335.233 175.727C335.519 175.202 335.678 174.617 335.696 174.019C335.67 172.922 334.891 172.494 333.956 173.066C333.463 173.404 333.057 173.854 332.77 174.379C332.484 174.904 332.325 175.489 332.307 176.087Z" fill="#081F14"/>
<path d="M307.2 194.59L310.682 192.465C310.968 192.25 311.199 191.97 311.358 191.649C311.516 191.328 311.597 190.975 311.595 190.616L311.507 186.874C311.491 186.171 311.055 185.857 310.536 186.175L307.054 188.298C306.768 188.513 306.536 188.793 306.378 189.114C306.219 189.435 306.138 189.789 306.141 190.147L306.229 193.889C306.245 194.593 306.679 194.905 307.2 194.59Z" fill="#081F14"/>
<path d="M302.947 230.749L376.438 185.929C377.342 185.248 378.074 184.364 378.575 183.348C379.077 182.332 379.333 181.212 379.323 180.079L378.992 165.849C378.941 163.622 377.565 162.63 375.919 163.633L302.428 208.452C301.524 209.134 300.793 210.018 300.292 211.034C299.791 212.05 299.535 213.169 299.544 214.302L299.875 228.533C299.927 230.759 301.305 231.752 302.947 230.749Z" fill="#6FB883"/>
<path opacity="0.4" d="M304.969 225.709L374.242 183.463C374.7 183.117 375.071 182.668 375.325 182.153C375.579 181.638 375.709 181.07 375.705 180.495L375.456 169.797C375.43 168.667 374.732 168.163 373.898 168.666L304.625 210.912C304.167 211.258 303.795 211.706 303.541 212.221C303.287 212.737 303.157 213.305 303.161 213.88L303.41 224.578C303.437 225.716 304.135 226.219 304.969 225.709Z" fill="#34473E"/>
<path d="M359.679 186.859L370.018 180.554C370.464 180.218 370.824 179.782 371.071 179.28C371.318 178.779 371.443 178.227 371.438 177.668C371.412 176.571 370.736 176.083 369.925 176.576L359.586 182.881C359.141 183.217 358.78 183.653 358.533 184.154C358.286 184.656 358.161 185.208 358.166 185.767C358.192 186.863 358.868 187.352 359.679 186.859Z" fill="#34473E"/>
<path d="M350.826 190.247C350.851 191.345 351.638 191.771 352.567 191.2C353.06 190.862 353.465 190.412 353.752 189.887C354.038 189.362 354.197 188.777 354.215 188.179C354.189 187.082 353.41 186.656 352.475 187.226C351.982 187.564 351.576 188.014 351.289 188.539C351.003 189.064 350.844 189.649 350.826 190.247Z" fill="#EBEDEC"/>
<path d="M344.845 193.888C344.871 194.984 345.657 195.411 346.587 194.841C347.079 194.502 347.485 194.052 347.771 193.527C348.057 193.003 348.216 192.417 348.234 191.819C348.209 190.722 347.43 190.295 346.494 190.867C346.002 191.205 345.595 191.655 345.309 192.179C345.022 192.704 344.864 193.29 344.845 193.888Z" fill="#081F14"/>
<path d="M338.868 197.536C338.894 198.632 339.68 199.059 340.61 198.489C341.102 198.15 341.508 197.701 341.794 197.176C342.08 196.651 342.239 196.065 342.257 195.468C342.232 194.37 341.453 193.943 340.517 194.513C340.025 194.852 339.619 195.302 339.332 195.827C339.046 196.352 338.887 196.938 338.868 197.536Z" fill="#34473E"/>
<path d="M332.891 201.18C332.916 202.278 333.703 202.705 334.632 202.134C335.124 201.796 335.53 201.346 335.816 200.821C336.102 200.296 336.261 199.711 336.28 199.113C336.254 198.017 335.475 197.59 334.54 198.16C334.047 198.499 333.641 198.948 333.355 199.473C333.068 199.998 332.909 200.582 332.891 201.18Z" fill="#081F14"/>
<path d="M307.784 219.683L311.266 217.559C311.552 217.344 311.783 217.064 311.942 216.743C312.1 216.422 312.181 216.068 312.178 215.71L312.091 211.969C312.075 211.264 311.639 210.951 311.12 211.268L307.638 213.391C307.352 213.607 307.12 213.886 306.962 214.207C306.803 214.529 306.722 214.883 306.725 215.241L306.813 218.982C306.829 219.686 307.263 220 307.784 219.683Z" fill="#081F14"/>
<path d="M303.531 255.842L377.022 211.023C377.926 210.342 378.658 209.458 379.159 208.442C379.66 207.427 379.917 206.307 379.907 205.174L379.576 190.944C379.524 188.716 378.149 187.724 376.503 188.728L303.012 233.547C302.108 234.228 301.377 235.112 300.876 236.128C300.375 237.144 300.119 238.263 300.128 239.396L300.459 253.626C300.511 255.853 301.889 256.845 303.531 255.842Z" fill="#6FB883"/>
<path opacity="0.4" d="M305.553 250.804L374.826 208.557C375.285 208.211 375.656 207.762 375.91 207.247C376.164 206.732 376.293 206.164 376.289 205.589L376.04 194.891C376.013 193.76 375.316 193.258 374.482 193.76L305.209 236.007C304.75 236.352 304.379 236.801 304.125 237.316C303.87 237.832 303.741 238.4 303.745 238.975L303.994 249.673C304.021 250.808 304.718 251.312 305.553 250.804Z" fill="#34473E"/>
<path d="M360.263 211.952L370.602 205.647C371.048 205.312 371.409 204.875 371.655 204.374C371.902 203.873 372.028 203.32 372.022 202.761C371.996 201.663 371.32 201.175 370.509 201.67L360.17 207.974C359.724 208.31 359.364 208.746 359.117 209.248C358.87 209.749 358.745 210.301 358.75 210.86C358.776 211.958 359.452 212.447 360.263 211.952Z" fill="#34473E"/>
<path d="M351.409 215.338C351.435 216.436 352.221 216.862 353.151 216.292C353.643 215.954 354.049 215.504 354.335 214.979C354.621 214.454 354.78 213.869 354.798 213.271C354.773 212.173 353.994 211.747 353.058 212.317C352.566 212.655 352.16 213.105 351.873 213.63C351.587 214.155 351.428 214.74 351.409 215.338Z" fill="#081F14"/>
<path d="M345.429 218.984C345.455 220.082 346.241 220.508 347.171 219.937C347.663 219.598 348.069 219.149 348.355 218.624C348.642 218.099 348.8 217.513 348.818 216.916C348.793 215.819 348.014 215.392 347.078 215.963C346.586 216.301 346.179 216.751 345.893 217.276C345.606 217.801 345.448 218.386 345.429 218.984Z" fill="#081F14"/>
<path d="M339.452 222.63C339.478 223.726 340.264 224.153 341.194 223.582C341.686 223.244 342.092 222.794 342.378 222.269C342.664 221.744 342.823 221.159 342.841 220.561C342.816 219.464 342.037 219.037 341.101 219.608C340.608 219.947 340.202 220.396 339.916 220.921C339.629 221.446 339.471 222.032 339.452 222.63Z" fill="#34473E"/>
<path d="M333.475 226.275C333.5 227.372 334.287 227.798 335.216 227.228C335.708 226.89 336.114 226.44 336.401 225.915C336.687 225.39 336.845 224.805 336.864 224.207C336.838 223.109 336.059 222.683 335.124 223.253C334.631 223.591 334.225 224.042 333.939 224.567C333.652 225.092 333.493 225.677 333.475 226.275Z" fill="#081F14"/>
<path d="M308.368 244.777L311.85 242.653C312.136 242.438 312.367 242.158 312.526 241.837C312.684 241.516 312.765 241.162 312.762 240.803L312.675 237.063C312.659 236.359 312.223 236.045 311.704 236.362L308.222 238.485C307.936 238.701 307.705 238.98 307.546 239.302C307.388 239.623 307.307 239.977 307.309 240.335L307.397 244.076C307.413 244.781 307.847 245.094 308.368 244.777Z" fill="#34473E"/>
<path d="M304.114 280.936L377.606 236.116C378.51 235.435 379.242 234.551 379.743 233.536C380.244 232.52 380.5 231.401 380.491 230.267L380.16 216.037C380.108 213.81 378.732 212.818 377.087 213.821L303.595 258.641C302.692 259.322 301.96 260.206 301.459 261.221C300.958 262.237 300.702 263.356 300.711 264.489L301.042 278.72C301.094 280.948 302.473 281.94 304.114 280.936Z" fill="#6FB883"/>
<path opacity="0.4" d="M306.137 275.897L375.41 233.65C375.868 233.304 376.239 232.856 376.493 232.34C376.747 231.825 376.877 231.257 376.872 230.682L376.623 219.984C376.597 218.855 375.899 218.351 375.066 218.861L305.793 261.107C305.334 261.452 304.963 261.901 304.708 262.416C304.454 262.931 304.324 263.499 304.329 264.074L304.578 274.773C304.604 275.903 305.302 276.405 306.137 275.897Z" fill="#34473E"/>
<path d="M360.846 237.047L371.185 230.741C371.631 230.405 371.992 229.969 372.239 229.467C372.485 228.966 372.611 228.413 372.605 227.855C372.58 226.757 371.903 226.268 371.093 226.763L360.754 233.067C360.308 233.403 359.947 233.84 359.701 234.341C359.454 234.842 359.328 235.395 359.334 235.954C359.359 237.051 360.036 237.54 360.846 237.047Z" fill="#34473E"/>
<path d="M351.993 240.433C352.018 241.529 352.805 241.956 353.734 241.385C354.227 241.047 354.632 240.597 354.919 240.072C355.205 239.547 355.363 238.962 355.382 238.364C355.356 237.267 354.577 236.84 353.642 237.41C353.149 237.749 352.743 238.199 352.457 238.724C352.17 239.249 352.011 239.834 351.993 240.433Z" fill="#081F14"/>
<path d="M346.013 244.077C346.038 245.175 346.825 245.601 347.754 245.031C348.247 244.693 348.652 244.243 348.939 243.718C349.225 243.193 349.383 242.608 349.402 242.01C349.376 240.912 348.597 240.486 347.662 241.056C347.169 241.394 346.763 241.844 346.477 242.369C346.19 242.894 346.031 243.479 346.013 244.077Z" fill="#EBEDEC"/>
<path d="M340.036 247.723C340.061 248.821 340.848 249.247 341.777 248.676C342.27 248.337 342.675 247.888 342.962 247.363C343.248 246.838 343.407 246.252 343.425 245.655C343.399 244.558 342.62 244.131 341.685 244.702C341.192 245.04 340.786 245.49 340.5 246.015C340.213 246.54 340.054 247.125 340.036 247.723Z" fill="#34473E"/>
<path d="M334.058 251.369C334.084 252.466 334.87 252.893 335.8 252.322C336.292 251.983 336.698 251.534 336.984 251.009C337.271 250.484 337.429 249.898 337.447 249.3C337.422 248.204 336.643 247.776 335.707 248.348C335.214 248.686 334.808 249.136 334.522 249.66C334.235 250.185 334.077 250.771 334.058 251.369Z" fill="#EBEDEC"/>
<path d="M308.952 269.871L312.434 267.746C312.719 267.531 312.951 267.252 313.109 266.931C313.268 266.61 313.349 266.256 313.346 265.898L313.259 262.156C313.243 261.452 312.807 261.138 312.287 261.456L308.805 263.58C308.519 263.795 308.288 264.074 308.129 264.395C307.971 264.716 307.89 265.07 307.893 265.428L307.98 269.17C307.996 269.874 308.431 270.188 308.952 269.871Z" fill="#34473E"/>
<path d="M304.698 306.031L378.19 261.211C379.094 260.53 379.826 259.646 380.327 258.63C380.828 257.614 381.084 256.494 381.075 255.361L380.744 241.131C380.692 238.904 379.316 237.911 377.671 238.914L304.179 283.734C303.276 284.416 302.544 285.3 302.043 286.316C301.543 287.332 301.286 288.451 301.295 289.584L301.626 303.814C301.678 306.041 303.057 307.037 304.698 306.031Z" fill="#6FB883"/>
<path opacity="0.4" d="M306.721 300.987L375.994 258.741C376.452 258.395 376.823 257.946 377.077 257.431C377.331 256.916 377.461 256.348 377.456 255.773L377.207 245.075C377.181 243.945 376.483 243.441 375.65 243.944L306.376 286.19C305.918 286.536 305.547 286.984 305.293 287.499C305.038 288.015 304.908 288.583 304.913 289.157L305.162 299.856C305.188 300.996 305.886 301.5 306.721 300.987Z" fill="#34473E"/>
<path d="M361.43 262.14L371.769 255.836C372.215 255.5 372.576 255.063 372.822 254.562C373.069 254.061 373.195 253.508 373.189 252.95C373.164 251.853 372.487 251.364 371.677 251.858L361.338 258.162C360.892 258.498 360.531 258.935 360.285 259.436C360.038 259.937 359.912 260.49 359.918 261.049C359.943 262.14 360.62 262.635 361.43 262.14Z" fill="#34473E"/>
<path d="M352.577 265.526C352.602 266.624 353.389 267.05 354.318 266.479C354.811 266.141 355.217 265.691 355.503 265.166C355.789 264.641 355.948 264.056 355.966 263.458C355.94 262.361 355.161 261.933 354.226 262.505C353.733 262.843 353.327 263.293 353.04 263.818C352.754 264.343 352.595 264.928 352.577 265.526Z" fill="#081F14"/>
<path d="M346.597 269.172C346.622 270.268 347.409 270.695 348.338 270.125C348.831 269.786 349.236 269.337 349.523 268.812C349.809 268.287 349.968 267.702 349.986 267.104C349.96 266.006 349.181 265.579 348.246 266.151C347.753 266.489 347.347 266.939 347.06 267.464C346.774 267.989 346.615 268.574 346.597 269.172Z" fill="#081F14"/>
<path d="M340.62 272.818C340.645 273.914 341.432 274.341 342.361 273.77C342.853 273.432 343.259 272.982 343.546 272.457C343.832 271.932 343.99 271.347 344.009 270.749C343.983 269.652 343.204 269.225 342.269 269.795C341.776 270.134 341.37 270.584 341.084 271.109C340.797 271.634 340.638 272.219 340.62 272.818Z" fill="#34473E"/>
<path d="M334.642 276.462C334.668 277.56 335.454 277.986 336.384 277.416C336.876 277.078 337.281 276.628 337.568 276.103C337.854 275.578 338.013 274.993 338.031 274.395C338.006 273.299 337.227 272.872 336.291 273.442C335.799 273.78 335.393 274.23 335.106 274.755C334.82 275.279 334.661 275.864 334.642 276.462Z" fill="#081F14"/>
<path d="M309.536 294.965L313.018 292.841C313.303 292.626 313.534 292.346 313.693 292.025C313.851 291.704 313.932 291.35 313.93 290.991L313.843 287.251C313.827 286.546 313.391 286.233 312.871 286.55L309.389 288.673C309.103 288.888 308.872 289.168 308.713 289.489C308.555 289.811 308.474 290.165 308.477 290.523L308.564 294.264C308.58 294.968 309.015 295.282 309.536 294.965Z" fill="#081F14"/>
<path d="M305.282 331.124L378.774 286.304C379.678 285.623 380.41 284.74 380.911 283.724C381.412 282.708 381.668 281.589 381.659 280.456L381.328 266.225C381.276 263.997 379.9 263.006 378.255 264.009L304.763 308.829C303.86 309.51 303.128 310.394 302.627 311.41C302.126 312.425 301.87 313.544 301.879 314.677L302.21 328.908C302.262 331.135 303.641 332.127 305.282 331.124Z" fill="#6FB883"/>
<path opacity="0.4" d="M307.305 326.085L376.578 283.838C377.036 283.492 377.407 283.044 377.661 282.529C377.915 282.013 378.045 281.445 378.04 280.871L377.791 270.172C377.765 269.042 377.067 268.539 376.234 269.041L306.96 311.289C306.502 311.634 306.13 312.082 305.876 312.598C305.622 313.113 305.492 313.681 305.497 314.256L305.746 324.954C305.772 326.09 306.47 326.594 307.305 326.085Z" fill="#34473E"/>
<path d="M362.014 287.234L372.353 280.929C372.799 280.593 373.16 280.157 373.407 279.655C373.653 279.154 373.779 278.602 373.773 278.043C373.748 276.945 373.071 276.456 372.261 276.951L361.922 283.256C361.476 283.592 361.115 284.028 360.868 284.529C360.622 285.03 360.496 285.583 360.502 286.142C360.527 287.24 361.204 287.728 362.014 287.234Z" fill="#34473E"/>
<path d="M351.275 292.022C351.323 294.096 352.796 294.901 354.564 293.824C355.494 293.185 356.26 292.335 356.801 291.344C357.342 290.353 357.642 289.248 357.676 288.119C357.628 286.045 356.157 285.24 354.389 286.318C353.459 286.956 352.692 287.806 352.151 288.797C351.61 289.788 351.31 290.893 351.275 292.022Z" fill="#EBEDEC"/>
<path d="M338.898 299.671C338.923 300.769 339.702 301.196 340.638 300.624C341.13 300.286 341.536 299.836 341.823 299.311C342.109 298.786 342.268 298.201 342.286 297.603C342.261 296.507 341.474 296.08 340.545 296.65C340.053 296.989 339.647 297.438 339.361 297.963C339.074 298.488 338.916 299.073 338.898 299.671Z" fill="#081F14"/>
<path d="M332.92 303.317C332.946 304.414 333.725 304.842 334.66 304.27C335.153 303.932 335.559 303.482 335.845 302.957C336.131 302.432 336.29 301.847 336.308 301.249C336.282 300.151 335.503 299.724 334.568 300.296C334.075 300.634 333.669 301.084 333.383 301.609C333.097 302.134 332.938 302.719 332.92 303.317Z" fill="#34473E"/>
<path d="M326.942 306.963C326.967 308.059 327.754 308.486 328.683 307.916C329.175 307.577 329.581 307.128 329.868 306.603C330.154 306.078 330.313 305.493 330.332 304.895C330.306 303.797 329.519 303.37 328.59 303.94C328.098 304.279 327.692 304.729 327.405 305.254C327.119 305.779 326.96 306.365 326.942 306.963Z" fill="#081F14"/>
<path d="M310.12 320.058L313.602 317.935C313.888 317.719 314.119 317.44 314.278 317.119C314.436 316.798 314.517 316.444 314.514 316.086L314.427 312.349C314.411 311.646 313.975 311.332 313.456 311.648L309.974 313.772C309.688 313.987 309.457 314.267 309.298 314.588C309.14 314.909 309.059 315.263 309.061 315.622L309.148 319.364C309.165 320.062 309.599 320.372 310.12 320.058Z" fill="#34473E"/>
<path d="M94.1549 360.108L53.2905 337.725C50.7835 336.357 51.0358 333.844 53.854 332.125L92.2636 308.7C93.7103 307.847 95.3366 307.346 97.0117 307.237C98.6868 307.128 100.364 307.415 101.909 308.073L142.773 330.457C145.281 331.825 145.029 334.338 142.21 336.057L103.8 359.482C102.353 360.335 100.727 360.836 99.0519 360.944C97.3768 361.053 95.6995 360.767 94.1549 360.108Z" fill="#9ACDA8"/>
<path d="M98.1479 350.519C96.2825 350.603 94.4269 350.204 92.7604 349.36L51.896 326.977C51.0662 326.581 50.3578 325.969 49.8445 325.206C49.3312 324.442 49.032 323.554 48.9781 322.635C49.0298 321.541 49.3709 320.481 49.9665 319.562C50.562 318.644 51.3905 317.9 52.3672 317.408L90.7768 293.984C92.5634 292.913 94.5824 292.292 96.661 292.174C98.7396 292.056 100.816 292.444 102.712 293.306L143.575 315.676C144.404 316.072 145.113 316.684 145.626 317.447C146.139 318.211 146.439 319.099 146.493 320.018C146.441 321.112 146.1 322.172 145.505 323.09C144.909 324.009 144.08 324.752 143.104 325.244L104.694 348.669C102.707 349.838 100.452 350.476 98.1479 350.519ZM94.9567 345.333C96.1469 345.798 97.4266 345.988 98.7003 345.889C99.974 345.79 101.209 345.404 102.313 344.76L140.721 321.335C141.686 320.745 141.91 320.231 141.914 320.14C141.772 319.957 141.589 319.811 141.379 319.715L100.513 297.332C99.3233 296.867 98.0443 296.677 96.7711 296.776C95.4979 296.875 94.2634 297.26 93.1593 297.902L54.7483 321.322C53.7833 321.911 53.561 322.427 53.5568 322.525C53.7002 322.706 53.884 322.852 54.0936 322.949L94.9567 345.333Z" fill="#EEF6F0"/>
<path d="M143.858 305.791L143.533 291.854L112.338 292.561L101.412 286.57C99.8676 285.912 98.1905 285.626 96.5155 285.735C94.8405 285.844 93.2143 286.344 91.7673 287.196L81.8394 293.25L50.6141 293.96L50.9476 308.294C50.9542 308.841 51.1203 309.374 51.4255 309.828C51.7307 310.282 52.1616 310.636 52.6653 310.848L93.5297 333.231C95.0745 333.889 96.7516 334.175 98.4266 334.066C100.102 333.957 101.728 333.457 103.175 332.605L141.584 309.181C143.211 308.191 143.978 306.939 143.858 305.791Z" fill="#51A969"/>
<path d="M96.9071 285.722C95.0978 285.788 93.3321 286.296 91.7635 287.202L81.8393 293.25L50.614 293.96L50.9475 308.294C50.9541 308.841 51.1202 309.374 51.4254 309.828C51.7306 310.282 52.1615 310.636 52.6652 310.848L93.5295 333.231C94.9281 333.912 96.4823 334.207 98.0324 334.086L96.9071 285.722Z" fill="#316740"/>
<path d="M54.1479 293.883L50.6144 293.965L50.9479 308.299C50.9545 308.847 51.1206 309.38 51.4258 309.833C51.731 310.287 52.162 310.642 52.6656 310.853L54.5669 311.894L54.1479 293.883Z" fill="#34473E"/>
<path d="M94.1581 333.524C96.6778 334.372 99.4186 334.276 101.874 333.256L101.495 316.981L93.7773 317.16L94.1581 333.524Z" fill="#6FB883"/>
<path d="M93.1973 318.952L52.3329 296.568C49.826 295.2 50.0782 292.687 52.8965 290.967L91.3061 267.543C92.7529 266.691 94.3792 266.19 96.0543 266.081C97.7295 265.973 99.4067 266.259 100.951 266.918L141.816 289.302C144.324 290.67 144.072 293.182 141.252 294.901L102.842 318.325C101.396 319.178 99.7695 319.679 98.0944 319.788C96.4192 319.897 94.7419 319.61 93.1973 318.952Z" fill="#9ACDA8"/>
<path d="M141.188 292.159L102.779 315.588C101.332 316.44 99.7057 316.94 98.0307 317.049C96.3558 317.158 94.6786 316.872 93.1338 316.214L52.2694 293.831C51.7754 293.573 51.3451 293.207 51.0095 292.762C50.1914 294.152 50.6116 295.631 52.3332 296.573L93.1976 318.957C94.7424 319.615 96.4196 319.901 98.0946 319.792C99.7695 319.683 101.396 319.183 102.843 318.331L141.252 294.907C143.443 293.571 144.076 291.761 143.076 290.375C142.601 291.114 141.953 291.727 141.188 292.159Z" fill="#EEF6F0"/>
<path d="M129.114 309.814C129.096 310.381 128.945 310.936 128.674 311.433C128.402 311.931 128.017 312.358 127.55 312.679C126.663 313.218 125.924 312.815 125.9 311.774C125.917 311.207 126.068 310.653 126.339 310.155C126.611 309.658 126.996 309.231 127.463 308.911C128.35 308.369 129.089 308.774 129.114 309.814Z" fill="#34473E"/>
<path d="M134.283 306.661C134.265 307.228 134.115 307.783 133.843 308.28C133.572 308.778 133.187 309.204 132.72 309.525C131.826 310.064 131.093 309.661 131.069 308.622C131.086 308.055 131.237 307.5 131.508 307.002C131.78 306.504 132.165 306.078 132.632 305.757C133.519 305.216 134.259 305.621 134.283 306.661Z" fill="#34473E"/>
<path d="M139.451 303.509C139.434 304.076 139.283 304.63 139.012 305.128C138.741 305.625 138.356 306.052 137.889 306.373C136.996 306.912 136.263 306.509 136.238 305.468C136.256 304.901 136.407 304.347 136.678 303.849C136.95 303.352 137.335 302.925 137.802 302.605C138.689 302.064 139.427 302.468 139.451 303.509Z" fill="#34473E"/>
<path d="M95.2453 304.436L76.1224 293.963C74.9423 293.32 75.0678 292.146 76.3863 291.343L94.3607 280.381C95.0377 279.982 95.7987 279.747 96.5826 279.696C97.3665 279.646 98.1515 279.78 98.8743 280.088L117.996 290.562C119.176 291.204 119.052 292.378 117.732 293.183L99.7589 304.145C99.0817 304.543 98.3206 304.778 97.5368 304.828C96.7529 304.879 95.9681 304.745 95.2453 304.436Z" fill="#6FB883"/>
<path d="M96.8391 295.258L94.193 293.809C94.0304 293.719 94.0472 293.553 94.2299 293.446L96.7163 291.929C96.8098 291.874 96.9151 291.841 97.0236 291.834C97.1321 291.827 97.2407 291.846 97.3406 291.889L99.9867 293.338C100.149 293.426 100.132 293.594 99.9498 293.701L97.4634 295.217C97.3696 295.272 97.2644 295.304 97.156 295.311C97.0476 295.319 96.9391 295.3 96.8391 295.258Z" fill="#34473E"/>
<path d="M76.1225 293.963L76.1776 293.992C76.2641 293.928 76.3428 293.858 76.4437 293.799L94.418 282.837C95.0952 282.439 95.8563 282.205 96.6402 282.154C97.424 282.103 98.2089 282.237 98.9317 282.546L118 292.996C119.049 292.205 119.08 291.155 117.996 290.568L98.8746 280.093C98.1518 279.785 97.3668 279.651 96.5829 279.702C95.799 279.753 95.038 279.987 94.361 280.386L76.3866 291.348C75.068 292.146 74.949 293.32 76.1225 293.963Z" fill="#51A969"/>
<path d="M205.416 420.776L164.551 398.394C162.044 397.019 162.296 394.512 165.115 392.793L203.524 369.369C204.971 368.517 206.597 368.016 208.272 367.907C209.947 367.799 211.625 368.085 213.169 368.742L254.034 391.126C256.541 392.494 256.29 395.007 253.47 396.727L215.061 420.151C213.614 421.004 211.988 421.504 210.312 421.613C208.637 421.721 206.96 421.435 205.416 420.776Z" fill="#9ACDA8"/>
<path d="M209.41 411.188C207.544 411.272 205.687 410.872 204.02 410.028L163.157 387.645C162.327 387.249 161.619 386.637 161.105 385.873C160.592 385.11 160.292 384.222 160.237 383.303C160.29 382.209 160.631 381.149 161.226 380.231C161.821 379.312 162.649 378.569 163.625 378.076L202.036 354.648C203.823 353.578 205.842 352.957 207.92 352.839C209.999 352.721 212.075 353.109 213.971 353.97L254.83 376.351C255.66 376.747 256.368 377.358 256.881 378.122C257.395 378.886 257.694 379.773 257.748 380.692C257.697 381.787 257.355 382.847 256.76 383.766C256.164 384.685 255.335 385.429 254.358 385.921L215.955 409.35C213.967 410.515 211.713 411.148 209.41 411.188ZM206.217 406.001C207.407 406.466 208.686 406.656 209.96 406.557C211.233 406.458 212.467 406.072 213.571 405.429L251.985 382.002C252.95 381.415 253.172 380.897 253.176 380.808C253.033 380.627 252.85 380.482 252.641 380.384L211.775 357.994C210.585 357.529 209.305 357.339 208.031 357.438C206.757 357.537 205.523 357.923 204.419 358.568L166.009 381.991C165.044 382.579 164.82 383.097 164.817 383.186C164.961 383.367 165.145 383.513 165.354 383.611L206.217 406.001Z" fill="#EEF6F0"/>
<path d="M255.118 366.459L254.794 352.522L223.598 353.229L212.669 347.245C211.125 346.586 209.448 346.299 207.772 346.408C206.097 346.516 204.471 347.017 203.024 347.87L193.099 353.922L161.875 354.632L162.208 368.966C162.215 369.513 162.381 370.046 162.686 370.5C162.991 370.954 163.422 371.308 163.926 371.52L204.79 393.903C206.335 394.561 208.012 394.847 209.687 394.739C211.362 394.63 212.988 394.13 214.436 393.278L252.845 369.853C254.471 368.86 255.238 367.607 255.118 366.459Z" fill="#51A969"/>
<path d="M208.168 346.39C206.359 346.457 204.593 346.965 203.024 347.87L193.099 353.922L161.875 354.632L162.208 368.966C162.215 369.513 162.381 370.046 162.686 370.5C162.991 370.954 163.422 371.308 163.926 371.52L204.79 393.903C206.189 394.584 207.743 394.879 209.293 394.758L208.168 346.39Z" fill="#316740"/>
<path d="M165.408 354.551L161.875 354.633L162.208 368.967C162.215 369.514 162.381 370.047 162.686 370.501C162.991 370.955 163.422 371.309 163.926 371.521L165.827 372.562L165.408 354.551Z" fill="#34473E"/>
<path d="M205.418 394.192C207.938 395.039 210.679 394.944 213.134 393.924L212.755 377.649L205.038 377.828L205.418 394.192Z" fill="#6FB883"/>
<path d="M204.458 379.621L163.594 357.237C161.087 355.869 161.339 353.357 164.157 351.637L202.567 328.212C204.014 327.36 205.64 326.86 207.315 326.752C208.99 326.643 210.667 326.929 212.212 327.587L253.076 349.971C255.583 351.339 255.332 353.852 252.513 355.571L214.103 378.994C212.656 379.847 211.03 380.347 209.355 380.456C207.68 380.565 206.003 380.279 204.458 379.621Z" fill="#9ACDA8"/>
<path d="M252.449 352.827L214.039 376.251C212.592 377.103 210.966 377.604 209.291 377.713C207.616 377.822 205.939 377.536 204.394 376.877L163.53 354.494C163.035 354.236 162.605 353.871 162.27 353.424C161.452 354.814 161.872 356.293 163.593 357.236L204.458 379.621C206.002 380.28 207.68 380.566 209.355 380.457C211.03 380.348 212.656 379.847 214.103 378.995L252.513 355.571C254.703 354.235 255.335 352.425 254.336 351.039C253.862 351.78 253.214 352.394 252.449 352.827Z" fill="#EEF6F0"/>
<path d="M240.373 370.485C240.355 371.052 240.205 371.607 239.934 372.104C239.662 372.602 239.278 373.028 238.811 373.349C237.924 373.888 237.185 373.485 237.16 372.444C237.178 371.878 237.328 371.323 237.6 370.825C237.872 370.328 238.256 369.901 238.723 369.581C239.61 369.038 240.349 369.448 240.373 370.485Z" fill="#34473E"/>
<path d="M245.542 367.329C245.525 367.896 245.375 368.451 245.103 368.949C244.832 369.446 244.447 369.873 243.981 370.194C243.087 370.733 242.354 370.33 242.33 369.29C242.347 368.723 242.497 368.168 242.769 367.67C243.041 367.173 243.426 366.746 243.893 366.426C244.78 365.884 245.518 366.29 245.542 367.329Z" fill="#34473E"/>
<path d="M250.712 364.177C250.695 364.744 250.544 365.298 250.273 365.796C250.001 366.293 249.617 366.72 249.15 367.04C248.256 367.58 247.523 367.177 247.499 366.137C247.516 365.57 247.667 365.015 247.939 364.518C248.21 364.02 248.595 363.594 249.062 363.274C249.949 362.732 250.688 363.136 250.712 364.177Z" fill="#34473E"/>
<path d="M206.506 365.106L187.383 354.631C186.209 353.988 186.327 352.815 187.647 352.011L205.62 341.049C206.297 340.65 207.058 340.415 207.842 340.364C208.626 340.314 209.411 340.448 210.133 340.756L229.256 351.23C230.43 351.874 230.312 353.046 228.992 353.851L211.019 364.814C210.342 365.213 209.581 365.447 208.797 365.497C208.013 365.548 207.229 365.414 206.506 365.106Z" fill="#6FB883"/>
<path d="M208.099 355.926L205.453 354.477C205.291 354.387 205.307 354.221 205.49 354.114L207.977 352.597C208.07 352.542 208.176 352.51 208.284 352.503C208.392 352.496 208.501 352.514 208.601 352.557L211.247 354.006C211.41 354.095 211.393 354.262 211.21 354.369L208.724 355.885C208.63 355.94 208.525 355.972 208.416 355.979C208.308 355.986 208.199 355.968 208.099 355.926Z" fill="#34473E"/>
<path d="M187.383 354.631L187.437 354.661C187.522 354.592 187.611 354.527 187.704 354.468L205.677 343.506C206.354 343.107 207.115 342.873 207.899 342.822C208.683 342.771 209.468 342.905 210.191 343.213L229.26 353.663C230.308 352.872 230.341 351.822 229.256 351.236L210.133 340.761C209.411 340.453 208.626 340.319 207.842 340.37C207.058 340.421 206.297 340.655 205.62 341.054L187.647 352.016C186.327 352.809 186.209 353.988 187.383 354.631Z" fill="#51A969"/>
</g>
<defs>
<clipPath id="clip0_162_770">
<rect width="485.945" height="429.079" fill="white" transform="translate(0.268555 12.1184) rotate(-1.33282)"/>
</clipPath>
</defs>
</svg>
