<svg width="25" height="25" viewBox="0 0 25 25" fill="none" xmlns="http://www.w3.org/2000/svg">
<path d="M4.04199 3.20068H20.042C20.3072 3.20068 20.5616 3.30604 20.7491 3.49358C20.9366 3.68111 21.042 3.93547 21.042 4.20068V11.2007H3.04199V4.20068C3.04199 3.93547 3.14735 3.68111 3.33489 3.49358C3.52242 3.30604 3.77678 3.20068 4.04199 3.20068ZM3.04199 13.2007H21.042V20.2007C21.042 20.4659 20.9366 20.7203 20.7491 20.9078C20.5616 21.0953 20.3072 21.2007 20.042 21.2007H4.04199C3.77678 21.2007 3.52242 21.0953 3.33489 20.9078C3.14735 20.7203 3.04199 20.4659 3.04199 20.2007V13.2007ZM7.04199 16.2007V18.2007H10.042V16.2007H7.04199ZM7.04199 6.20068V8.20068H10.042V6.20068H7.04199Z" fill="#51A969"/>
</svg>
