<svg width="56" height="57" viewBox="0 0 56 57" fill="none" xmlns="http://www.w3.org/2000/svg">
<path d="M0 28.0996C0 12.6356 12.536 0.0996094 28 0.0996094C43.464 0.0996094 56 12.6356 56 28.0996C56 43.5636 43.464 56.0996 28 56.0996C12.536 56.0996 0 43.5636 0 28.0996Z" fill="#142A20"/>
<path d="M28 18.0996C30.717 18.0996 31.056 18.1096 32.122 18.1596C33.187 18.2096 33.912 18.3766 34.55 18.6246C35.21 18.8786 35.766 19.2226 36.322 19.7776C36.8305 20.2775 37.224 20.8822 37.475 21.5496C37.722 22.1866 37.89 22.9126 37.94 23.9776C37.987 25.0436 38 25.3826 38 28.0996C38 30.8166 37.99 31.1556 37.94 32.2216C37.89 33.2866 37.722 34.0116 37.475 34.6496C37.2247 35.3174 36.8311 35.9222 36.322 36.4216C35.822 36.9299 35.2173 37.3234 34.55 37.5746C33.913 37.8216 33.187 37.9896 32.122 38.0396C31.056 38.0866 30.717 38.0996 28 38.0996C25.283 38.0996 24.944 38.0896 23.878 38.0396C22.813 37.9896 22.088 37.8216 21.45 37.5746C20.7823 37.3241 20.1775 36.9306 19.678 36.4216C19.1694 35.9218 18.7759 35.3171 18.525 34.6496C18.277 34.0126 18.11 33.2866 18.06 32.2216C18.013 31.1556 18 30.8166 18 28.0996C18 25.3826 18.01 25.0436 18.06 23.9776C18.11 22.9116 18.277 22.1876 18.525 21.5496C18.7752 20.8818 19.1688 20.2769 19.678 19.7776C20.1777 19.2688 20.7824 18.8753 21.45 18.6246C22.088 18.3766 22.812 18.2096 23.878 18.1596C24.944 18.1126 25.283 18.0996 28 18.0996ZM28 23.0996C26.6739 23.0996 25.4021 23.6264 24.4645 24.5641C23.5268 25.5018 23 26.7735 23 28.0996C23 29.4257 23.5268 30.6975 24.4645 31.6351C25.4021 32.5728 26.6739 33.0996 28 33.0996C29.3261 33.0996 30.5979 32.5728 31.5355 31.6351C32.4732 30.6975 33 29.4257 33 28.0996C33 26.7735 32.4732 25.5018 31.5355 24.5641C30.5979 23.6264 29.3261 23.0996 28 23.0996ZM34.5 22.8496C34.5 22.5181 34.3683 22.2001 34.1339 21.9657C33.8995 21.7313 33.5815 21.5996 33.25 21.5996C32.9185 21.5996 32.6005 21.7313 32.3661 21.9657C32.1317 22.2001 32 22.5181 32 22.8496C32 23.1811 32.1317 23.4991 32.3661 23.7335C32.6005 23.9679 32.9185 24.0996 33.25 24.0996C33.5815 24.0996 33.8995 23.9679 34.1339 23.7335C34.3683 23.4991 34.5 23.1811 34.5 22.8496ZM28 25.0996C28.7956 25.0996 29.5587 25.4157 30.1213 25.9783C30.6839 26.5409 31 27.304 31 28.0996C31 28.8953 30.6839 29.6583 30.1213 30.2209C29.5587 30.7835 28.7956 31.0996 28 31.0996C27.2044 31.0996 26.4413 30.7835 25.8787 30.2209C25.3161 29.6583 25 28.8953 25 28.0996C25 27.304 25.3161 26.5409 25.8787 25.9783C26.4413 25.4157 27.2044 25.0996 28 25.0996Z" fill="#FAFBFA"/>
</svg>
