<svg width="135" height="29" viewBox="0 0 135 29" fill="none" xmlns="http://www.w3.org/2000/svg">
<path d="M28.5431 5.6353C28.5764 7.60509 27.9772 8.97246 26.8458 10.1162C25.7144 11.2599 24.5988 12.4236 23.4279 13.5266C22.9711 13.9567 23.0581 14.1794 23.4513 14.5739C24.7463 15.8733 26.1404 17.0828 27.2926 18.5152C29.3007 21.0117 28.9723 24.413 26.5678 26.5995C24.3485 28.6176 20.8566 28.5255 18.6516 26.3311C14.712 22.4103 10.8077 18.4537 6.87379 14.5271C6.52071 14.1745 6.52878 13.9804 6.87628 13.633C10.843 9.6681 14.7554 5.64702 18.767 1.72918C20.5794 -0.0408023 22.7715 -0.418756 25.1563 0.621182C27.1758 1.50144 28.5448 3.62509 28.5431 5.6353Z" fill="#7A8680"/>
<path d="M0.660279 14.1746C0.660837 11.5023 0.560391 8.82485 0.691492 6.15895C0.802989 3.89276 1.75135 1.97144 3.84313 0.828357C6.21345 -0.4669 8.83959 -0.0655839 10.8189 1.86539C11.5031 2.53281 12.1471 3.24306 12.8514 3.8875C13.2755 4.2755 13.3081 4.51057 12.8692 4.94489C10.0084 7.77563 7.18962 10.6491 4.33038 13.4813C3.89972 13.9078 3.84286 14.123 4.30835 14.5825C7.17233 17.4099 9.99236 20.2823 12.8471 23.1193C13.2467 23.5161 13.3419 23.7592 12.8724 24.1799C12.1244 24.85 11.4463 25.5985 10.732 26.3071C10.0169 27.0312 9.12706 27.5547 8.15029 27.8257C7.17351 28.0968 6.1436 28.106 5.16218 27.8527C4.18077 27.5993 3.2818 27.092 2.55404 26.3808C1.82628 25.6697 1.29487 24.7793 1.01231 23.7976C0.763132 22.9836 0.640363 22.1357 0.64837 21.2839C0.681633 18.9145 0.659722 16.5444 0.660279 14.1746Z" fill="#7A8680"/>
<path d="M95.3285 13.4071C97.6641 10.4365 99.8912 7.61597 102.099 4.78015C102.198 4.63285 102.334 4.51483 102.492 4.43792C102.65 4.36102 102.825 4.32795 103 4.34203C104.327 4.36874 105.654 4.35213 106.978 4.35213C107.041 4.60646 106.855 4.69174 106.759 4.81411C104.666 7.4704 102.578 10.1302 100.462 12.7673C100.186 13.1109 100.225 13.3038 100.456 13.6292C102.765 16.8743 105.064 20.1265 107.354 23.3859C107.414 23.4708 107.47 23.5589 107.532 23.6523C107.344 23.8581 107.122 23.7554 106.93 23.7572C105.746 23.7689 104.56 23.7463 103.376 23.7727C102.992 23.7813 102.772 23.6504 102.555 23.3304C101.019 21.0602 99.4603 18.8052 97.9083 16.5458C97.8248 16.4241 97.7364 16.3059 97.6082 16.1274C96.8723 17.0268 96.1665 17.8979 95.4493 18.7588C95.2891 18.9512 95.3306 19.1629 95.33 19.372C95.3259 20.6668 95.314 21.9619 95.3365 23.2563C95.3432 23.6444 95.2537 23.7861 94.8481 23.7727C93.9181 23.7419 92.9851 23.7329 92.0559 23.7749C91.5521 23.7976 91.4238 23.6464 91.4258 23.132C91.446 18.1037 91.4385 13.0754 91.4385 8.04699C91.4385 6.98951 91.4597 5.93135 91.4283 4.8749C91.4156 4.43418 91.5595 4.33049 91.9681 4.34254C92.9194 4.37197 93.873 4.3765 94.8239 4.34112C95.2635 4.32478 95.3393 4.49005 95.3367 4.8937C95.3207 7.54804 95.3285 10.2025 95.3285 12.857V13.4071Z" fill="#7A8680"/>
<path d="M53.1921 4.35148C52.0328 5.81962 50.9653 7.17238 49.8968 8.52424C48.7821 9.93496 47.6777 11.3544 46.5426 12.7478C46.2806 13.0696 46.2661 13.2694 46.5122 13.6146C48.7615 16.7707 50.9976 19.9365 53.2205 23.112C53.3485 23.2935 53.5444 23.446 53.5583 23.7624C52.0892 23.7624 50.6379 23.7523 49.187 23.77C48.8497 23.7741 48.7655 23.5226 48.6293 23.3245C46.9915 20.9452 45.3604 18.5611 43.6828 16.113C42.9329 17.0308 42.2093 17.923 41.4769 18.8078C41.333 18.9818 41.3778 19.1743 41.3772 19.3615C41.3725 20.6346 41.3588 21.9084 41.3838 23.1812C41.3921 23.6074 41.3159 23.7943 40.8416 23.774C39.9123 23.7351 38.9793 23.7394 38.0494 23.7731C37.6446 23.7878 37.5632 23.6541 37.564 23.266C37.5757 17.1155 37.5761 10.9649 37.5651 4.81413C37.5645 4.45895 37.6437 4.3319 38.0139 4.3424C38.9653 4.36936 39.9189 4.37598 40.8698 4.3406C41.3079 4.32413 41.3857 4.48617 41.3832 4.89112C41.3668 7.5023 41.3748 10.1137 41.3748 12.725V13.2404C41.6163 13.2575 41.661 13.0557 41.7527 12.9394C43.8866 10.2339 46.0145 7.52361 48.1367 4.80856C48.2417 4.6525 48.385 4.5272 48.5522 4.44512C48.7194 4.36305 48.9048 4.32705 49.0899 4.34072C50.4002 4.37015 51.7117 4.35148 53.1921 4.35148Z" fill="#7A8680"/>
<path d="M71.0104 3.99028C65.3441 3.9125 60.8978 8.28866 60.8447 14.0053C60.7939 19.4674 64.7525 23.9819 70.5492 24.1189C76.1795 24.2519 80.6486 19.8046 80.7119 14.1586C80.7444 11.499 79.7413 8.93482 77.9226 7.02856C76.1039 5.12231 73.618 4.02965 71.0104 3.99028ZM70.7952 20.1871C67.4085 20.1962 64.8701 17.5758 64.8654 14.0658C64.8607 10.6118 67.4709 7.8736 70.7715 7.871C74.0997 7.86841 76.6749 10.5847 76.687 14.1103C76.6992 17.5711 74.1715 20.1782 70.7955 20.187L70.7952 20.1871Z" fill="#7A8680"/>
<path d="M124.748 3.99024C119.145 3.98492 114.831 8.40051 114.787 14.0972C114.747 19.2996 118.604 24.0574 124.657 24.1234C125.96 24.1459 127.255 23.9031 128.465 23.4091C129.675 22.915 130.776 22.1797 131.705 21.2462C132.633 20.3127 133.369 19.1998 133.87 17.9725C134.372 16.7452 134.628 15.4283 134.624 14.0988C134.624 8.42539 130.296 3.99555 124.748 3.99024ZM124.719 20.1871C121.319 20.1871 118.819 17.5876 118.822 14.0545C118.825 10.5796 121.412 7.86684 124.719 7.87138C128.057 7.87604 130.626 10.5952 130.625 14.1214C130.622 17.5933 128.097 20.187 124.719 20.187V20.1871Z" fill="#7A8680"/>
</svg>
