<svg width="56" height="57" viewBox="0 0 56 57" fill="none" xmlns="http://www.w3.org/2000/svg">
<path d="M0 28.0996C0 12.6356 12.536 0.0996094 28 0.0996094C43.464 0.0996094 56 12.6356 56 28.0996C56 43.5636 43.464 56.0996 28 56.0996C12.536 56.0996 0 43.5636 0 28.0996Z" fill="#142A20"/>
<path d="M34.335 34.4386H31.67V30.2616C31.67 29.2656 31.65 27.9836 30.28 27.9836C28.891 27.9836 28.679 29.0676 28.679 30.1886V34.4386H26.013V25.8496H28.573V27.0196H28.608C28.966 26.3456 29.836 25.6326 31.136 25.6326C33.836 25.6326 34.336 27.4106 34.336 29.7236V34.4386H34.335ZM23.003 24.6746C22.7996 24.6749 22.5981 24.635 22.4101 24.5572C22.2221 24.4795 22.0513 24.3653 21.9075 24.2214C21.7636 24.0775 21.6497 23.9067 21.572 23.7186C21.4944 23.5306 21.4546 23.3291 21.455 23.1256C21.4552 22.8194 21.5462 22.5202 21.7164 22.2658C21.8867 22.0113 22.1286 21.813 22.4115 21.6961C22.6945 21.5791 23.0057 21.5486 23.306 21.6085C23.6062 21.6685 23.882 21.8161 24.0983 22.0327C24.3147 22.2493 24.4619 22.5253 24.5215 22.8256C24.581 23.1259 24.5501 23.4371 24.4328 23.7199C24.3154 24.0027 24.1169 24.2443 23.8622 24.4143C23.6075 24.5842 23.3092 24.6748 23.003 24.6746ZM24.339 34.4386H21.666V25.8496H24.34V34.4386H24.339ZM35.67 19.0996H20.329C19.593 19.0996 19 19.6796 19 20.3966V35.8026C19 36.5196 19.594 37.0996 20.328 37.0996H35.666C36.4 37.0996 37 36.5196 37 35.8026V20.3966C37 19.6796 36.4 19.0996 35.666 19.0996H35.67Z" fill="#FAFBFA"/>
</svg>
