<svg width="130" height="37" viewBox="0 0 130 37" fill="none" xmlns="http://www.w3.org/2000/svg">
<path d="M61.6052 6.59287C61.7078 8.13728 61.2703 9.66938 60.3674 10.9281C59.4645 12.1869 58.152 13.0944 56.6536 13.496C53.982 14.1265 51.3935 15.0668 48.9412 16.2978C46.1242 17.6993 43.6627 19.7202 41.7422 22.2082C39.8217 24.6962 38.4922 27.5865 37.8538 30.6613C37.586 32.2882 36.7609 33.7721 35.5193 34.8603C34.2777 35.9484 32.6963 36.5735 31.0445 36.629L30.6499 36.6288C28.9981 36.5721 27.4171 35.9458 26.1763 34.8567C24.9355 33.7677 24.1117 32.2831 23.8451 30.6561C23.209 27.5807 21.8817 24.6894 19.963 22.2C18.0444 19.7105 15.5845 17.6878 12.7685 16.2841C10.3171 15.0513 7.72937 14.1091 5.05825 13.4766C3.59409 13.0501 2.31347 12.1505 1.41764 10.919C0.52181 9.68758 0.0615341 8.1941 0.109161 6.67331C0.156789 5.15253 0.709633 3.69064 1.68077 2.51737C2.65192 1.34409 3.98632 0.525956 5.4743 0.191508C6.38675 -0.0254798 7.33378 -0.0558477 8.25832 0.10216C9.18287 0.260168 10.0658 0.603315 10.8538 1.11091C11.6418 1.61851 12.3186 2.28001 12.8433 3.05559C13.3681 3.83117 13.7299 4.70472 13.9071 5.62358C14.7547 9.04264 16.243 12.2709 18.2935 15.1381C21.5802 19.5514 25.6734 22.1771 30.8527 22.0807C36.0319 22.1811 40.1269 19.5584 43.417 15.1476C45.4697 12.282 46.9605 9.05478 47.8107 5.63636C47.9885 4.71763 48.351 3.84435 48.8763 3.06916C49.4017 2.29398 50.079 1.63299 50.8674 1.12599C51.6557 0.618982 52.5389 0.2765 53.4636 0.119189C54.3882 -0.0381226 55.3352 -0.00704114 56.2475 0.210634C57.7292 0.519886 59.0635 1.31764 60.0353 2.47538C61.0072 3.63312 61.5602 5.08348 61.6052 6.59287Z" fill="#51A969"/>
<path d="M7.07994 23.3608C8.34595 23.3759 9.57928 23.7638 10.625 24.4758C11.6707 25.1878 12.4822 26.1922 12.9576 27.3628C13.4329 28.5334 13.5508 29.818 13.2966 31.0553C13.0423 32.2925 12.4272 33.4272 11.5286 34.3169C10.6299 35.2065 9.48771 35.8115 8.2455 36.0556C7.00329 36.2998 5.71646 36.1724 4.54661 35.6894C3.37677 35.2063 2.37608 34.3892 1.67028 33.3407C0.964481 32.2921 0.585048 31.0589 0.579606 29.796C0.600922 28.0874 1.29419 26.4555 2.51003 25.2518C3.72588 24.0482 5.367 23.3691 7.07994 23.3608Z" fill="#ED5B49"/>
<path d="M48.5261 29.7403C48.5288 28.0628 49.1949 26.4541 50.3796 25.2636C51.5644 24.0731 53.1722 23.3971 54.8537 23.3821C56.1299 23.3634 57.3826 23.7244 58.4522 24.419C59.5218 25.1136 60.3596 26.1104 60.8588 27.2821C61.358 28.4538 61.4959 29.7472 61.2549 30.9974C61.014 32.2476 60.4051 33.3979 59.5059 34.3014C58.6068 35.2049 57.4581 35.8206 56.2066 36.0701C54.9551 36.3196 53.6574 36.1914 52.4792 35.702C51.301 35.2125 50.2958 34.384 49.5917 33.3222C48.8876 32.2603 48.5166 31.0133 48.5261 29.7403Z" fill="#ED5B49"/>
<path d="M37.2282 6.9445C37.2271 8.19936 36.8537 9.42579 36.1552 10.4694C35.4567 11.513 34.4642 12.3272 33.3028 12.8093C32.1414 13.2914 30.863 13.42 29.6284 13.1788C28.3939 12.9376 27.2586 12.3375 26.3653 11.4539C25.472 10.5704 24.8608 9.44293 24.6085 8.21356C24.3563 6.98418 24.4743 5.70786 24.9477 4.54527C25.4212 3.38267 26.2289 2.3858 27.2691 1.68018C28.3094 0.974559 29.5356 0.591755 30.7935 0.57993C31.6402 0.557052 32.4828 0.705622 33.2702 1.01668C34.0577 1.32773 34.7738 1.79481 35.3752 2.38969C35.9766 2.98456 36.4509 3.69488 36.7694 4.47774C37.0879 5.26061 37.244 6.09977 37.2282 6.9445Z" fill="#ED5B49"/>
<path d="M82.831 10.3202L86.263 2.28019H84.739L81.979 9.01219H81.883L79.099 2.28019H77.563L80.995 10.3202H82.831ZM88.5649 10.4402C89.9209 10.4402 90.8689 9.84019 91.1809 8.83219H91.2649V10.3202H92.4529V6.69619C92.4529 5.26819 91.6009 4.23619 89.7049 4.23619C87.8089 4.23619 86.6809 5.25619 86.6809 6.61219V6.66019H87.9649V6.61219C87.9649 5.73619 88.5049 5.37619 89.6089 5.37619C90.7489 5.37619 91.1809 5.72419 91.1809 6.70819V7.05619L88.4689 7.34419C87.2929 7.47619 86.5489 7.95619 86.5489 8.88019C86.5489 9.86419 87.3289 10.4402 88.5649 10.4402ZM87.8449 8.79619C87.8449 8.32819 88.1689 8.17219 88.8409 8.08819L91.1809 7.82419C91.1809 9.00019 90.2689 9.50419 88.9129 9.50419C88.1689 9.50419 87.8449 9.27619 87.8449 8.79619ZM94.9058 10.3202V6.97219C94.9058 5.90419 95.3258 5.34019 96.3458 5.34019C97.2338 5.34019 97.5938 5.73619 97.5938 6.58819V7.11619H98.8778V6.33619C98.8778 5.20819 98.2898 4.23619 96.9338 4.23619C95.7098 4.23619 95.0618 5.00419 94.8818 5.96419H94.7978V4.35619H93.6098V10.3202H94.9058ZM100.988 3.66019V2.28019H99.6918V3.66019H100.988ZM100.988 10.3202V4.35619H99.6918V10.3202H100.988ZM103.94 10.4402C105.296 10.4402 106.244 9.84019 106.556 8.83219H106.64V10.3202H107.828V6.69619C107.828 5.26819 106.976 4.23619 105.08 4.23619C103.184 4.23619 102.056 5.25619 102.056 6.61219V6.66019H103.34V6.61219C103.34 5.73619 103.88 5.37619 104.984 5.37619C106.124 5.37619 106.556 5.72419 106.556 6.70819V7.05619L103.844 7.34419C102.668 7.47619 101.924 7.95619 101.924 8.88019C101.924 9.86419 102.704 10.4402 103.94 10.4402ZM103.22 8.79619C103.22 8.32819 103.544 8.17219 104.216 8.08819L106.556 7.82419C106.556 9.00019 105.644 9.50419 104.288 9.50419C103.544 9.50419 103.22 9.27619 103.22 8.79619ZM110.173 10.3202V8.60419H110.257C110.509 9.79219 111.385 10.4402 112.741 10.4402C114.637 10.4402 115.657 9.18019 115.657 7.34419C115.657 5.48419 114.649 4.23619 112.813 4.23619C111.385 4.23619 110.593 4.96819 110.353 5.97619H110.281V2.28019H108.985V10.3202H110.173ZM110.281 7.40419V7.30819C110.281 6.03619 111.013 5.41219 112.357 5.41219C113.629 5.41219 114.361 5.90419 114.361 7.34419C114.361 8.77219 113.641 9.25219 112.333 9.25219C111.049 9.25219 110.281 8.65219 110.281 7.40419ZM117.851 10.3202V2.28019H116.555V10.3202H117.851ZM122.051 10.4402C123.827 10.4402 125.075 9.56419 125.075 8.29219V8.18419H123.779V8.28019C123.779 8.98819 123.263 9.39619 122.015 9.39619C120.635 9.39619 120.071 8.78419 120.023 7.63219H125.087C125.123 7.45219 125.135 7.28419 125.135 7.06819C125.135 5.25619 123.875 4.23619 122.027 4.23619C120.083 4.23619 118.811 5.48419 118.811 7.34419C118.811 9.33619 120.095 10.4402 122.051 10.4402ZM122.003 5.25619C123.275 5.25619 123.911 5.78419 123.911 6.88819V6.91219H120.035C120.107 5.84419 120.683 5.25619 122.003 5.25619ZM81.955 22.3202C84.451 22.3202 86.023 20.7842 86.023 18.3002C86.023 15.8162 84.451 14.2802 81.955 14.2802H78.295V22.3202H81.955ZM81.955 15.4442C83.815 15.4442 84.655 16.2362 84.655 18.3002C84.655 20.3642 83.815 21.1562 81.955 21.1562H79.579V15.4442H81.955ZM88.7407 22.4402C90.0967 22.4402 91.0447 21.8402 91.3567 20.8322H91.4407V22.3202H92.6287V18.6962C92.6287 17.2682 91.7767 16.2362 89.8807 16.2362C87.9847 16.2362 86.8567 17.2562 86.8567 18.6122V18.6602H88.1407V18.6122C88.1407 17.7362 88.6807 17.3762 89.7847 17.3762C90.9247 17.3762 91.3567 17.7242 91.3567 18.7082V19.0562L88.6447 19.3442C87.4687 19.4762 86.7247 19.9562 86.7247 20.8802C86.7247 21.8642 87.5047 22.4402 88.7407 22.4402ZM88.0207 20.7962C88.0207 20.3282 88.3447 20.1722 89.0167 20.0882L91.3567 19.8242C91.3567 21.0002 90.4447 21.5042 89.0887 21.5042C88.3447 21.5042 88.0207 21.2762 88.0207 20.7962ZM97.6975 22.3202V21.1562H96.6175C95.8735 21.1562 95.5375 20.9642 95.5375 20.2322V17.4362H97.6975V16.3562H95.5375V15.0482H94.2535V16.3562H93.2455V17.4362H94.2535V20.3042C94.2535 21.7562 95.0455 22.3202 96.3295 22.3202H97.6975ZM100.26 22.4402C101.616 22.4402 102.564 21.8402 102.876 20.8322H102.96V22.3202H104.148V18.6962C104.148 17.2682 103.296 16.2362 101.4 16.2362C99.5042 16.2362 98.3762 17.2562 98.3762 18.6122V18.6602H99.6602V18.6122C99.6602 17.7362 100.2 17.3762 101.304 17.3762C102.444 17.3762 102.876 17.7242 102.876 18.7082V19.0562L100.164 19.3442C98.9882 19.4762 98.2442 19.9562 98.2442 20.8802C98.2442 21.8642 99.0242 22.4402 100.26 22.4402ZM99.5402 20.7962C99.5402 20.3282 99.8642 20.1722 100.536 20.0882L102.876 19.8242C102.876 21.0002 101.964 21.5042 100.608 21.5042C99.8642 21.5042 99.5402 21.2762 99.5402 20.7962Z" fill="#FAFBFA"/>
<path d="M79.519 34.3202V29.6042L79.471 28.2122H79.567L80.575 29.6282L84.199 34.3202H85.591V26.2802H84.295V31.0322L84.355 32.4842H84.259L83.215 30.9842L79.615 26.2802H78.223V34.3202H79.519ZM89.7895 34.4402C91.5655 34.4402 92.8135 33.5642 92.8135 32.2922V32.1842H91.5175V32.2802C91.5175 32.9882 91.0015 33.3962 89.7535 33.3962C88.3735 33.3962 87.8095 32.7842 87.7615 31.6322H92.8255C92.8615 31.4522 92.8735 31.2842 92.8735 31.0682C92.8735 29.2562 91.6135 28.2362 89.7655 28.2362C87.8215 28.2362 86.5495 29.4842 86.5495 31.3442C86.5495 33.3362 87.8335 34.4402 89.7895 34.4402ZM89.7415 29.2562C91.0135 29.2562 91.6495 29.7842 91.6495 30.8882V30.9122H87.7735C87.8455 29.8442 88.4215 29.2562 89.7415 29.2562ZM97.7561 34.3202V33.1562H96.6761C95.9321 33.1562 95.5961 32.9642 95.5961 32.2322V29.4362H97.7561V28.3562H95.5961V27.0482H94.3121V28.3562H93.3041V29.4362H94.3121V32.3042C94.3121 33.7562 95.1041 34.3202 96.3881 34.3202H97.7561ZM101.423 34.3202L102.743 30.8882L103.199 29.4242H103.295L103.751 30.8882L105.059 34.3202H106.667L108.479 28.3562H107.159L106.163 31.7402L105.887 33.2762H105.791L105.347 31.6202L104.087 28.3562H102.431L101.183 31.6202L100.739 33.2762H100.643L100.367 31.7402L99.3708 28.3562H98.0268L99.8148 34.3202H101.423ZM112.185 34.4402C114.177 34.4402 115.509 33.1802 115.509 31.3442C115.509 29.4842 114.177 28.2362 112.185 28.2362C110.205 28.2362 108.873 29.4842 108.873 31.3442C108.873 33.1802 110.205 34.4402 112.185 34.4402ZM112.185 33.2882C110.745 33.2882 110.145 32.6042 110.145 31.3442C110.145 30.0722 110.745 29.3762 112.185 29.3762C113.637 29.3762 114.237 30.0722 114.237 31.3442C114.237 32.6042 113.637 33.2882 112.185 33.2882ZM117.746 34.3202V30.9722C117.746 29.9042 118.166 29.3402 119.186 29.3402C120.074 29.3402 120.434 29.7362 120.434 30.5882V31.1162H121.718V30.3362C121.718 29.2082 121.13 28.2362 119.774 28.2362C118.55 28.2362 117.902 29.0042 117.722 29.9642H117.638V28.3562H116.45V34.3202H117.746ZM123.828 34.3202V31.8842H125.532L127.296 34.3202H128.82L126.588 31.2242L128.832 28.3562H127.32L125.532 30.7202H123.828V26.2802H122.532V34.3202H123.828Z" fill="#ED5B49"/>
</svg>
