<svg width="155" height="41" viewBox="0 0 155 41" fill="none" xmlns="http://www.w3.org/2000/svg">
<g clip-path="url(#clip0_85_6153)">
<path d="M1.66556 40.0466C1.27988 39.658 0.987174 39.1935 0.807837 38.6853C0.478731 37.6816 0.332688 36.6309 0.376133 35.5796C0.378917 30.5794 0.378917 25.5791 0.376133 20.5787H0.386005C0.386005 15.4284 0.386005 10.2781 0.386005 5.12764C0.383318 4.17547 0.545368 3.22947 0.865552 2.32819C1.10054 1.53561 1.64847 0.862151 2.39289 0.450875C3.13732 0.0395985 4.0196 -0.0770931 4.85229 0.125616C5.8011 0.303083 6.71326 0.62822 7.55264 1.08814C16.9373 6.24565 26.3195 11.4073 35.6994 16.5731C36.4943 17.0091 37.2173 17.556 37.8446 18.1958C39.2495 19.6285 39.2145 21.4676 37.8066 22.8988C36.6748 24.0493 35.2286 24.7543 33.8298 25.5249L33.3221 25.8039L24.3793 12.4906C24.0499 12.0013 23.5904 11.605 23.0483 11.3426C22.5061 11.0801 21.9008 10.961 21.2947 10.9975C20.6885 11.0342 20.1035 11.2254 19.6 11.5513C19.0965 11.8772 18.6927 12.326 18.4304 12.8515L16.2217 17.2774L9.70738 5.15422C9.36499 4.51679 8.81388 4.00478 8.13872 3.69688C7.46355 3.38898 6.70167 3.30218 5.97009 3.44984C5.23856 3.59743 4.57777 3.97132 4.08925 4.51404C3.60072 5.05676 3.31148 5.73829 3.26594 6.45397L1.66556 40.0466ZM19.413 26.0454C19.1386 26.5951 18.7097 27.0605 18.1746 27.3892C17.6394 27.7178 17.0192 27.8967 16.3838 27.9056C15.7481 27.9165 15.1219 27.756 14.5765 27.4423C14.0312 27.1286 13.5886 26.6744 13.2992 26.1313L9.32161 18.729L8.44833 39.4872C14.7638 36.0154 21.0779 32.5416 27.3906 29.0659L21.9493 20.9636L19.413 26.0454Z" fill="#7A8680"/>
<path d="M56.6828 27.0351L53.9699 32.7269H53.4991L50.7862 27.0358L50.4722 32.7269H49.9927L50.3894 26.1064H50.8139L53.7375 32.2491L56.6536 26.1064H57.0872L57.4748 32.7269H57.0044L56.6828 27.0351Z" fill="#7A8680"/>
<path d="M66.8933 32.7265H62.7593V26.1768H66.8102V26.5573H63.2411V29.1863H66.5983V29.5756H63.2396V32.346H66.8937L66.8933 32.7265Z" fill="#7A8680"/>
<path d="M74.1222 26.1768C76.0879 26.1768 77.4164 27.5133 77.4164 29.4697C77.4164 31.4078 76.0875 32.7265 74.1222 32.7265H71.9443V26.1768H74.1222ZM74.0486 32.346C75.7739 32.346 76.9183 31.1955 76.9183 29.4689C76.9183 27.7252 75.7739 26.5555 74.0486 26.5555H72.4243V32.346H74.0486Z" fill="#7A8680"/>
<path d="M82.4224 32.7265V26.1768H82.9019V32.7265H82.4224Z" fill="#7A8680"/>
<path d="M88.7918 30.859L87.9428 32.7265H87.4355L90.4621 26.1768H90.9143L93.9412 32.7265H93.4332L92.575 30.859H88.7918ZM90.6925 26.7168L88.9672 30.4784H92.4L90.6925 26.7168Z" fill="#7A8680"/>
<path d="M63.3302 10.3386C64.9973 8.89454 66.1617 8.17261 66.8234 8.17285V22.1752H63.0265L63.1043 15.8086C62.3257 16.5433 61.5147 17.3647 60.6713 18.273C59.8279 19.1813 59.1011 20.0091 58.4911 20.7564H58.3161C57.667 19.9719 56.9274 19.1286 56.0972 18.2264C55.2669 17.3242 54.4753 16.5183 53.7222 15.8086L53.8027 22.1752H49.9868V8.17285C50.6485 8.17285 51.81 8.89163 53.4712 10.3292C55.2295 11.8636 56.881 13.5069 58.4151 15.2485C59.9359 13.5072 61.578 11.8668 63.3302 10.3386Z" fill="#7A8680"/>
<path d="M75.6802 21.6339C74.667 22.1255 73.5452 22.3753 72.4099 22.3623C71.2033 22.3623 70.2723 22.076 69.6169 21.5035C69.279 21.188 69.0161 20.8061 68.8465 20.384C68.6768 19.9619 68.6043 19.5096 68.6339 19.0581C68.6063 18.595 68.6944 18.1323 68.8908 17.7085C69.0872 17.2847 69.3863 16.912 69.7631 16.6213C70.5154 16.0554 71.5923 15.7723 72.9939 15.7721C73.6995 15.7753 74.3987 15.9018 75.0571 16.1453V15.9028C75.0665 15.7073 75.0263 15.5125 74.9398 15.3352C74.8534 15.1579 74.7233 15.0034 74.5608 14.8849C74.1513 14.6202 73.6623 14.4922 73.1693 14.5207C72.5605 14.5249 71.9526 14.5654 71.3491 14.642C70.7171 14.7173 70.0902 14.8267 69.4711 14.9698V12.3936C70.1312 12.1736 70.8124 12.0172 71.5047 11.9267C72.3071 11.8135 73.1172 11.7573 73.9283 11.7588C75.447 11.7588 76.6312 12.098 77.4807 12.7763C77.9054 13.1222 78.2413 13.5572 78.4624 14.0477C78.6835 14.5381 78.7838 15.0709 78.7556 15.6045V22.2883C77.6917 22.2994 76.6394 22.0755 75.6802 21.6339ZM73.9476 19.86C74.3272 19.855 74.7028 19.7856 75.0571 19.655V18.2547C74.7048 18.1152 74.3287 18.0392 73.9476 18.0307C72.9483 18.0307 72.4488 18.348 72.449 18.9827C72.449 19.5678 72.9486 19.8602 73.9476 19.86Z" fill="#7A8680"/>
<path d="M91.836 15.8834V22.1753H88.1378V16.1635C88.1573 15.9396 88.1294 15.7142 88.0558 15.5009C87.9823 15.2875 87.8647 15.0906 87.7099 14.922C87.3469 14.629 86.8782 14.4851 86.4053 14.5214C85.7901 14.5303 85.1898 14.7049 84.6732 15.0254V22.1761H80.9746V8.3977L84.6732 7.37109V12.5235C85.6853 12.0435 86.7949 11.7824 87.9237 11.7587C90.5321 11.758 91.8362 13.1329 91.836 15.8834Z" fill="#7A8680"/>
<path d="M96.3717 21.6997C95.5041 21.2832 94.7807 20.6347 94.2888 19.8325C93.7843 18.9899 93.5285 18.0315 93.5487 17.06C93.5261 16.0854 93.7821 15.1235 94.2888 14.2784C94.7832 13.4807 95.5062 12.836 96.3717 12.4211C97.339 11.9636 98.4069 11.7362 99.4852 11.7583C100.554 11.7368 101.613 11.9642 102.57 12.4211C103.431 12.8383 104.151 13.4827 104.643 14.2784C105.15 15.1237 105.405 16.0855 105.383 17.06C105.403 18.0314 105.147 18.9897 104.643 19.8325C104.153 20.6326 103.434 21.2808 102.57 21.6997C101.613 22.1565 100.554 22.3837 99.4852 22.3621C98.407 22.3843 97.339 22.1571 96.3717 21.6997ZM100.985 18.8991C101.395 18.3691 101.601 17.7193 101.569 17.06C101.601 16.4009 101.395 15.7512 100.985 15.2213C100.807 14.9978 100.577 14.8179 100.313 14.6961C100.049 14.5744 99.759 14.5144 99.4662 14.521C99.1717 14.5122 98.8793 14.5712 98.6134 14.6931C98.3475 14.8149 98.1159 14.996 97.938 15.2213C97.5335 15.7535 97.331 16.4023 97.3639 17.06C97.331 17.7179 97.5335 18.3668 97.938 18.8991C98.116 19.1243 98.3476 19.3053 98.6135 19.4271C98.8794 19.5488 99.1717 19.6078 99.4662 19.5991C99.759 19.6057 100.049 19.5457 100.313 19.424C100.577 19.3023 100.807 19.1225 100.985 18.8991Z" fill="#7A8680"/>
<path d="M110.386 19.2068C110.995 19.3453 111.612 19.4449 112.235 19.505C113.13 19.6007 114.017 19.7505 114.893 19.9533C115.585 20.1201 116.222 20.4544 116.742 20.9242C117.014 21.188 117.225 21.504 117.361 21.8515C117.497 22.1989 117.554 22.57 117.53 22.9403C117.574 23.6905 117.34 24.4313 116.868 25.0314C116.338 25.5923 115.636 25.9778 114.864 26.1327C113.708 26.3837 112.525 26.4967 111.34 26.4692C110.541 26.4675 109.743 26.4018 108.956 26.2729C108.314 26.1948 107.691 26.0084 107.117 25.7223V23.3886C107.777 23.6 108.459 23.7439 109.151 23.818C110.006 23.9201 110.868 23.97 111.73 23.9673C112.313 23.9858 112.897 23.9451 113.472 23.846C113.816 23.7649 113.988 23.6374 113.987 23.4633C113.987 23.2518 113.806 23.1024 113.443 23.015C112.864 22.8948 112.279 22.8076 111.691 22.7539C110.828 22.6682 109.97 22.5404 109.121 22.3711C108.477 22.2413 107.871 21.9733 107.35 21.587C107.097 21.3925 106.896 21.1428 106.764 20.8586C106.632 20.5744 106.572 20.264 106.591 19.9533C106.603 19.4719 106.729 18.9994 106.961 18.572C107.228 18.0592 107.591 17.5973 108.031 17.2089C107.734 16.9417 107.499 16.6174 107.341 16.257C107.183 15.8967 107.107 15.5085 107.116 15.1178C107.105 14.4264 107.346 13.753 107.797 13.2138C108.296 12.6383 108.97 12.227 109.724 12.0375L116.498 10.0771L117.258 12.4669L115.604 12.8216C115.988 13.1132 116.309 13.4749 116.547 13.8857C116.776 14.2863 116.893 14.7363 116.889 15.1928C116.898 15.8144 116.685 16.4203 116.286 16.9102C115.837 17.4402 115.244 17.8409 114.573 18.068C113.756 18.3544 112.892 18.4936 112.023 18.4784C111.305 18.4885 110.59 18.3941 109.901 18.1983C109.848 18.3422 109.821 18.494 109.823 18.6467C109.822 18.9205 110.009 19.1072 110.386 19.2068ZM112.887 15.9208C113.002 15.8111 113.091 15.6798 113.15 15.5351C113.209 15.3905 113.236 15.2357 113.229 15.0806C113.235 14.9349 113.208 14.7896 113.151 14.6544C113.094 14.5192 113.008 14.3972 112.898 14.2965C112.658 14.0906 112.343 13.9834 112.022 13.9979C111.687 13.9835 111.359 14.0938 111.107 14.3056C110.991 14.4087 110.899 14.5347 110.839 14.6749C110.778 14.8151 110.75 14.9661 110.756 15.1178C110.75 15.2687 110.777 15.4192 110.836 15.5593C110.895 15.6994 110.984 15.8258 111.098 15.9302C111.346 16.1431 111.671 16.2536 112.003 16.238C112.165 16.2442 112.327 16.2193 112.478 16.1648C112.63 16.1103 112.769 16.0274 112.887 15.9208Z" fill="#7A8680"/>
<path d="M125.354 21.6339C124.341 22.1254 123.22 22.3753 122.085 22.3623C120.877 22.3623 119.946 22.076 119.291 21.5035C118.953 21.1879 118.69 20.806 118.521 20.3839C118.351 19.9618 118.279 19.5095 118.308 19.0581C118.281 18.5951 118.369 18.1324 118.565 17.7086C118.761 17.2847 119.06 16.912 119.437 16.6213C120.189 16.0554 121.266 15.7723 122.669 15.7721C123.374 15.7754 124.073 15.9019 124.731 16.1454V15.9028C124.741 15.7073 124.701 15.5125 124.614 15.3352C124.528 15.1579 124.398 15.0034 124.235 14.8849C123.825 14.6202 123.336 14.4922 122.843 14.5207C122.235 14.5249 121.627 14.5654 121.024 14.642C120.392 14.7172 119.764 14.8266 119.145 14.9698V12.3936C119.805 12.1736 120.487 12.0172 121.179 11.9267C121.982 11.8135 122.791 11.7573 123.602 11.7588C125.121 11.7588 126.305 12.098 127.155 12.7763C127.579 13.1221 127.915 13.5571 128.137 14.0476C128.358 14.5381 128.458 15.0708 128.43 15.6045V22.2883C127.366 22.2994 126.314 22.0755 125.354 21.6339ZM123.622 19.86C124.001 19.855 124.377 19.7856 124.731 19.655V18.2547C124.379 18.1152 124.003 18.0393 123.622 18.0307C122.623 18.0307 122.123 18.348 122.123 18.9827C122.123 19.5678 122.623 19.8602 123.622 19.86Z" fill="#7A8680"/>
<path d="M141.511 15.8835V22.1754H137.813V16.1635C137.832 15.9396 137.804 15.7142 137.731 15.5009C137.657 15.2875 137.539 15.0906 137.384 14.922C137.022 14.629 136.553 14.4851 136.081 14.5215C135.465 14.5303 134.865 14.705 134.348 15.0255V22.1761H130.648V11.8335C131.847 11.8029 133.031 12.087 134.074 12.655C135.156 12.0887 136.365 11.7812 137.597 11.7588C140.206 11.7581 141.511 13.133 141.511 15.8835Z" fill="#7A8680"/>
<path d="M150.376 19.524C149.5 21.1424 148.244 23.3952 146.609 26.2824H142.833C144.286 23.806 145.499 21.6776 146.473 19.8973C146.058 19.126 145.085 17.2901 143.553 14.3898C143.385 14.0664 143.196 13.6993 142.989 13.2885C142.781 12.8777 142.547 12.4297 142.288 11.9443H146.239C146.733 13.0272 147.434 14.5455 148.341 16.4995L149.12 14.8006L150.424 11.9443H154.376C152.585 15.3793 151.252 17.9058 150.376 19.524Z" fill="#7A8680"/>
</g>
<defs>
<clipPath id="clip0_85_6153">
<rect width="154" height="40" fill="white" transform="translate(0.375977 0.0478516)"/>
</clipPath>
</defs>
</svg>
