<svg width="56" height="57" viewBox="0 0 56 57" fill="none" xmlns="http://www.w3.org/2000/svg">
<path d="M0 28.0996C0 12.6356 12.536 0.0996094 28 0.0996094C43.464 0.0996094 56 12.6356 56 28.0996C56 43.5636 43.464 56.0996 28 56.0996C12.536 56.0996 0 43.5636 0 28.0996Z" fill="#142A20"/>
<path d="M19 19.0996H37C37.2652 19.0996 37.5196 19.205 37.7071 19.3925C37.8946 19.58 38 19.8344 38 20.0996V36.0996C38 36.3648 37.8946 36.6192 37.7071 36.8067C37.5196 36.9943 37.2652 37.0996 37 37.0996H19C18.7348 37.0996 18.4804 36.9943 18.2929 36.8067C18.1054 36.6192 18 36.3648 18 36.0996V20.0996C18 19.8344 18.1054 19.58 18.2929 19.3925C18.4804 19.205 18.7348 19.0996 19 19.0996ZM28.06 27.7826L21.648 22.3376L20.353 23.8616L28.073 30.4166L35.654 23.8566L34.346 22.3436L28.061 27.7826H28.06Z" fill="#FAFBFA"/>
</svg>
