<svg width="145" height="33" viewBox="0 0 145 33" fill="none" xmlns="http://www.w3.org/2000/svg">
<g clip-path="url(#clip0_85_6108)">
<path d="M144.623 14.5247V11.8885H141.478V7.79038L141.373 7.82449L138.419 8.76521L138.361 8.78381V11.889H133.699V10.1577C133.654 9.5023 133.836 8.85189 134.213 8.32452C134.394 8.11741 134.617 7.95495 134.867 7.84892C135.116 7.74289 135.385 7.69597 135.653 7.71155C136.126 7.71803 136.591 7.82821 137.02 8.03486L137.136 8.0889V5.31501L137.081 5.29464C136.516 5.11337 135.926 5.03134 135.335 5.05193C134.472 5.03796 133.62 5.25125 132.857 5.67199C132.141 6.07315 131.551 6.6805 131.157 7.42145C130.748 8.20971 130.541 9.09442 130.556 9.99027V11.8916H128.366V14.5278H130.556V25.6295H133.699V14.5247H138.362V21.5796C138.362 24.4882 139.679 25.959 142.276 25.959C142.725 25.9563 143.172 25.9047 143.611 25.8049C143.947 25.7454 144.274 25.6375 144.582 25.4843L144.625 25.4586V22.7985L144.497 22.8871C144.302 23.0156 144.089 23.1114 143.865 23.171C143.664 23.2358 143.455 23.2727 143.245 23.2808C143 23.3031 142.753 23.2693 142.522 23.1816C142.291 23.094 142.081 22.9548 141.907 22.7737C141.576 22.2544 141.426 21.633 141.481 21.0127V14.5247H144.623ZM121.344 23.2822C120.842 23.3094 120.341 23.2184 119.878 23.0158C119.415 22.8133 119.002 22.5045 118.67 22.1125C117.981 21.1664 117.64 19.9945 117.709 18.8093C117.636 17.5963 117.976 16.3954 118.67 15.418C118.996 15.0231 119.403 14.7107 119.863 14.5048C120.322 14.2988 120.82 14.2047 121.319 14.2297C121.803 14.2057 122.286 14.2952 122.733 14.4917C123.179 14.6882 123.577 14.9866 123.898 15.3649C124.587 16.3335 124.921 17.5261 124.84 18.7283C124.92 19.9347 124.608 21.1339 123.954 22.1337C123.635 22.5235 123.233 22.8302 122.78 23.0294C122.327 23.2286 121.836 23.3147 121.345 23.2808L121.344 23.2822ZM121.484 11.5524C120.544 11.4984 119.603 11.6457 118.719 11.9852C117.835 12.3246 117.028 12.849 116.346 13.5259C115.709 14.2504 115.216 15.0998 114.897 16.0246C114.578 16.9493 114.44 17.9309 114.489 18.9121C114.444 19.852 114.581 20.7917 114.892 21.6753C115.204 22.5588 115.683 23.368 116.301 24.0546C116.945 24.6986 117.709 25.1992 118.545 25.5259C119.382 25.8526 120.273 25.9984 121.165 25.9546C122.092 26.002 123.018 25.8487 123.885 25.5043C124.752 25.16 125.541 24.6321 126.202 23.954C126.834 23.2365 127.324 22.3958 127.642 21.4805C127.961 20.5651 128.102 19.5931 128.058 18.6206C128.157 16.7227 127.531 14.8611 126.317 13.4418C125.681 12.7958 124.923 12.2944 124.091 11.9694C123.258 11.6445 122.371 11.5031 121.483 11.5542L121.484 11.5524ZM109.42 11.5542C108.113 11.4967 106.826 11.9105 105.778 12.7256C105.328 13.0818 104.964 13.5437 104.717 14.0739C104.471 14.6041 104.348 15.1874 104.359 15.7763C104.348 16.3596 104.452 16.9391 104.665 17.4788C104.876 17.976 105.198 18.4137 105.604 18.7557C106.19 19.2138 106.832 19.588 107.513 19.8683C108.057 20.0909 108.588 20.3483 109.102 20.6389C109.372 20.7858 109.611 20.9894 109.802 21.2368C109.942 21.4701 110.01 21.7425 109.996 22.0172C109.996 22.9393 109.332 23.3902 107.965 23.3902C107.38 23.3758 106.8 23.2655 106.247 23.0634C105.618 22.849 105.025 22.5354 104.487 22.1333L104.357 22.0363V25.1871L104.404 25.2105C104.939 25.4534 105.498 25.633 106.071 25.746C106.655 25.8789 107.252 25.9502 107.85 25.959C109.223 26.0337 110.58 25.6179 111.695 24.7805C112.153 24.4146 112.522 23.941 112.771 23.3982C113.02 22.8555 113.142 22.2592 113.127 21.658C113.149 20.8005 112.876 19.9628 112.356 19.2969C111.629 18.5107 110.732 17.9162 109.74 17.5625C109.072 17.3296 108.443 16.9892 107.876 16.5536C107.747 16.4136 107.647 16.2473 107.582 16.0652C107.517 15.883 107.489 15.689 107.5 15.4951C107.497 15.3038 107.539 15.1147 107.622 14.9441C107.705 14.7735 107.827 14.6265 107.977 14.5158C108.368 14.2339 108.839 14.0957 109.315 14.123C109.855 14.1257 110.391 14.2115 110.907 14.3776C111.401 14.5273 111.869 14.7535 112.298 15.0486L112.426 15.1403V12.1569L112.377 12.1348C111.922 11.946 111.448 11.8085 110.965 11.7247C110.454 11.6212 109.936 11.5661 109.416 11.5599L109.42 11.5542ZM96.1656 23.2822C95.664 23.3095 95.1628 23.2184 94.6997 23.0159C94.2366 22.8134 93.8234 22.5045 93.491 22.1125C92.8026 21.1672 92.4619 19.9968 92.5306 18.8128C92.4575 17.5999 92.7979 16.3989 93.4918 15.4216C93.8171 15.0265 94.2249 14.714 94.6839 14.5081C95.143 14.3021 95.6412 14.2081 96.1405 14.2333C96.6246 14.2092 97.1077 14.2987 97.5541 14.4952C98.0005 14.6917 98.3988 14.9901 98.7194 15.3684C99.4081 16.3371 99.7421 17.5297 99.6614 18.7318C99.741 19.9382 99.4291 21.1375 98.7756 22.1373C98.4568 22.5271 98.0548 22.8339 97.6018 23.033C97.1487 23.2322 96.6572 23.3183 96.1665 23.2844L96.1656 23.2822ZM96.3069 11.5559C95.3663 11.502 94.4251 11.6493 93.5414 11.9887C92.6576 12.3281 91.8501 12.8525 91.1686 13.5295C90.531 14.2541 90.0383 15.1036 89.7194 16.0285C89.4005 16.9534 89.2618 17.9352 89.3114 18.9165C89.2663 19.8565 89.4035 20.7963 89.715 21.6798C90.0265 22.5634 90.5059 23.3725 91.1244 24.059C91.7686 24.7031 92.5322 25.2037 93.3685 25.5304C94.2049 25.8571 95.0963 26.0029 95.9886 25.959C96.9154 26.0064 97.8416 25.8531 98.7085 25.5087C99.5754 25.1643 100.364 24.6365 101.025 23.9585C101.657 23.2409 102.147 22.4003 102.465 21.4849C102.784 20.5695 102.925 19.5976 102.882 18.6251C102.981 16.7271 102.354 14.8654 101.14 13.4462C100.503 12.8005 99.7453 12.2994 98.9134 11.9747C98.0814 11.65 97.1936 11.5087 96.3065 11.5599L96.3069 11.5559ZM84.5395 14.2705V11.8885H81.4334V25.6295H84.5395V18.602C84.495 17.5684 84.7661 16.5467 85.3139 15.6833C85.5335 15.3391 85.8326 15.0576 86.1838 14.8648C86.5349 14.672 86.9269 14.5739 87.3239 14.5796C87.6398 14.5845 87.9537 14.6322 88.2579 14.7213C88.5135 14.7806 88.758 14.8837 88.9812 15.0265L89.1118 15.1253V11.8651L89.0612 11.8425C88.6715 11.6975 88.2586 11.6323 87.8451 11.6503C87.0863 11.6424 86.3497 11.9172 85.7683 12.4249C85.2241 12.9224 84.8125 13.5578 84.5735 14.2696L84.5395 14.2705ZM75.8735 11.559C74.5578 11.5315 73.2575 11.857 72.0977 12.5042C71.0311 13.1151 70.164 14.0435 69.6073 15.1704C69.0205 16.3957 68.7271 17.7505 68.752 19.1193C68.7366 20.3536 69.0227 21.5718 69.5834 22.6594C70.1158 23.6903 70.9226 24.5393 71.9071 25.1047C72.9495 25.6888 74.1184 25.9846 75.3021 25.9639C76.6069 26.0074 77.8998 25.6925 79.0506 25.0507L79.0932 25.0267V22.0628L78.9626 22.1621C78.4979 22.5129 77.9861 22.7905 77.4436 22.9859C76.9666 23.1712 76.4633 23.2727 75.9543 23.2861C75.4174 23.3134 74.881 23.2225 74.3801 23.0193C73.8792 22.8162 73.4251 22.5053 73.0474 22.1071C72.2948 21.2048 71.9101 20.0325 71.9751 18.8394C71.9181 17.6132 72.3186 16.4114 73.0929 15.4853C73.4642 15.0722 73.9162 14.7468 74.4186 14.5309C74.9209 14.315 75.4618 14.2136 76.005 14.2337C77.0751 14.2512 78.1114 14.6265 78.9609 15.3042L79.0911 15.403V12.2809L79.0485 12.2561C78.5963 12.0143 78.112 11.8438 77.6116 11.7504C77.0408 11.6246 76.4591 11.5597 75.8756 11.5568L75.8735 11.559ZM66.6148 11.8881H63.5087V25.6295H66.6148V11.8881ZM65.0941 6.03472C64.6021 6.02675 64.1269 6.2207 63.7712 6.57462C63.5925 6.74558 63.4507 6.95417 63.3553 7.18654C63.26 7.4189 63.2132 7.66973 63.2181 7.92237C63.2127 8.17045 63.2585 8.41684 63.3526 8.64486C63.4466 8.87288 63.5866 9.0772 63.7631 9.24398C64.1235 9.59285 64.6004 9.78176 65.0924 9.77059C65.5856 9.78083 66.0636 9.5925 66.4267 9.24487C66.6056 9.07926 66.7478 8.87529 66.8437 8.64699C66.9395 8.41868 66.9867 8.17147 66.982 7.92237C66.9845 7.67347 66.9378 7.42669 66.8449 7.19736C66.7519 6.96802 66.6147 6.76103 66.4416 6.58924C66.2641 6.4069 66.053 6.26375 65.821 6.16839C65.589 6.07303 65.3409 6.02742 65.0915 6.03428L65.0941 6.03472ZM57.3429 10.8743V25.6304H60.512V6.45592H56.1264L50.5525 20.6978L45.1411 6.45592H40.5747V25.6291H43.5531V10.8725H43.6553L49.3679 25.6286H51.6171L57.2412 10.8725H57.3433L57.3429 10.8743Z" fill="#7A8680"/>
<path d="M15.2316 15.2531H0.624023V0.0478516H15.2316V15.2531Z" fill="#7A8680"/>
<path d="M31.3605 15.2531H16.7529V0.0478516H31.3605V15.2531Z" fill="#7A8680"/>
<path d="M15.2316 32.047H0.624023V16.8418H15.2316V32.047Z" fill="#7A8680"/>
<path d="M31.3605 32.047H16.7529V16.8418H31.3605V32.047Z" fill="#7A8680"/>
</g>
<defs>
<clipPath id="clip0_85_6108">
<rect width="144" height="32" fill="white" transform="translate(0.624023 0.0478516)"/>
</clipPath>
</defs>
</svg>
