<svg width="130" height="38" viewBox="0 0 130 38" fill="none" xmlns="http://www.w3.org/2000/svg">
<path d="M61.5105 7.27268C61.6131 8.81709 61.1756 10.3492 60.2727 11.6079C59.3698 12.8667 58.0573 13.7742 56.5588 14.1758C53.8872 14.8063 51.2988 15.7466 48.8464 16.9776C46.0295 18.3791 43.568 20.4 41.6475 22.888C39.7269 25.376 38.3975 28.2663 37.7591 31.3412C37.4912 32.968 36.6662 34.4519 35.4246 35.5401C34.183 36.6282 32.6016 37.2533 30.9498 37.3088L30.5552 37.3086C28.9034 37.2519 27.3224 36.6256 26.0816 35.5365C24.8408 34.4475 24.017 32.9629 23.7504 31.3359C23.1143 28.2605 21.787 25.3692 19.8683 22.8798C17.9497 20.3903 15.4897 18.3676 12.6738 16.964C10.2224 15.7312 7.63464 14.7889 4.96352 14.1564C3.49936 13.73 2.21875 12.8303 1.32292 11.5989C0.427084 10.3674 -0.0331924 8.87391 0.0144349 7.35312C0.0620622 5.83234 0.614907 4.37045 1.58605 3.19717C2.55719 2.0239 3.89159 1.20577 5.37958 0.871318C6.29202 0.65433 7.23905 0.623962 8.1636 0.78197C9.08814 0.939978 9.97104 1.28312 10.759 1.79072C11.547 2.29832 12.2238 2.95982 12.7486 3.7354C13.2733 4.51098 13.6352 5.38453 13.8123 6.30339C14.66 9.72245 16.1482 12.9507 18.1988 15.818C21.4855 20.2312 25.5786 22.857 30.7579 22.7605C35.9372 22.8609 40.0322 20.2382 43.3223 15.8274C45.375 12.9618 46.8658 9.73459 47.7159 6.31617C47.8938 5.39744 48.2563 4.52416 48.7816 3.74897C49.307 2.97379 49.9843 2.3128 50.7726 1.8058C51.561 1.29879 52.4442 0.95631 53.3688 0.798998C54.2935 0.641687 55.2405 0.672768 56.1528 0.890444C57.6345 1.1997 58.9687 1.99745 59.9406 3.15519C60.9125 4.31293 61.4655 5.76329 61.5105 7.27268Z" fill="#51A969"/>
<path d="M6.98522 24.0407C8.25123 24.0557 9.48455 24.4436 10.5303 25.1556C11.576 25.8676 12.3875 26.872 12.8628 28.0426C13.3381 29.2132 13.4561 30.4978 13.2018 31.7351C12.9476 32.9723 12.3325 34.107 11.4338 34.9967C10.5352 35.8863 9.39298 36.4913 8.15077 36.7355C6.90856 36.9796 5.62173 36.8522 4.45189 36.3692C3.28204 35.8861 2.28135 35.069 1.57555 34.0205C0.869755 32.972 0.490321 31.7387 0.48488 30.4758C0.506195 28.7672 1.19946 27.1353 2.41531 25.9317C3.63115 24.728 5.27227 24.0489 6.98522 24.0407Z" fill="#ED5B49"/>
<path d="M48.4318 30.4201C48.4346 28.7426 49.1006 27.1339 50.2854 25.9434C51.4701 24.753 53.0779 24.0769 54.7595 24.0619C56.0356 24.0432 57.2884 24.4042 58.358 25.0988C59.4275 25.7934 60.2654 26.7902 60.7646 27.9619C61.2638 29.1336 61.4017 30.427 61.1607 31.6772C60.9197 32.9275 60.3109 34.0777 59.4117 34.9812C58.5125 35.8847 57.3639 36.5005 56.1124 36.7499C54.8608 36.9994 53.5632 36.8712 52.385 36.3818C51.2068 35.8923 50.2015 35.0638 49.4974 34.002C48.7933 32.9401 48.4224 31.6931 48.4318 30.4201Z" fill="#ED5B49"/>
<path d="M37.133 7.62431C37.1318 8.87917 36.7585 10.1056 36.06 11.1492C35.3615 12.1928 34.369 13.007 33.2076 13.4891C32.0462 13.9712 30.7677 14.0998 29.5332 13.8586C28.2987 13.6174 27.1634 13.0173 26.2701 12.1337C25.3768 11.2502 24.7656 10.1227 24.5133 8.89337C24.2611 7.66399 24.3791 6.38767 24.8525 5.22508C25.326 4.06248 26.1337 3.06561 27.1739 2.35999C28.2142 1.65437 29.4404 1.27156 30.6983 1.25974C31.545 1.23686 32.3875 1.38543 33.175 1.69649C33.9625 2.00754 34.6786 2.47462 35.28 3.0695C35.8814 3.66437 36.3557 4.37469 36.6742 5.15755C36.9927 5.94042 37.1488 6.77958 37.133 7.62431Z" fill="#ED5B49"/>
<path d="M82.7358 11L86.1678 2.96H84.6438L81.8838 9.692H81.7878L79.0038 2.96H77.4678L80.8998 11H82.7358ZM88.4697 11.12C89.8257 11.12 90.7737 10.52 91.0857 9.512H91.1697V11H92.3577V7.376C92.3577 5.948 91.5057 4.916 89.6097 4.916C87.7137 4.916 86.5857 5.936 86.5857 7.292V7.34H87.8697V7.292C87.8697 6.416 88.4097 6.056 89.5137 6.056C90.6537 6.056 91.0857 6.404 91.0857 7.388V7.736L88.3737 8.024C87.1977 8.156 86.4537 8.636 86.4537 9.56C86.4537 10.544 87.2337 11.12 88.4697 11.12ZM87.7497 9.476C87.7497 9.008 88.0737 8.852 88.7457 8.768L91.0857 8.504C91.0857 9.68 90.1737 10.184 88.8177 10.184C88.0737 10.184 87.7497 9.956 87.7497 9.476ZM94.8106 11V7.652C94.8106 6.584 95.2306 6.02 96.2506 6.02C97.1386 6.02 97.4986 6.416 97.4986 7.268V7.796H98.7826V7.016C98.7826 5.888 98.1946 4.916 96.8386 4.916C95.6146 4.916 94.9666 5.684 94.7866 6.644H94.7026V5.036H93.5146V11H94.8106ZM100.893 4.34V2.96H99.5966V4.34H100.893ZM100.893 11V5.036H99.5966V11H100.893ZM103.845 11.12C105.201 11.12 106.149 10.52 106.461 9.512H106.545V11H107.733V7.376C107.733 5.948 106.881 4.916 104.985 4.916C103.089 4.916 101.961 5.936 101.961 7.292V7.34H103.245V7.292C103.245 6.416 103.785 6.056 104.889 6.056C106.029 6.056 106.461 6.404 106.461 7.388V7.736L103.749 8.024C102.573 8.156 101.829 8.636 101.829 9.56C101.829 10.544 102.609 11.12 103.845 11.12ZM103.125 9.476C103.125 9.008 103.449 8.852 104.121 8.768L106.461 8.504C106.461 9.68 105.549 10.184 104.193 10.184C103.449 10.184 103.125 9.956 103.125 9.476ZM110.078 11V9.284H110.162C110.414 10.472 111.29 11.12 112.646 11.12C114.542 11.12 115.562 9.86 115.562 8.024C115.562 6.164 114.554 4.916 112.718 4.916C111.29 4.916 110.498 5.648 110.258 6.656H110.186V2.96H108.89V11H110.078ZM110.186 8.084V7.988C110.186 6.716 110.918 6.092 112.262 6.092C113.534 6.092 114.266 6.584 114.266 8.024C114.266 9.452 113.546 9.932 112.238 9.932C110.954 9.932 110.186 9.332 110.186 8.084ZM117.756 11V2.96H116.46V11H117.756ZM121.956 11.12C123.732 11.12 124.98 10.244 124.98 8.972V8.864H123.684V8.96C123.684 9.668 123.168 10.076 121.92 10.076C120.54 10.076 119.976 9.464 119.928 8.312H124.992C125.028 8.132 125.04 7.964 125.04 7.748C125.04 5.936 123.78 4.916 121.932 4.916C119.988 4.916 118.716 6.164 118.716 8.024C118.716 10.016 120 11.12 121.956 11.12ZM121.908 5.936C123.18 5.936 123.816 6.464 123.816 7.568V7.592H119.94C120.012 6.524 120.588 5.936 121.908 5.936ZM81.8598 23C84.3558 23 85.9278 21.464 85.9278 18.98C85.9278 16.496 84.3558 14.96 81.8598 14.96H78.1998V23H81.8598ZM81.8598 16.124C83.7198 16.124 84.5598 16.916 84.5598 18.98C84.5598 21.044 83.7198 21.836 81.8598 21.836H79.4838V16.124H81.8598ZM88.6455 23.12C90.0015 23.12 90.9495 22.52 91.2615 21.512H91.3455V23H92.5335V19.376C92.5335 17.948 91.6815 16.916 89.7855 16.916C87.8895 16.916 86.7615 17.936 86.7615 19.292V19.34H88.0455V19.292C88.0455 18.416 88.5855 18.056 89.6895 18.056C90.8295 18.056 91.2615 18.404 91.2615 19.388V19.736L88.5495 20.024C87.3735 20.156 86.6295 20.636 86.6295 21.56C86.6295 22.544 87.4095 23.12 88.6455 23.12ZM87.9255 21.476C87.9255 21.008 88.2495 20.852 88.9215 20.768L91.2615 20.504C91.2615 21.68 90.3495 22.184 88.9935 22.184C88.2495 22.184 87.9255 21.956 87.9255 21.476ZM97.6023 23V21.836H96.5223C95.7783 21.836 95.4423 21.644 95.4423 20.912V18.116H97.6023V17.036H95.4423V15.728H94.1583V17.036H93.1503V18.116H94.1583V20.984C94.1583 22.436 94.9503 23 96.2343 23H97.6023ZM100.165 23.12C101.521 23.12 102.469 22.52 102.781 21.512H102.865V23H104.053V19.376C104.053 17.948 103.201 16.916 101.305 16.916C99.409 16.916 98.281 17.936 98.281 19.292V19.34H99.565V19.292C99.565 18.416 100.105 18.056 101.209 18.056C102.349 18.056 102.781 18.404 102.781 19.388V19.736L100.069 20.024C98.893 20.156 98.149 20.636 98.149 21.56C98.149 22.544 98.929 23.12 100.165 23.12ZM99.445 21.476C99.445 21.008 99.769 20.852 100.441 20.768L102.781 20.504C102.781 21.68 101.869 22.184 100.513 22.184C99.769 22.184 99.445 21.956 99.445 21.476Z" fill="#FAFBFA"/>
<path d="M79.4238 35V30.284L79.3758 28.892H79.4718L80.4798 30.308L84.1038 35H85.4958V26.96H84.1998V31.712L84.2598 33.164H84.1638L83.1198 31.664L79.5198 26.96H78.1278V35H79.4238ZM89.6942 35.12C91.4702 35.12 92.7182 34.244 92.7182 32.972V32.864H91.4222V32.96C91.4222 33.668 90.9062 34.076 89.6582 34.076C88.2782 34.076 87.7142 33.464 87.6662 32.312H92.7302C92.7662 32.132 92.7782 31.964 92.7782 31.748C92.7782 29.936 91.5182 28.916 89.6702 28.916C87.7262 28.916 86.4542 30.164 86.4542 32.024C86.4542 34.016 87.7382 35.12 89.6942 35.12ZM89.6462 29.936C90.9182 29.936 91.5542 30.464 91.5542 31.568V31.592H87.6782C87.7502 30.524 88.3262 29.936 89.6462 29.936ZM97.6609 35V33.836H96.5809C95.8369 33.836 95.5009 33.644 95.5009 32.912V30.116H97.6609V29.036H95.5009V27.728H94.2169V29.036H93.2089V30.116H94.2169V32.984C94.2169 34.436 95.0089 35 96.2929 35H97.6609ZM101.328 35L102.648 31.568L103.104 30.104H103.2L103.656 31.568L104.964 35H106.572L108.384 29.036H107.064L106.068 32.42L105.792 33.956H105.696L105.252 32.3L103.992 29.036H102.336L101.088 32.3L100.644 33.956H100.548L100.272 32.42L99.2756 29.036H97.9316L99.7196 35H101.328ZM112.09 35.12C114.082 35.12 115.414 33.86 115.414 32.024C115.414 30.164 114.082 28.916 112.09 28.916C110.11 28.916 108.778 30.164 108.778 32.024C108.778 33.86 110.11 35.12 112.09 35.12ZM112.09 33.968C110.65 33.968 110.05 33.284 110.05 32.024C110.05 30.752 110.65 30.056 112.09 30.056C113.542 30.056 114.142 30.752 114.142 32.024C114.142 33.284 113.542 33.968 112.09 33.968ZM117.65 35V31.652C117.65 30.584 118.07 30.02 119.09 30.02C119.978 30.02 120.338 30.416 120.338 31.268V31.796H121.622V31.016C121.622 29.888 121.034 28.916 119.678 28.916C118.454 28.916 117.806 29.684 117.626 30.644H117.542V29.036H116.354V35H117.65ZM123.732 35V32.564H125.436L127.2 35H128.724L126.492 31.904L128.736 29.036H127.224L125.436 31.4H123.732V26.96H122.436V35H123.732Z" fill="#ED5B49"/>
</svg>
