<svg width="168" height="33" viewBox="0 0 168 33" fill="none" xmlns="http://www.w3.org/2000/svg">
<path d="M92.7775 31.2337C93.5386 31.2364 94.2925 31.0873 94.9941 30.7954V31.5708C94.2582 31.8537 93.4755 31.9989 92.6861 31.9988C90.3542 31.9988 89.1729 30.7047 89.1729 28.1503C89.1729 25.5959 90.3545 24.3018 92.6861 24.3018C93.4769 24.2981 94.2608 24.447 94.9941 24.7402V25.5158C94.2933 25.2198 93.5394 25.0665 92.7775 25.0648C90.857 25.0648 89.9927 26.0216 89.9927 28.1483C89.9925 30.2874 90.857 31.2337 92.7775 31.2337Z" fill="#7A8680"/>
<path d="M105.643 28.9275L104.312 25.4944L102.981 28.9275H105.643ZM107.734 32.0467H106.859L105.949 29.7053H102.675L101.765 32.0467H100.877L103.901 24.54H104.719L107.734 32.0467Z" fill="#7A8680"/>
<path d="M119.559 26.8583C119.559 26.1376 119.344 25.3157 117.649 25.3157H115.875V28.399H117.649C119.342 28.4011 119.559 27.5792 119.559 26.8583ZM120.376 26.8583C120.376 28.3548 119.444 29.1768 117.751 29.1768H115.875V32.0472H115.057V24.54H117.753C119.444 24.54 120.376 25.362 120.376 26.8583Z" fill="#7A8680"/>
<path d="M128.759 24.54H127.941V32.0472H128.759V24.54Z" fill="#7A8680"/>
<path d="M143.657 24.54V25.3283H140.985V32.0472H140.167V25.3283H137.484V24.54H143.657Z" fill="#7A8680"/>
<path d="M154.522 28.928L153.191 25.4948L151.861 28.928H154.522ZM156.615 32.0472H155.74L154.831 29.7058H151.556L150.647 32.0472H149.759L152.783 24.54H153.6L156.615 32.0472Z" fill="#7A8680"/>
<path d="M167.756 31.2589V32.0472H163.061V24.54H163.879V31.2589H167.756Z" fill="#7A8680"/>
<path d="M12.0633 7.16676C12.0633 5.08029 11.3201 3.69988 7.81544 3.69988H4.09571V10.6971H7.81544C11.3201 10.6942 12.0633 9.28494 12.0633 7.16676ZM15.754 7.16676C15.754 11.5232 12.9648 14.0396 8.09744 14.0396H4.09571V20.7606H0.375977V0.293945H8.09375C12.9618 0.293945 15.7531 2.80834 15.7531 7.16676H15.754Z" fill="#7A8680"/>
<path d="M34.0469 17.262V20.7606H20.3745V0.293945H24.0942V17.2647H34.0462L34.0469 17.262Z" fill="#7A8680"/>
<path d="M80.9478 0.293945V3.97586H74.3131V20.7606H70.5934V3.97586H63.9912V0.293945H80.9478Z" fill="#7A8680"/>
<path opacity="0.16" d="M63.9911 8.91361V8.79555H56.7511V0.205078H43.5988V8.79555H36.3596V8.91361H36.3574V20.7624H40.0793V12.4775H47.3187V3.88782H53.0314V12.4783H60.2707V20.7632H63.9911V8.91361Z" fill="#7A8680"/>
<path d="M98.9331 0.293945V3.60921H89.292V8.79392H97.6322V12.2608H89.292V20.7606H85.5723V0.293945H98.9331Z" fill="#7A8680"/>
<path d="M117.903 10.5119C117.903 4.15968 115.052 3.30201 111.952 3.30201C108.884 3.30201 106.03 4.16184 106.03 10.5119C106.03 16.8937 108.881 17.7851 111.952 17.7851C115.052 17.7851 117.903 16.8935 117.903 10.5119ZM121.623 10.5415C121.623 19.1952 116.353 21.0055 111.95 21.0055C107.547 21.0055 102.309 19.1955 102.309 10.5415C102.311 1.85834 107.549 0.0478516 111.952 0.0478516C116.355 0.0478516 121.623 1.85817 121.623 10.5413V10.5415Z" fill="#7A8680"/>
<path d="M134.089 10.1743C136.229 10.1743 138.119 9.6833 138.119 6.95188C138.119 4.1909 136.229 3.72944 134.089 3.72944H129.967V10.1743H134.089ZM142.738 20.7606H138.243L133.314 13.5504H129.964V20.7603H126.245V0.293945H134.18C138.953 0.293945 141.836 2.59546 141.836 6.86122C141.836 10.7582 139.326 12.3244 137.31 12.9373L142.738 20.7606Z" fill="#7A8680"/>
<path d="M167.755 0.293945V20.7606H164.036V5.63308L157.651 14.6845L151.263 5.63258V20.7601H147.543V0.293945H151.666L157.649 8.85486L163.632 0.293945H167.755Z" fill="#7A8680"/>
</svg>
