<svg width="25" height="25" viewBox="0 0 25 25" fill="none" xmlns="http://www.w3.org/2000/svg">
<path d="M21.042 3.09912V21.0991C21.042 21.3643 20.9366 21.6187 20.7491 21.8062C20.5616 21.9938 20.3072 22.0991 20.042 22.0991H4.04199C3.77678 22.0991 3.52242 21.9938 3.33489 21.8062C3.14735 21.6187 3.04199 21.3643 3.04199 21.0991V3.09912C3.04199 2.8339 3.14735 2.57955 3.33489 2.39201C3.52242 2.20448 3.77678 2.09912 4.04199 2.09912H20.042C20.3072 2.09912 20.5616 2.20448 20.7491 2.39201C20.9366 2.57955 21.042 2.8339 21.042 3.09912ZM5.04199 16.0991V20.0991H19.042V16.0991H5.04199ZM15.042 17.0991H17.042V19.0991H15.042V17.0991Z" fill="#51A969"/>
</svg>
