<svg width="160" height="34" viewBox="0 0 160 34" fill="none" xmlns="http://www.w3.org/2000/svg">
<path d="M130.107 24.4839C129.789 25.859 128.753 25.832 127.64 25.7924C126.079 25.7349 126.078 25.7777 126.078 24.1917C126.078 19.2719 126.078 14.3522 126.078 9.43273C126.078 8.44641 126.088 8.4371 127.074 8.43393C127.895 8.43135 128.715 8.44483 129.536 8.43393C130.144 8.4258 130.421 8.64169 130.404 9.30882C130.362 11.0059 130.39 12.7049 130.39 14.4926C130.583 14.4142 130.764 14.3088 130.927 14.1796C132.579 12.4635 135.408 12.4793 136.786 14.3719C137.397 15.2101 137.724 16.3005 137.992 17.3259C138.365 18.7482 138.295 20.2345 137.995 21.6603C137.347 24.7414 135.854 26.4956 132.276 25.7246C131.551 25.5658 130.922 24.9637 130.107 24.4839ZM130.378 19.3082L130.236 19.3459C130.432 20.1675 130.573 21.0073 130.842 21.8043C131.073 22.4884 131.77 22.4954 132.343 22.465C132.651 22.4591 132.948 22.3488 133.185 22.1522C133.421 21.9557 133.584 21.6847 133.645 21.384C133.984 20.1522 134.139 18.9528 133.695 17.6881C133.416 16.8935 132.942 16.3243 132.156 16.3019C131.748 16.3112 131.356 16.4611 131.047 16.7261C130.737 16.9911 130.53 17.3548 130.46 17.7549C130.39 18.2674 130.403 18.7902 130.378 19.3082Z" fill="#7A8680"/>
<path d="M83.7572 25.7766C83.7329 25.4374 83.6975 25.1729 83.6975 24.9084C83.6943 19.7377 83.7076 14.567 83.6807 9.39635C83.6769 8.66102 83.8748 8.36105 84.647 8.41914C85.4388 8.47861 86.2389 8.44828 87.0346 8.42945C87.6337 8.41537 87.8915 8.65725 87.8706 9.26867C87.8204 10.6775 87.8045 12.0877 87.7776 13.4974C87.7712 13.8369 87.7766 14.1765 87.7766 14.7134C88.0475 14.5494 88.3067 14.3671 88.5524 14.1675C89.268 13.5043 90.1785 13.0868 91.1503 12.9762C92.122 12.8656 93.1038 13.0677 93.9515 13.553C95.046 14.2171 95.5584 15.1553 95.7849 16.4326C96.2973 19.3137 95.8941 22.2001 96.0476 25.078C96.0755 25.6043 95.8262 25.782 95.3373 25.777C94.367 25.7673 93.3957 25.7526 92.4264 25.7841C91.8866 25.8016 91.7455 25.5686 91.7489 25.0775C91.764 23.0736 91.7825 21.069 91.7357 19.066C91.6895 18.4342 91.5675 17.8101 91.3724 17.207C91.0884 16.1682 89.7562 16.1142 88.9838 16.7114C88.7107 16.9216 88.4903 17.1919 88.3397 17.501C88.1891 17.8102 88.1125 18.1498 88.1157 18.4933C88.04 20.6146 87.9181 22.734 87.8812 24.8553C87.8688 25.5585 87.6711 25.8248 86.9446 25.7887C85.9077 25.7385 84.8644 25.7766 83.7572 25.7766Z" fill="#7A8680"/>
<path d="M141.616 14.0719C144.137 13.059 146.65 12.5691 149.281 13.2967C151.207 13.8295 152.109 15.2849 152.201 17.1096C152.339 19.8741 152.249 22.6498 152.251 25.4209C152.23 25.5392 152.194 25.6545 152.144 25.764C151.307 25.764 150.452 25.8519 149.633 25.7198C149.314 25.6687 148.994 25.1586 148.823 24.7894C148.53 24.1566 148.149 24.2436 147.793 24.611C146.323 26.1294 144.459 26.1645 142.669 25.6942C140.664 25.1677 139.919 22.6738 140.497 20.9206C140.618 20.5276 140.785 20.1495 140.992 19.7936C141.559 18.8634 142.5 18.4605 143.505 18.2767C144.644 18.0686 145.806 17.991 146.957 17.8485C147.314 17.8043 147.803 18.0134 147.872 17.381C147.938 16.7664 147.701 16.1599 147.136 16.1138C146.199 16.0372 145.238 16.2012 144.291 16.3037C143.905 16.3453 143.536 16.5233 143.15 16.5743C143.055 16.5829 142.96 16.5691 142.871 16.534C142.783 16.4989 142.704 16.4435 142.642 16.3723C142.278 15.633 141.964 14.8693 141.616 14.0719ZM147.001 19.9799C146.463 20.136 145.933 20.3197 145.413 20.5303C144.808 20.8078 144.555 21.5878 144.801 22.2371C144.906 22.5027 145.103 22.7222 145.357 22.8554C145.61 22.9887 145.904 23.027 146.183 22.9633C147.334 22.7299 147.906 22.4696 147.928 20.951C147.938 20.3049 147.761 19.9373 147.001 19.9801V19.9799Z" fill="#7A8680"/>
<path d="M122.896 21.1123C122.896 22.4236 122.875 23.7354 122.907 25.0459C122.92 25.5812 122.772 25.8415 122.2 25.7816C121.927 25.7482 121.652 25.7488 121.38 25.7834C120.383 25.9303 119.676 25.6631 119.314 24.6294C119.132 24.1091 118.68 24.3278 118.423 24.5976C116.966 26.1307 115.119 26.1056 113.305 25.7069C112.023 25.4249 111.272 24.3254 111.023 23.0715C110.726 21.5834 110.973 20.1432 112.231 19.1177C112.729 18.7216 113.315 18.4485 113.94 18.3207C115.123 18.0851 116.337 18.0076 117.536 17.8472C117.883 17.8009 118.384 18.0485 118.466 17.4093C118.548 16.7671 118.304 16.152 117.703 16.1072C116.767 16.0376 115.811 16.2311 114.865 16.3252C114.749 16.3367 114.645 16.4377 114.528 16.4737C113.626 16.7525 113.443 16.6508 112.84 15.5504C112.09 14.1825 112.066 14.1006 113.509 13.6075C115.635 12.8819 117.829 12.6422 120.02 13.3423C121.941 13.9569 122.72 15.4707 122.868 17.3272C122.968 18.581 122.887 19.8492 122.887 21.1111L122.896 21.1123ZM118.505 21.0812C118.536 20.075 118.479 19.9878 117.485 20.1042C116.973 20.168 116.474 20.3154 116.009 20.5403C115.77 20.6507 115.575 20.8358 115.451 21.0673C115.328 21.2988 115.285 21.564 115.327 21.8225C115.384 22.3607 115.608 22.6785 116.197 22.849C117.321 23.1744 118.683 22.4331 118.505 21.0812H118.505Z" fill="#7A8680"/>
<path d="M67.6352 22.1376C67.6352 23.137 67.6688 23.9009 67.6134 24.6585C67.5886 24.7844 67.5339 24.9027 67.4539 25.0035C67.3739 25.1042 67.271 25.1845 67.1535 25.2378C66.306 25.4854 65.4441 25.7594 64.5712 25.8315C62.9171 25.9685 61.2523 26.0496 59.6614 25.343C57.9875 24.5988 56.9658 23.3688 56.5247 21.6017C56.1628 20.1298 56.1796 18.5909 56.5736 17.1271C57.0277 15.3652 58.0807 14.0883 59.8354 13.388C61.187 12.8488 62.5708 12.9342 63.9488 13.03C64.9387 13.1219 65.8748 13.52 66.6256 14.1684C67.3765 14.8167 67.9044 15.6827 68.1352 16.6448C68.3566 17.6705 68.3886 18.7363 68.5118 19.7833C68.5802 20.3646 68.3313 20.5627 67.7466 20.5552C65.7314 20.5298 63.7159 20.5435 61.7005 20.548C60.5267 20.5506 60.3984 20.7383 60.9654 21.7675C61.2818 22.3424 61.7649 22.7907 62.4835 22.7962C63.5566 22.8304 64.6307 22.8101 65.7017 22.7356C66.3048 22.6789 66.8843 22.3795 67.6352 22.1376ZM60.5957 17.7262C61.945 18.0103 63.1726 17.9047 64.3942 17.8162C64.4715 17.8107 64.6234 17.4691 64.5762 17.346C64.3171 16.6691 63.9478 16.095 63.1632 15.8761C62.8581 15.7722 62.529 15.7594 62.2166 15.8392C61.9041 15.919 61.622 16.0879 61.4048 16.3252C61.0764 16.6765 60.9056 17.1721 60.5959 17.7262H60.5957Z" fill="#7A8680"/>
<path d="M54.4064 22.2674C54.4064 23.2664 54.526 24.1031 54.3528 24.8755C54.2731 25.2278 53.6374 25.6611 53.2225 25.6966C51.918 25.8088 50.5704 25.9171 49.2942 25.7034C48.7778 25.6145 48.3017 25.3688 47.9312 25.0002C47.5606 24.6315 47.3138 24.1578 47.2245 23.6441C47.0337 22.6776 46.9111 21.699 46.8578 20.7155C46.7956 19.5061 46.8337 18.292 46.8448 17.0801C46.8488 16.6324 46.6798 16.4228 46.2137 16.3392C45.9257 16.2874 45.4807 16.0654 45.445 15.8614C45.3538 15.3384 45.1892 14.7468 45.7625 14.2993C46.3732 13.8548 46.9359 13.3486 47.4417 12.7886C47.7646 12.3598 47.9877 11.8649 48.0947 11.3398C48.2177 10.8334 48.5033 10.7143 48.9411 10.7147C49.0407 10.7147 49.1404 10.7083 49.24 10.7129C49.8319 10.7404 50.582 10.5678 50.965 10.8638C51.2675 11.0977 51.1467 11.908 51.1621 12.4639C51.1744 12.9125 51.3861 13.087 51.8034 13.0915C52.4251 13.0981 53.0471 13.1128 53.6689 13.1102C54.1023 13.1084 54.3139 13.3098 54.3135 13.7379C54.3135 13.812 54.3149 13.8864 54.3167 13.9605C54.3747 16.2739 54.3753 16.29 52.0648 16.3491C51.4012 16.3659 51.1338 16.5931 51.1563 17.2761C51.1983 18.5612 51.2316 19.8521 51.1535 21.1336C51.083 22.2918 52.5634 23.017 53.4265 22.5412C53.6691 22.4062 53.973 22.383 54.4064 22.2674Z" fill="#7A8680"/>
<path d="M81.0074 21.7569C81.0074 22.7416 81.0235 23.6721 80.9898 24.6007C80.9849 24.7395 80.7627 24.8957 80.6096 24.9972C79.3727 25.8138 77.9669 25.9058 76.5442 25.8955C74.7782 25.8828 73.1082 25.4929 72.0319 24.0002C71.4523 23.1768 71.0519 22.2422 70.8561 21.2561C70.6537 20.2343 70.771 19.1435 70.7987 18.084C70.8507 16.0908 72.6521 13.8896 74.5964 13.3483C76.5349 12.7908 78.6003 12.8519 80.502 13.5232C81.0311 13.7042 81.4534 13.9395 81.0869 14.6447C80.8051 15.1877 80.6684 15.8035 80.4057 16.3584C80.211 16.7706 80.002 17.0045 79.3774 16.7418C78.5458 16.3919 77.5873 16.0196 76.6692 16.4748C76.171 16.7216 75.5731 17.094 75.3788 17.5581C75.1137 18.1741 74.9765 18.837 74.9756 19.5072C74.9746 20.1773 75.11 20.8406 75.3735 21.4574C75.7637 22.3892 77.0462 22.8172 78.004 22.5121C78.9271 22.2187 79.8834 22.0343 81.0074 21.7569Z" fill="#7A8680"/>
<path d="M105.241 12.8105C106.333 13.0494 107.371 13.2467 108.392 13.51C109.107 13.6942 109.262 14.037 109.001 14.7231C108.784 15.2961 108.481 15.8391 108.293 16.42C108.105 17.0009 107.843 16.8958 107.356 16.7602C106.548 16.5062 105.704 16.3856 104.856 16.4033C103.443 16.4878 103.184 17.6906 102.937 18.7798C102.716 19.7552 102.99 20.6876 103.36 21.5925C103.636 22.2665 105.269 22.8363 105.873 22.6006C106.624 22.3305 107.389 22.0993 108.165 21.9079C108.667 21.7691 108.992 21.899 108.964 22.5072C108.925 22.9758 108.928 23.4468 108.972 23.9148C109.079 24.7291 108.59 25.0379 107.956 25.3193C106.325 26.0439 104.615 26.0368 102.929 25.7447C100.9 25.3936 99.288 23.8328 98.8536 21.6674C98.5419 20.2719 98.545 18.8251 98.8626 17.4309C99.3108 15.5508 100.357 14.1855 102.147 13.5033C103.119 13.1325 104.198 13.035 105.241 12.8105Z" fill="#7A8680"/>
<path d="M155.431 17.076C155.431 14.506 155.45 11.9359 155.417 9.36647C155.407 8.65632 155.636 8.38353 156.355 8.42258C157.172 8.46739 157.995 8.44239 158.815 8.43268C159.378 8.42633 159.623 8.68765 159.623 9.24554C159.618 14.5088 159.618 19.7722 159.625 25.0356C159.625 25.5695 159.408 25.7955 158.866 25.7824C157.972 25.761 157.075 25.7457 156.182 25.7884C155.575 25.8173 155.417 25.5713 155.422 25.0086C155.442 22.3643 155.431 19.7202 155.431 17.076Z" fill="#7A8680"/>
<path d="M0.755859 0.226731C1.02728 0.205716 1.2985 0.166253 1.56973 0.166253C12.1426 0.16308 22.7155 0.162295 33.2884 0.163881C34.336 0.163881 34.3388 0.166244 34.3388 1.24257C34.3396 9.38056 34.3432 17.5184 34.3496 25.6561C34.3654 25.9737 34.3117 26.2908 34.1922 26.5856C34.0727 26.8804 33.8902 27.1459 33.6574 27.3637C31.5859 29.3978 29.571 31.4894 27.4811 33.5043C27.1822 33.7917 26.5875 33.881 26.1289 33.8824C18.9643 33.9052 11.8005 33.8968 4.63489 33.9C3.34195 33.9 2.04901 33.9214 0.755859 33.9327V0.226731ZM17.8302 19.282H17.833C17.833 21.1621 17.8573 23.0427 17.8204 24.9222C17.8065 25.6324 18.0721 25.8982 18.7696 25.8921C20.8844 25.8732 22.9996 25.9004 25.114 25.8691C25.4816 25.8692 25.8387 25.7472 26.1285 25.5223C27.1094 24.6302 28.0534 23.6966 28.9651 22.7351C29.2121 22.4635 29.3608 22.1177 29.3876 21.7525C29.437 20.3687 29.4056 18.9825 29.4201 17.5971C29.4251 17.1256 29.23 16.9361 28.7525 16.9428C27.5833 16.9603 26.4131 16.9702 25.2451 16.9369C24.6638 16.9202 24.4548 17.1258 24.4679 17.7035C24.4972 18.9398 24.4604 20.1775 24.4813 21.4141C24.4912 22.0025 24.2328 22.1968 23.6666 22.1776C23.0008 22.155 22.8342 21.7961 22.8372 21.2106C22.8496 18.8853 22.8557 16.5598 22.8326 14.2344C22.8264 13.6199 23.014 13.326 23.673 13.3112C24.3651 13.2955 24.5431 13.6264 24.4793 14.2275C24.4674 14.4251 24.4664 14.6232 24.4763 14.8209C24.4809 15.7959 24.6469 15.9674 25.6568 15.9799C26.6022 15.9914 27.5488 15.9571 28.493 15.9916C29.1676 16.0164 29.4348 15.7513 29.4265 15.0812C29.4046 13.325 29.405 11.5686 29.4279 9.81196C29.4352 9.19479 29.2176 8.90535 28.5648 8.9111C26.45 8.92954 24.3346 8.89979 22.2204 8.93806C21.8657 8.97612 21.5331 9.12781 21.2726 9.37027C20.548 10.0061 19.8928 10.7198 19.1738 11.3625C18.1722 12.2578 17.7077 13.3025 17.8053 14.6821C17.9131 16.2085 17.8298 17.7471 17.8298 19.282H17.8302ZM16.9444 20.9501H16.9878C16.9878 19.6146 16.9878 18.279 16.9878 16.9434C16.9864 15.8772 16.8436 15.7259 15.8043 15.7174C14.9585 15.7103 14.1126 15.7117 13.2668 15.7174C12.2058 15.724 11.9872 15.9371 11.9848 16.9652C11.9819 18.3009 11.9747 19.6367 11.9882 20.9721C11.9948 21.605 11.6803 21.809 11.0957 21.7241C10.5402 21.6435 10.5576 21.2156 10.5564 20.8197C10.5495 18.9398 10.5485 17.06 10.5534 15.1801C10.5554 14.2804 10.6233 14.213 11.5335 14.2087C12.9514 14.2017 14.3697 14.2178 15.7874 14.1984C16.676 14.1863 16.9336 13.9075 16.9456 13.0433C16.9496 12.746 16.9498 12.4498 16.9498 12.153C16.9498 11.1161 16.9498 11.1107 15.9398 11.106C14.6463 11.1 13.3525 11.1076 12.059 11.102C10.8284 11.0969 10.5805 10.8972 10.4402 9.70194C10.3731 9.13037 10.1413 8.88236 9.53287 8.90655C8.51453 8.94739 7.49241 8.94619 6.47388 8.91011C5.72737 8.88374 5.42784 9.22871 5.42943 9.92379C5.4374 13.5846 5.43462 17.2452 5.46152 20.9055C5.45371 21.2648 5.51932 21.6218 5.65436 21.9551C5.78939 22.2884 5.99105 22.5909 6.2471 22.8443C7.09983 23.6857 7.89118 24.5905 8.76962 25.4032C9.09988 25.7104 9.52375 25.8992 9.97408 25.9396C12.0375 25.9938 14.103 25.9547 16.1678 25.9722C16.7437 25.9769 16.9635 25.7559 16.9532 25.1805C16.9269 23.7703 16.944 22.3601 16.944 20.9501H16.9444Z" fill="#7A8680"/>
<path d="M17.8299 19.2818C17.8299 17.7479 17.9132 16.2088 17.8052 14.6822C17.7076 13.3026 18.1721 12.258 19.1737 11.3626C19.8927 10.7199 20.5487 10.0062 21.2725 9.37038C21.533 9.12793 21.8657 8.97624 22.2203 8.93818C24.3345 8.89991 26.4499 8.92965 28.5647 8.91122C29.2176 8.90547 29.4352 9.19493 29.4278 9.8121C29.4071 11.5685 29.4066 13.3249 29.4264 15.0813C29.4348 15.7514 29.1673 16.0165 28.493 15.9917C27.5488 15.9572 26.6022 15.9917 25.6568 15.98C24.6468 15.9675 24.481 15.796 24.4762 14.821C24.4663 14.6233 24.4673 14.4252 24.4792 14.2276C24.543 13.6265 24.365 13.2958 23.6729 13.3113C23.0139 13.3262 22.8263 13.6196 22.8325 14.2346C22.8556 16.5599 22.8495 18.8855 22.8371 21.2108C22.8341 21.7962 23.0007 22.1551 23.6665 22.1777C24.2327 22.1975 24.4912 22.0026 24.4812 21.4142C24.4613 20.1777 24.4971 18.94 24.4678 17.7036C24.4541 17.1259 24.6631 16.9203 25.245 16.937C26.4134 16.9703 27.5836 16.9604 28.7524 16.943C29.2307 16.936 29.425 17.1255 29.42 17.5972C29.4055 18.9826 29.437 20.3688 29.3875 21.7526C29.3608 22.1178 29.2121 22.4637 28.9651 22.7352C28.0533 23.6967 27.1093 24.6309 26.1285 25.5224C25.8386 25.7473 25.4815 25.8694 25.1139 25.8692C22.9995 25.9005 20.8843 25.8734 18.7695 25.8922C18.0721 25.8983 17.8064 25.6325 17.8204 24.9223C17.8572 23.0429 17.8329 21.1622 17.8329 19.2822L17.8299 19.2818Z" fill="#FAFBFA"/>
<path d="M16.9441 20.9503C16.9441 22.3603 16.9269 23.7705 16.9524 25.1799C16.9628 25.7548 16.743 25.9763 16.1671 25.9715C14.1023 25.9541 12.0367 25.9931 9.97336 25.939C9.52303 25.8986 9.09915 25.7098 8.76889 25.4025C7.89046 24.5897 7.0991 23.685 6.24637 22.8436C5.99032 22.5902 5.78866 22.2877 5.65363 21.9545C5.51859 21.6212 5.453 21.2641 5.4608 20.9049C5.4339 17.2445 5.43669 13.5839 5.42872 9.92315C5.42712 9.22807 5.72664 8.88309 6.47315 8.90946C7.49169 8.94535 8.51381 8.94674 9.53215 8.9059C10.14 8.88172 10.3723 9.12973 10.4395 9.7013C10.579 10.8966 10.8277 11.0962 12.0583 11.1014C13.3518 11.1069 14.6455 11.0994 15.9391 11.1053C16.9487 11.1101 16.9488 11.1155 16.949 12.1523C16.949 12.4497 16.949 12.7459 16.9449 13.0427C16.9329 13.9069 16.6752 14.1856 15.7866 14.1977C14.3689 14.2176 12.9506 14.2011 11.5328 14.208C10.6226 14.2124 10.5547 14.2798 10.5527 15.1795C10.5487 17.0593 10.5497 18.9392 10.5557 20.8191C10.5571 21.2156 10.5395 21.6428 11.0949 21.7235C11.6796 21.8084 11.9941 21.6046 11.9875 20.9715C11.974 19.6361 11.9811 18.3002 11.9841 16.9646C11.9865 15.9364 12.2051 15.7233 13.2661 15.7168C14.1119 15.7118 14.9578 15.7104 15.8036 15.7168C16.8428 15.7253 16.9857 15.8766 16.9871 16.9428C16.9887 18.2784 16.9887 19.6139 16.9871 20.9495L16.9441 20.9503Z" fill="#FAFBFA"/>
</svg>
