<svg width="56" height="57" viewBox="0 0 56 57" fill="none" xmlns="http://www.w3.org/2000/svg">
<path d="M0 28.0996C0 12.6356 12.536 0.0996094 28 0.0996094C43.464 0.0996094 56 12.6356 56 28.0996C56 43.5636 43.464 56.0996 28 56.0996C12.536 56.0996 0 43.5636 0 28.0996Z" fill="#142A20"/>
<path d="M38.1618 21.7555C37.3984 22.0932 36.5888 22.315 35.7598 22.4135C36.6336 21.891 37.2875 21.0686 37.5998 20.0995C36.7798 20.5875 35.8808 20.9295 34.9438 21.1145C34.3144 20.4411 33.4802 19.9945 32.5708 19.8441C31.6614 19.6937 30.7277 19.848 29.9151 20.283C29.1024 20.718 28.4562 21.4092 28.0769 22.2493C27.6976 23.0894 27.6066 24.0313 27.8178 24.9285C26.1549 24.8452 24.5281 24.4131 23.0431 23.6602C21.5581 22.9073 20.2479 21.8506 19.1978 20.5585C18.8261 21.197 18.6308 21.9228 18.6318 22.6615C18.6318 24.1115 19.3698 25.3925 20.4918 26.1425C19.8278 26.1216 19.1784 25.9423 18.5978 25.6195V25.6715C18.598 26.6372 18.9322 27.5732 19.5437 28.3206C20.1551 29.068 21.0063 29.581 21.9528 29.7725C21.3364 29.9396 20.6901 29.9642 20.0628 29.8445C20.3297 30.6758 20.8498 31.4027 21.5504 31.9236C22.251 32.4446 23.0969 32.7333 23.9698 32.7495C23.1023 33.4309 22.109 33.9345 21.0467 34.2317C19.9844 34.5289 18.8739 34.6138 17.7788 34.4815C19.6905 35.711 21.9159 36.3637 24.1888 36.3615C31.8818 36.3615 36.0888 29.9885 36.0888 24.4615C36.0888 24.2815 36.0838 24.0995 36.0758 23.9215C36.8947 23.3297 37.6014 22.5966 38.1628 21.7565L38.1618 21.7555Z" fill="#FAFBFA"/>
</svg>
