<svg width="130" height="38" viewBox="0 0 130 38" fill="none" xmlns="http://www.w3.org/2000/svg">
<path d="M61.6658 7.27262C61.7683 8.81703 61.3309 10.3491 60.428 11.6079C59.5251 12.8666 58.2126 13.7741 56.7141 14.1758C54.0425 14.8063 51.4541 15.7466 49.0017 16.9775C46.1847 18.379 43.7233 20.3999 41.8027 22.8879C39.8822 25.3759 38.5527 28.2662 37.9143 31.3411C37.6465 32.968 36.8215 34.4519 35.5799 35.54C34.3382 36.6281 32.7568 37.2532 31.105 37.3087L30.7104 37.3086C29.0587 37.2518 27.4777 36.6256 26.2369 35.5365C24.9961 34.4474 24.1722 32.9629 23.9056 31.3358C23.2696 28.2605 21.9422 25.3692 20.0236 22.8797C18.1049 20.3903 15.645 18.3675 12.8291 16.9639C10.3776 15.7311 7.78992 14.7888 5.11879 14.1563C3.65464 13.7299 2.37402 12.8302 1.47819 11.5988C0.582357 10.3673 0.122081 8.87385 0.169708 7.35306C0.217336 5.83228 0.77018 4.37039 1.74132 3.19711C2.71246 2.02384 4.04687 1.2057 5.53485 0.871257C6.44729 0.654269 7.39433 0.623901 8.31887 0.781909C9.24341 0.939917 10.1263 1.28306 10.9143 1.79066C11.7023 2.29826 12.3791 2.95976 12.9039 3.73534C13.4286 4.51092 13.7905 5.38447 13.9676 6.30333C14.8152 9.72239 16.3035 12.9507 18.354 15.8179C21.6408 20.2311 25.7339 22.8569 30.9132 22.7604C36.0924 22.8608 40.1875 20.2381 43.4776 15.8274C45.5303 12.9617 47.0211 9.73453 47.8712 6.3161C48.049 5.39738 48.4116 4.5241 48.9369 3.74891C49.4622 2.97373 50.1395 2.31274 50.9279 1.80574C51.7163 1.29873 52.5994 0.956249 53.5241 0.798937C54.4488 0.641626 55.3958 0.672707 56.3081 0.890383C57.7898 1.19963 59.124 1.99739 60.0959 3.15513C61.0678 4.31287 61.6208 5.76322 61.6658 7.27262Z" fill="#51A969"/>
<path d="M7.14049 24.0407C8.4065 24.0557 9.63982 24.4436 10.6855 25.1556C11.7313 25.8676 12.5428 26.872 13.0181 28.0426C13.4934 29.2132 13.6114 30.4978 13.3571 31.7351C13.1029 32.9723 12.4878 34.107 11.5891 34.9967C10.6904 35.8863 9.54825 36.4913 8.30604 36.7355C7.06383 36.9796 5.777 36.8522 4.60716 36.3692C3.43731 35.8861 2.43663 35.069 1.73083 34.0205C1.02503 32.972 0.645595 31.7387 0.640153 30.4758C0.661469 28.7672 1.35474 27.1353 2.57058 25.9317C3.78643 24.728 5.42755 24.0489 7.14049 24.0407Z" fill="#ED5B49"/>
<path d="M48.5866 30.4201C48.5894 28.7426 49.2554 27.1339 50.4402 25.9434C51.6249 24.753 53.2327 24.0769 54.9143 24.0619C56.1904 24.0432 57.4432 24.4042 58.5128 25.0988C59.5823 25.7934 60.4201 26.7902 60.9193 27.9619C61.4185 29.1336 61.5565 30.427 61.3155 31.6772C61.0745 32.9275 60.4656 34.0777 59.5665 34.9812C58.6673 35.8847 57.5187 36.5005 56.2671 36.7499C55.0156 36.9994 53.7179 36.8712 52.5398 36.3818C51.3616 35.8923 50.3563 35.0638 49.6522 34.002C48.9481 32.9401 48.5771 31.6931 48.5866 30.4201Z" fill="#ED5B49"/>
<path d="M37.2888 7.62431C37.2876 8.87917 36.9142 10.1056 36.2157 11.1492C35.5172 12.1928 34.5248 13.007 33.3634 13.4891C32.202 13.9712 30.9235 14.0998 29.689 13.8586C28.4545 13.6174 27.3191 13.0173 26.4259 12.1337C25.5326 11.2502 24.9213 10.1227 24.6691 8.89337C24.4168 7.66399 24.5348 6.38767 25.0083 5.22508C25.4817 4.06248 26.2894 3.06561 27.3297 2.35999C28.3699 1.65437 29.5962 1.27156 30.8541 1.25974C31.7007 1.23686 32.5433 1.38543 33.3308 1.69649C34.1183 2.00754 34.8343 2.47462 35.4358 3.0695C36.0372 3.66437 36.5115 4.37469 36.8299 5.15755C37.1484 5.94042 37.3045 6.77958 37.2888 7.62431Z" fill="#ED5B49"/>
<path d="M82.8916 11L86.3236 2.96H84.7996L82.0396 9.692H81.9436L79.1596 2.96H77.6236L81.0556 11H82.8916ZM88.6254 11.12C89.9814 11.12 90.9294 10.52 91.2414 9.512H91.3254V11H92.5134V7.376C92.5134 5.948 91.6614 4.916 89.7654 4.916C87.8694 4.916 86.7414 5.936 86.7414 7.292V7.34H88.0254V7.292C88.0254 6.416 88.5654 6.056 89.6694 6.056C90.8094 6.056 91.2414 6.404 91.2414 7.388V7.736L88.5294 8.024C87.3534 8.156 86.6094 8.636 86.6094 9.56C86.6094 10.544 87.3894 11.12 88.6254 11.12ZM87.9054 9.476C87.9054 9.008 88.2294 8.852 88.9014 8.768L91.2414 8.504C91.2414 9.68 90.3294 10.184 88.9734 10.184C88.2294 10.184 87.9054 9.956 87.9054 9.476ZM94.9663 11V7.652C94.9663 6.584 95.3863 6.02 96.4063 6.02C97.2943 6.02 97.6543 6.416 97.6543 7.268V7.796H98.9383V7.016C98.9383 5.888 98.3503 4.916 96.9943 4.916C95.7703 4.916 95.1223 5.684 94.9423 6.644H94.8583V5.036H93.6703V11H94.9663ZM101.048 4.34V2.96H99.7523V4.34H101.048ZM101.048 11V5.036H99.7523V11H101.048ZM104 11.12C105.356 11.12 106.304 10.52 106.616 9.512H106.7V11H107.888V7.376C107.888 5.948 107.036 4.916 105.14 4.916C103.244 4.916 102.116 5.936 102.116 7.292V7.34H103.4V7.292C103.4 6.416 103.94 6.056 105.044 6.056C106.184 6.056 106.616 6.404 106.616 7.388V7.736L103.904 8.024C102.728 8.156 101.984 8.636 101.984 9.56C101.984 10.544 102.764 11.12 104 11.12ZM103.28 9.476C103.28 9.008 103.604 8.852 104.276 8.768L106.616 8.504C106.616 9.68 105.704 10.184 104.348 10.184C103.604 10.184 103.28 9.956 103.28 9.476ZM110.233 11V9.284H110.317C110.569 10.472 111.445 11.12 112.801 11.12C114.697 11.12 115.717 9.86 115.717 8.024C115.717 6.164 114.709 4.916 112.873 4.916C111.445 4.916 110.653 5.648 110.413 6.656H110.341V2.96H109.045V11H110.233ZM110.341 8.084V7.988C110.341 6.716 111.073 6.092 112.417 6.092C113.689 6.092 114.421 6.584 114.421 8.024C114.421 9.452 113.701 9.932 112.393 9.932C111.109 9.932 110.341 9.332 110.341 8.084ZM117.912 11V2.96H116.616V11H117.912ZM122.112 11.12C123.888 11.12 125.136 10.244 125.136 8.972V8.864H123.84V8.96C123.84 9.668 123.324 10.076 122.076 10.076C120.696 10.076 120.132 9.464 120.084 8.312H125.148C125.184 8.132 125.196 7.964 125.196 7.748C125.196 5.936 123.936 4.916 122.088 4.916C120.144 4.916 118.872 6.164 118.872 8.024C118.872 10.016 120.156 11.12 122.112 11.12ZM122.064 5.936C123.336 5.936 123.972 6.464 123.972 7.568V7.592H120.096C120.168 6.524 120.744 5.936 122.064 5.936ZM82.0156 23C84.5116 23 86.0836 21.464 86.0836 18.98C86.0836 16.496 84.5116 14.96 82.0156 14.96H78.3556V23H82.0156ZM82.0156 16.124C83.8756 16.124 84.7156 16.916 84.7156 18.98C84.7156 21.044 83.8756 21.836 82.0156 21.836H79.6396V16.124H82.0156ZM88.8012 23.12C90.1572 23.12 91.1052 22.52 91.4172 21.512H91.5012V23H92.6892V19.376C92.6892 17.948 91.8372 16.916 89.9412 16.916C88.0452 16.916 86.9172 17.936 86.9172 19.292V19.34H88.2012V19.292C88.2012 18.416 88.7412 18.056 89.8452 18.056C90.9852 18.056 91.4172 18.404 91.4172 19.388V19.736L88.7052 20.024C87.5292 20.156 86.7852 20.636 86.7852 21.56C86.7852 22.544 87.5652 23.12 88.8012 23.12ZM88.0812 21.476C88.0812 21.008 88.4052 20.852 89.0772 20.768L91.4172 20.504C91.4172 21.68 90.5052 22.184 89.1492 22.184C88.4052 22.184 88.0812 21.956 88.0812 21.476ZM97.7581 23V21.836H96.6781C95.9341 21.836 95.5981 21.644 95.5981 20.912V18.116H97.7581V17.036H95.5981V15.728H94.3141V17.036H93.3061V18.116H94.3141V20.984C94.3141 22.436 95.1061 23 96.3901 23H97.7581ZM100.321 23.12C101.677 23.12 102.625 22.52 102.937 21.512H103.021V23H104.209V19.376C104.209 17.948 103.357 16.916 101.461 16.916C99.5648 16.916 98.4368 17.936 98.4368 19.292V19.34H99.7208V19.292C99.7208 18.416 100.261 18.056 101.365 18.056C102.505 18.056 102.937 18.404 102.937 19.388V19.736L100.225 20.024C99.0488 20.156 98.3048 20.636 98.3048 21.56C98.3048 22.544 99.0848 23.12 100.321 23.12ZM99.6008 21.476C99.6008 21.008 99.9248 20.852 100.597 20.768L102.937 20.504C102.937 21.68 102.025 22.184 100.669 22.184C99.9248 22.184 99.6008 21.956 99.6008 21.476Z" fill="#081F14"/>
<path d="M79.5796 35V30.284L79.5316 28.892H79.6276L80.6356 30.308L84.2596 35H85.6516V26.96H84.3556V31.712L84.4156 33.164H84.3196L83.2756 31.664L79.6756 26.96H78.2836V35H79.5796ZM89.85 35.12C91.626 35.12 92.874 34.244 92.874 32.972V32.864H91.578V32.96C91.578 33.668 91.062 34.076 89.814 34.076C88.434 34.076 87.87 33.464 87.822 32.312H92.886C92.922 32.132 92.934 31.964 92.934 31.748C92.934 29.936 91.674 28.916 89.826 28.916C87.882 28.916 86.61 30.164 86.61 32.024C86.61 34.016 87.894 35.12 89.85 35.12ZM89.802 29.936C91.074 29.936 91.71 30.464 91.71 31.568V31.592H87.834C87.906 30.524 88.482 29.936 89.802 29.936ZM97.8167 35V33.836H96.7367C95.9927 33.836 95.6567 33.644 95.6567 32.912V30.116H97.8167V29.036H95.6567V27.728H94.3727V29.036H93.3647V30.116H94.3727V32.984C94.3727 34.436 95.1647 35 96.4487 35H97.8167ZM101.483 35L102.803 31.568L103.259 30.104H103.355L103.811 31.568L105.119 35H106.727L108.539 29.036H107.219L106.223 32.42L105.947 33.956H105.851L105.407 32.3L104.147 29.036H102.491L101.243 32.3L100.799 33.956H100.703L100.427 32.42L99.4313 29.036H98.0873L99.8753 35H101.483ZM112.246 35.12C114.238 35.12 115.57 33.86 115.57 32.024C115.57 30.164 114.238 28.916 112.246 28.916C110.266 28.916 108.934 30.164 108.934 32.024C108.934 33.86 110.266 35.12 112.246 35.12ZM112.246 33.968C110.806 33.968 110.206 33.284 110.206 32.024C110.206 30.752 110.806 30.056 112.246 30.056C113.698 30.056 114.298 30.752 114.298 32.024C114.298 33.284 113.698 33.968 112.246 33.968ZM117.806 35V31.652C117.806 30.584 118.226 30.02 119.246 30.02C120.134 30.02 120.494 30.416 120.494 31.268V31.796H121.778V31.016C121.778 29.888 121.19 28.916 119.834 28.916C118.61 28.916 117.962 29.684 117.782 30.644H117.698V29.036H116.51V35H117.806ZM123.888 35V32.564H125.592L127.356 35H128.88L126.648 31.904L128.892 29.036H127.38L125.592 31.4H123.888V26.96H122.592V35H123.888Z" fill="#ED5B49"/>
</svg>
