<svg width="25" height="25" viewBox="0 0 25 25" fill="none" xmlns="http://www.w3.org/2000/svg">
<path d="M12.0419 13.2359L16.2849 17.4779L14.8699 18.8929L13.0419 17.0649V22.6499H11.0419V17.0629L9.21389 18.8929L7.79889 17.4779L12.0419 13.2359ZM12.0419 2.6499C13.7589 2.64998 15.416 3.28102 16.6981 4.42302C17.9802 5.56503 18.798 7.13837 18.9959 8.8439C20.2402 9.18322 21.3256 9.94901 22.0625 11.0074C22.7995 12.0659 23.141 13.3496 23.0275 14.6343C22.914 15.919 22.3526 17.1229 21.4414 18.0357C20.5303 18.9485 19.3274 19.5121 18.0429 19.6279L18.0419 17.6499C18.0435 16.077 17.4274 14.5665 16.3262 13.4434C15.2251 12.3202 13.727 11.6744 12.1544 11.6449C10.5818 11.6154 9.06055 12.2046 7.91807 13.2856C6.77559 14.3667 6.10329 15.8531 6.04589 17.4249L6.04189 17.6499V19.6279C4.75734 19.5122 3.55429 18.9488 2.64302 18.0361C1.73175 17.1234 1.17021 15.9195 1.05656 14.6347C0.942908 13.35 1.28437 12.0662 2.02126 11.0077C2.75814 9.94917 3.84359 9.18329 5.08789 8.8439C5.28559 7.13828 6.10329 5.56481 7.38547 4.42277C8.66764 3.28072 10.3248 2.64977 12.0419 2.6499Z" fill="#51A969"/>
</svg>
