<svg width="56" height="57" viewBox="0 0 56 57" fill="none" xmlns="http://www.w3.org/2000/svg">
<path d="M0 28.0996C0 12.6356 12.536 0.0996094 28 0.0996094C43.464 0.0996094 56 12.6356 56 28.0996C56 43.5636 43.464 56.0996 28 56.0996C12.536 56.0996 0 43.5636 0 28.0996Z" fill="#142A20"/>
<path d="M37.543 22.5976C38 24.3796 38 28.0996 38 28.0996C38 28.0996 38 31.8196 37.543 33.6016C37.289 34.5866 36.546 35.3616 35.605 35.6236C33.896 36.0996 28 36.0996 28 36.0996C28 36.0996 22.107 36.0996 20.395 35.6236C19.45 35.3576 18.708 34.5836 18.457 33.6016C18 31.8196 18 28.0996 18 28.0996C18 28.0996 18 24.3796 18.457 22.5976C18.711 21.6126 19.454 20.8376 20.395 20.5756C22.107 20.0996 28 20.0996 28 20.0996C28 20.0996 33.896 20.0996 35.605 20.5756C36.55 20.8416 37.292 21.6156 37.543 22.5976ZM26 31.5996L32 28.0996L26 24.5996V31.5996Z" fill="#FAFBFA"/>
</svg>
